<?xml version="1.0" encoding="utf-8"?>
<!-- Generated by IcoMoon.io -->
<svg version="1.1" xmlns="http://www.w3.org/2000/svg" xmlns:xlink="http://www.w3.org/1999/xlink" width="5104" height="800" viewBox="0 0 5104 800">
<svg id="icon-coins" width="64" height="64" viewBox="0 0 64 64" x="0" y="0">
<path d="M57 46h-24.492c0.718-1.238 1.268-2.58 1.632-4h22.86c1.106 0 2 0.894 2 2 0 1.104-0.894 2-2 2zM57 40h-22.472c0.082-0.656 0.138-1.322 0.138-2 0-0.68-0.056-1.344-0.138-2h22.472c1.106 0 2 0.894 2 2 0 1.104-0.894 2-2 2zM57 34h-22.86c-0.366-1.42-0.914-2.762-1.632-4h24.492c1.106 0 2 0.894 2 2 0 1.104-0.894 2-2 2zM57 28h-25.856c-1.3-1.622-2.906-2.986-4.738-4h30.594c1.106 0 2 0.894 2 2 0 1.104-0.894 2-2 2zM57 22h-32c-1.106 0-2-0.896-2-2 0-1.106 0.894-2 2-2h32c1.106 0 2 0.894 2 2 0 1.104-0.894 2-2 2zM57 16h-32c-1.106 0-2-0.896-2-2 0-1.106 0.894-2 2-2h32c1.106 0 2 0.894 2 2 0 1.104-0.894 2-2 2zM33 38c0 7.732-6.27 14-14 14-7.732 0-14-6.268-14-14s6.268-14 14-14c7.73 0 14 6.268 14 14zM23.956 39.522c-0.202-0.478-0.462-0.894-0.788-1.248s-0.696-0.658-1.112-0.912c-0.416-0.254-0.84-0.48-1.274-0.682-0.434-0.2-0.858-0.388-1.274-0.568-0.416-0.178-0.79-0.37-1.118-0.574-0.33-0.204-0.592-0.438-0.788-0.7s-0.294-0.572-0.294-0.932c0-0.24 0.044-0.468 0.13-0.684 0.088-0.214 0.22-0.4 0.4-0.554 0.178-0.152 0.402-0.274 0.668-0.36 0.266-0.088 0.58-0.13 0.938-0.13 0.458 0 0.878 0.054 1.262 0.166 0.382 0.114 0.72 0.236 1.012 0.374 0.292 0.136 0.538 0.262 0.738 0.378s0.346 0.172 0.438 0.172 0.164-0.024 0.218-0.074c0.052-0.050 0.096-0.128 0.124-0.238 0.030-0.108 0.048-0.246 0.062-0.412 0.012-0.168 0.018-0.374 0.018-0.616 0-0.216-0.004-0.398-0.012-0.542-0.008-0.146-0.024-0.268-0.042-0.364-0.022-0.096-0.046-0.174-0.074-0.232-0.032-0.058-0.086-0.128-0.17-0.21-0.084-0.084-0.254-0.188-0.512-0.31-0.258-0.124-0.554-0.236-0.886-0.334-0.334-0.1-0.692-0.178-1.074-0.236-0.078-0.012-0.158-0.008-0.236-0.018v-2.068h-1.968v2.068c-0.362 0.048-0.712 0.12-1.052 0.218-0.662 0.192-1.236 0.48-1.724 0.868s-0.876 0.876-1.162 1.46c-0.288 0.588-0.43 1.268-0.43 2.042 0 0.674 0.1 1.254 0.298 1.736 0.2 0.482 0.46 0.902 0.782 1.256s0.684 0.656 1.092 0.91c0.408 0.256 0.83 0.482 1.262 0.682 0.434 0.2 0.854 0.388 1.262 0.568s0.772 0.372 1.092 0.574c0.322 0.206 0.582 0.438 0.782 0.7 0.2 0.264 0.3 0.578 0.3 0.944 0 0.318-0.058 0.606-0.174 0.866-0.118 0.258-0.286 0.474-0.506 0.65s-0.488 0.31-0.804 0.406c-0.318 0.096-0.674 0.144-1.076 0.144-0.608 0-1.144-0.068-1.606-0.206s-0.86-0.29-1.194-0.458c-0.334-0.166-0.606-0.316-0.818-0.456-0.212-0.136-0.376-0.206-0.494-0.206-0.084 0-0.158 0.024-0.218 0.068-0.064 0.046-0.114 0.124-0.15 0.232-0.038 0.11-0.064 0.25-0.082 0.426s-0.026 0.392-0.026 0.65c0 0.384 0.024 0.678 0.068 0.882 0.046 0.206 0.124 0.362 0.232 0.468 0.108 0.108 0.284 0.23 0.53 0.372s0.552 0.274 0.918 0.402c0.366 0.126 0.79 0.236 1.268 0.328 0.478 0.090 0.998 0.134 1.556 0.134 0.024 0 0.046-0.004 0.072-0.004v1.926h1.966v-2.184c0.094-0.024 0.194-0.036 0.286-0.062 0.724-0.216 1.358-0.54 1.9-0.968s0.97-0.962 1.288-1.604c0.316-0.642 0.472-1.386 0.472-2.236 0.002-0.646-0.098-1.208-0.296-1.688zM31.144 48h25.856c1.106 0 2 0.894 2 2 0 1.104-0.894 2-2 2h-30.594c1.832-1.014 3.438-2.378 4.738-4z"></path>
</svg>
<svg id="icon-dollar" width="76" height="64" viewBox="0 0 76 64" x="80" y="0">
<path d="M72.004 46.020l0.114-34.178-62.1 0.038-0.002-3.92h65.984v38.062l-3.996-0.002zM69.99 52.034l-3.994-0.004 0.114-34.178-62.1 0.040-0.002-3.92h65.984v38.062zM64.106 56.040h-64.106v-36.060h64.106v36.060zM60.098 23.862h-56.092v28.172h56.090v-28.172zM54.090 49.030c0 0.354 0.088 0.684 0.202 1h-22.24c5.532 0 10.018-5.38 10.018-12.020s-4.486-12.020-10.018-12.020h22.238c-0.114 0.316-0.202 0.646-0.202 1.002 0 1.66 1.344 3.004 3.004 3.004 0.356 0 0.686-0.088 1.002-0.202v16.43c-0.316-0.112-0.646-0.202-1.002-0.202-1.658 0.002-3.002 1.348-3.002 3.008zM50.082 33.838c-1.66 0-3.004 1.792-3.004 4.006s1.344 4.006 3.004 4.006 3.004-1.792 3.004-4.006-1.344-4.006-3.004-4.006zM36.246 30.788c0.030 0.058 0.054 0.136 0.074 0.232 0.022 0.096 0.036 0.218 0.042 0.364 0.010 0.146 0.014 0.328 0.014 0.546 0 0.242-0.006 0.448-0.018 0.614-0.014 0.168-0.036 0.306-0.062 0.414-0.032 0.11-0.072 0.19-0.124 0.238-0.054 0.050-0.128 0.076-0.22 0.076s-0.236-0.058-0.438-0.174c-0.202-0.118-0.448-0.242-0.738-0.378s-0.63-0.262-1.014-0.374-0.804-0.168-1.264-0.168c-0.36 0-0.672 0.042-0.938 0.13-0.268 0.088-0.492 0.208-0.67 0.362-0.18 0.154-0.314 0.34-0.4 0.554-0.088 0.216-0.132 0.446-0.132 0.686 0 0.36 0.098 0.67 0.294 0.934 0.196 0.262 0.458 0.496 0.79 0.7 0.33 0.206 0.704 0.396 1.12 0.576s0.842 0.37 1.276 0.568c0.434 0.202 0.86 0.428 1.278 0.684 0.418 0.254 0.79 0.558 1.114 0.912 0.326 0.356 0.59 0.772 0.79 1.252s0.3 1.044 0.3 1.696c0 0.85-0.16 1.598-0.476 2.238-0.316 0.642-0.746 1.18-1.29 1.61s-1.176 0.752-1.902 0.968c-0.092 0.028-0.192 0.040-0.286 0.062v2.188h-1.97v-1.93c-0.026 0-0.048 0.006-0.074 0.006-0.558 0-1.078-0.046-1.558-0.136-0.48-0.092-0.904-0.202-1.27-0.328-0.368-0.128-0.674-0.264-0.92-0.404-0.248-0.14-0.424-0.264-0.532-0.372s-0.186-0.264-0.232-0.468-0.070-0.5-0.070-0.884c0-0.258 0.008-0.476 0.026-0.65 0.016-0.176 0.044-0.318 0.082-0.428 0.038-0.108 0.088-0.186 0.15-0.232 0.062-0.044 0.136-0.068 0.218-0.068 0.118 0 0.282 0.068 0.496 0.208 0.212 0.136 0.486 0.29 0.82 0.456s0.732 0.318 1.196 0.456c0.462 0.138 1 0.208 1.608 0.208 0.4 0 0.76-0.048 1.076-0.144 0.318-0.096 0.586-0.232 0.808-0.406 0.22-0.176 0.388-0.394 0.506-0.652 0.118-0.26 0.176-0.548 0.176-0.866 0-0.368-0.102-0.684-0.3-0.946-0.2-0.264-0.46-0.496-0.782-0.702-0.322-0.204-0.686-0.396-1.094-0.574-0.41-0.18-0.83-0.37-1.264-0.57s-0.856-0.428-1.264-0.682c-0.408-0.254-0.774-0.558-1.094-0.914-0.32-0.354-0.582-0.774-0.782-1.256-0.2-0.484-0.3-1.064-0.3-1.74 0-0.776 0.144-1.458 0.432-2.044 0.288-0.588 0.676-1.076 1.164-1.464 0.488-0.386 1.064-0.678 1.726-0.87 0.34-0.098 0.692-0.17 1.054-0.218v-2.070h1.97v2.070c0.078 0.010 0.156 0.006 0.234 0.018 0.384 0.058 0.744 0.136 1.078 0.236 0.332 0.1 0.628 0.21 0.886 0.336 0.26 0.124 0.43 0.226 0.516 0.31 0.078 0.074 0.134 0.144 0.164 0.204zM22.036 38.010c0 6.638 4.484 12.020 10.016 12.020h-22.238c0.112-0.316 0.202-0.646 0.202-1 0-1.66-1.346-3.006-3.004-3.006-0.356 0-0.686 0.090-1.002 0.202v-16.43c0.316 0.114 0.646 0.202 1.002 0.202 1.66 0 3.004-1.344 3.004-3.004 0-0.356-0.090-0.686-0.202-1.002h22.238c-5.532-0.002-10.016 5.38-10.016 12.018zM14.022 33.838c-1.66 0-3.004 1.792-3.004 4.006s1.346 4.006 3.004 4.006c1.66 0 3.004-1.792 3.004-4.006s-1.344-4.006-3.004-4.006z"></path>
</svg>
<svg id="icon-wallet" width="64" height="64" viewBox="0 0 64 64" x="240" y="0">
<path d="M36 44c-2.208 0-4-1.792-4-4v-4c0-2.21 1.792-4 4-4h24v12h-24zM39 35.166c-1.656 0-3 1.344-3 3 0 1.658 1.344 3 3 3 1.658 0 3-1.342 3-3 0-1.656-1.342-3-3-3zM30 36v4c0 3.312 2.688 6 6 6h20v8c0 3.312-2.686 6-6 6h-42c-3.312 0-6-2.688-6-6v-38c0-3.314 2.688-6 6-6h19.264l-4.698 1.958h-15.564c-1.656 0-3 1.344-3 3 0 1.658 1.344 3 3 3h48.998v12.042h-20c-3.312 0-6 2.686-6 6zM10.002 22h-4v4h2v-2h2v-2zM10.002 28h-4v4h2.082l-0.082-2 2 0.042v-2.042zM10.002 34h-4v4h2.042l-0.042-2h2v-2zM10.002 40h-4v4h2.042l-0.042-2 2 0.042v-2.042zM10.002 46h-4v4h2v-2h2v-2zM10.002 52h-4v4h2.042l-0.042-1.958h2v-2.042zM18.002 15.876l23.5-9.876 4.5 9.876h-28zM45.292 10h4.708c1.752 0 3.312 0.762 4.41 1.958h-8.162l-0.956-1.958z"></path>
</svg>
<svg id="icon-pig" width="64" height="64" viewBox="0 0 64 64" x="320" y="0">
<path d="M49.348 43.818c0 0 6.66-4.556 6.66-13.542 0-13.376-14.176-18.322-21.798-18.19-7.624 0.134-9.896 2.14-9.896 2.14s-2.594-1.886-5.344-3.466c-2.104-0.82-2.592-0.938-4.054-0.468-1.17 0-0.434 1.948 0.036 2.65 0.466 0.702 2.732 4.58 2.732 4.58s-4.756 4.898-5.108 8.118c0-0.058-2.24-0.018-3.468-0.018s-1.112 1.338-1.112 1.338l0.034 9.428c0 0-0.076 1.338 1.038 1.338 1.112 0 3.476 0.026 3.476 0.026s3.326 4.83 5.434 5.708c0 0.058-1.822 5.006-1.822 5.006s-0.878 1.522 0.702 2.108c1.58 0.584 5.702 2.314 7.458 2.842 1.754 0.526 2.006-0.668 2.006-0.668l1.738-3.754 11.37 0.018 1.738 3.87c0 0 0.334 1.796 2.674 0.802 2.342-0.994 4.898-2.174 6.83-3.168 1.93-0.994 0.66-2.852 0.66-2.852l-1.984-3.846zM18.644 27.528c-1.066 0-1.93-0.866-1.93-1.932s0.864-1.93 1.93-1.93 1.932 0.864 1.932 1.93-0.866 1.932-1.932 1.932zM45.85 21.512c-0.616 0.73-1.018 0.192-1.514 0.046 0 0-2.102-1.95-5.19-2.86-3.198-0.94-6.564-0.486-6.564-0.486-0.496-0.146-1.098-0.162-1.102-0.928 0.026-0.946 1.174-0.954 1.16-0.986 0 0 3.788-0.35 6.958 0.582 3.118 0.916 5.5 2.908 5.5 2.908s1.274 0.878 0.752 1.724z"></path>
</svg>
<svg id="icon-safe" width="64" height="64" viewBox="0 0 64 64" x="400" y="0">
<path d="M54 58l-3.998-0.124v4.124h-6v-4h-23.876l-0.124 4h-6v-3.876l-4.002-0.124c-2.208 0-4-1.792-4-4v-48c0-2.208 1.792-4 4-4h44c2.208 0 4 1.792 4 4v48c0 2.208-1.792 4-4 4zM52 8h-40v7.916l-1.958-0.040v6.166h1.958v15.834h-2v6.124h2v8h40v-44zM50 50h-36v-6h2v-6.124h-2v-15.876h2l0.042-6.084h-2.042v-5.916h36v40zM29.124 21.124c-4.418 0-8 3.582-8 8s3.582 8 8 8c4.42 0 8-3.582 8-8s-3.58-8-8-8zM47 23.036c0-1.106-0.894-2-2-2-1.104 0-2 0.894-2 2 0 0.732 0.414 1.346 1 1.694v10.578c-0.586 0.348-1 0.96-1 1.694 0 1.104 0.896 2 2 2 1.106 0 2-0.896 2-2 0-0.788-0.464-1.452-1.124-1.778v-10.41c0.66-0.328 1.124-0.992 1.124-1.778zM29 32.5c-1.656 0-3-1.344-3-3 0-1.658 1.344-3 3-3 1.658 0 3 1.342 3 3 0 1.656-1.342 3-3 3z"></path>
</svg>
<svg id="icon-pig1" width="64" height="64" viewBox="0 0 64 64" x="480" y="0">
<path d="M49.348 43.818c0 0 6.66-4.556 6.66-13.542 0-13.376-14.176-18.322-21.798-18.19-7.624 0.134-9.896 2.14-9.896 2.14s-2.594-1.886-5.344-3.466c-2.104-0.82-2.592-0.938-4.054-0.468-1.17 0-0.434 1.948 0.036 2.65 0.466 0.702 2.732 4.58 2.732 4.58s-4.756 4.898-5.108 8.118c0-0.058-2.24-0.018-3.468-0.018s-1.112 1.338-1.112 1.338l0.034 9.428c0 0-0.076 1.338 1.038 1.338 1.112 0 3.476 0.026 3.476 0.026s3.326 4.83 5.434 5.708c0 0.058-1.822 5.006-1.822 5.006s-0.878 1.522 0.702 2.108c1.58 0.584 5.702 2.314 7.458 2.842 1.754 0.526 2.006-0.668 2.006-0.668l1.738-3.754 11.37 0.018 1.738 3.87c0 0 0.334 1.796 2.674 0.802 2.342-0.994 4.898-2.174 6.83-3.168 1.93-0.994 0.66-2.852 0.66-2.852l-1.984-3.846zM18.644 27.528c-1.066 0-1.93-0.866-1.93-1.932s0.864-1.93 1.93-1.93 1.932 0.864 1.932 1.93-0.866 1.932-1.932 1.932zM45.85 21.512c-0.616 0.73-1.018 0.192-1.514 0.046 0 0-2.102-1.95-5.19-2.86-3.198-0.94-6.564-0.486-6.564-0.486-0.496-0.146-1.098-0.162-1.102-0.928 0.026-0.946 1.174-0.954 1.16-0.986 0 0 3.788-0.35 6.958 0.582 3.118 0.916 5.5 2.908 5.5 2.908s1.274 0.878 0.752 1.724z"></path>
</svg>
<svg id="icon-dollar1" width="76" height="64" viewBox="0 0 76 64" x="560" y="0">
<path d="M72.004 46.020l0.114-34.178-62.1 0.038-0.002-3.92h65.984v38.062l-3.996-0.002zM69.99 52.034l-3.994-0.004 0.114-34.178-62.1 0.040-0.002-3.92h65.984v38.062zM64.106 56.040h-64.106v-36.060h64.106v36.060zM60.098 23.862h-56.092v28.172h56.090v-28.172zM54.090 49.030c0 0.354 0.088 0.684 0.202 1h-22.24c5.532 0 10.018-5.38 10.018-12.020s-4.486-12.020-10.018-12.020h22.238c-0.114 0.316-0.202 0.646-0.202 1.002 0 1.66 1.344 3.004 3.004 3.004 0.356 0 0.686-0.088 1.002-0.202v16.43c-0.316-0.112-0.646-0.202-1.002-0.202-1.658 0.002-3.002 1.348-3.002 3.008zM50.082 33.838c-1.66 0-3.004 1.792-3.004 4.006s1.344 4.006 3.004 4.006 3.004-1.792 3.004-4.006-1.344-4.006-3.004-4.006zM36.246 30.788c0.030 0.058 0.054 0.136 0.074 0.232 0.022 0.096 0.036 0.218 0.042 0.364 0.010 0.146 0.014 0.328 0.014 0.546 0 0.242-0.006 0.448-0.018 0.614-0.014 0.168-0.036 0.306-0.062 0.414-0.032 0.11-0.072 0.19-0.124 0.238-0.054 0.050-0.128 0.076-0.22 0.076s-0.236-0.058-0.438-0.174c-0.202-0.118-0.448-0.242-0.738-0.378s-0.63-0.262-1.014-0.374-0.804-0.168-1.264-0.168c-0.36 0-0.672 0.042-0.938 0.13-0.268 0.088-0.492 0.208-0.67 0.362-0.18 0.154-0.314 0.34-0.4 0.554-0.088 0.216-0.132 0.446-0.132 0.686 0 0.36 0.098 0.67 0.294 0.934 0.196 0.262 0.458 0.496 0.79 0.7 0.33 0.206 0.704 0.396 1.12 0.576s0.842 0.37 1.276 0.568c0.434 0.202 0.86 0.428 1.278 0.684 0.418 0.254 0.79 0.558 1.114 0.912 0.326 0.356 0.59 0.772 0.79 1.252s0.3 1.044 0.3 1.696c0 0.85-0.16 1.598-0.476 2.238-0.316 0.642-0.746 1.18-1.29 1.61s-1.176 0.752-1.902 0.968c-0.092 0.028-0.192 0.040-0.286 0.062v2.188h-1.97v-1.93c-0.026 0-0.048 0.006-0.074 0.006-0.558 0-1.078-0.046-1.558-0.136-0.48-0.092-0.904-0.202-1.27-0.328-0.368-0.128-0.674-0.264-0.92-0.404-0.248-0.14-0.424-0.264-0.532-0.372s-0.186-0.264-0.232-0.468-0.070-0.5-0.070-0.884c0-0.258 0.008-0.476 0.026-0.65 0.016-0.176 0.044-0.318 0.082-0.428 0.038-0.108 0.088-0.186 0.15-0.232 0.062-0.044 0.136-0.068 0.218-0.068 0.118 0 0.282 0.068 0.496 0.208 0.212 0.136 0.486 0.29 0.82 0.456s0.732 0.318 1.196 0.456c0.462 0.138 1 0.208 1.608 0.208 0.4 0 0.76-0.048 1.076-0.144 0.318-0.096 0.586-0.232 0.808-0.406 0.22-0.176 0.388-0.394 0.506-0.652 0.118-0.26 0.176-0.548 0.176-0.866 0-0.368-0.102-0.684-0.3-0.946-0.2-0.264-0.46-0.496-0.782-0.702-0.322-0.204-0.686-0.396-1.094-0.574-0.41-0.18-0.83-0.37-1.264-0.57s-0.856-0.428-1.264-0.682c-0.408-0.254-0.774-0.558-1.094-0.914-0.32-0.354-0.582-0.774-0.782-1.256-0.2-0.484-0.3-1.064-0.3-1.74 0-0.776 0.144-1.458 0.432-2.044 0.288-0.588 0.676-1.076 1.164-1.464 0.488-0.386 1.064-0.678 1.726-0.87 0.34-0.098 0.692-0.17 1.054-0.218v-2.070h1.97v2.070c0.078 0.010 0.156 0.006 0.234 0.018 0.384 0.058 0.744 0.136 1.078 0.236 0.332 0.1 0.628 0.21 0.886 0.336 0.26 0.124 0.43 0.226 0.516 0.31 0.078 0.074 0.134 0.144 0.164 0.204zM22.036 38.010c0 6.638 4.484 12.020 10.016 12.020h-22.238c0.112-0.316 0.202-0.646 0.202-1 0-1.66-1.346-3.006-3.004-3.006-0.356 0-0.686 0.090-1.002 0.202v-16.43c0.316 0.114 0.646 0.202 1.002 0.202 1.66 0 3.004-1.344 3.004-3.004 0-0.356-0.090-0.686-0.202-1.002h22.238c-5.532-0.002-10.016 5.38-10.016 12.018zM14.022 33.838c-1.66 0-3.004 1.792-3.004 4.006s1.346 4.006 3.004 4.006c1.66 0 3.004-1.792 3.004-4.006s-1.344-4.006-3.004-4.006z"></path>
</svg>
<svg id="icon-wallet1" width="64" height="64" viewBox="0 0 64 64" x="720" y="0">
<path d="M36 44c-2.208 0-4-1.792-4-4v-4c0-2.21 1.792-4 4-4h24v12h-24zM39 35.166c-1.656 0-3 1.344-3 3 0 1.658 1.344 3 3 3 1.658 0 3-1.342 3-3 0-1.656-1.342-3-3-3zM30 36v4c0 3.312 2.688 6 6 6h20v8c0 3.312-2.686 6-6 6h-42c-3.312 0-6-2.688-6-6v-38c0-3.314 2.688-6 6-6h19.264l-4.698 1.958h-15.564c-1.656 0-3 1.344-3 3 0 1.658 1.344 3 3 3h48.998v12.042h-20c-3.312 0-6 2.686-6 6zM10.002 22h-4v4h2v-2h2v-2zM10.002 28h-4v4h2.082l-0.082-2 2 0.042v-2.042zM10.002 34h-4v4h2.042l-0.042-2h2v-2zM10.002 40h-4v4h2.042l-0.042-2 2 0.042v-2.042zM10.002 46h-4v4h2v-2h2v-2zM10.002 52h-4v4h2.042l-0.042-1.958h2v-2.042zM18.002 15.876l23.5-9.876 4.5 9.876h-28zM45.292 10h4.708c1.752 0 3.312 0.762 4.41 1.958h-8.162l-0.956-1.958z"></path>
</svg>
<svg id="icon-banknote" width="64" height="64" viewBox="0 0 64 64" x="800" y="0">
<path d="M62.83 21.172l-20-20c-0.992-0.992-2.43-1.39-3.792-1.054-0.718 0.176-1.36 0.546-1.868 1.054-0.454 0.454-0.796 1.016-0.992 1.644-0.906 2.938-2.472 5.492-4.79 7.808-3.096 3.094-7.128 5.438-11.394 7.916-4.528 2.624-9.206 5.344-13.040 9.176-3.258 3.262-5.476 6.89-6.776 11.102-0.438 1.422-0.056 2.96 0.992 4.012l20 20c0.992 0.992 2.43 1.39 3.792 1.054 0.718-0.18 1.36-0.546 1.868-1.054 0.454-0.454 0.796-1.016 0.992-1.648 0.908-2.938 2.474-5.492 4.794-7.808 3.094-3.094 7.124-5.434 11.394-7.91 4.524-2.628 9.204-5.348 13.036-9.18 3.258-3.258 5.476-6.89 6.778-11.102 0.436-1.42 0.052-2.964-0.994-4.010zM24 60c-6.624-6.624-13.376-13.378-20-20 5.684-18.402 30.32-17.598 36-36 6.624 6.622 13.378 13.376 20.004 20-5.686 18.398-30.322 17.598-36.004 36zM39.124 29.8c-0.652-0.546-1.308-0.918-1.968-1.102-0.656-0.184-1.312-0.258-1.976-0.21-0.656 0.050-1.328 0.2-2 0.458-0.672 0.262-1.348 0.546-2.028 0.876-1.074-1.234-2.148-2.454-3.222-3.586 0.484-0.438 0.954-0.66 1.406-0.676 0.454-0.020 0.89 0.028 1.304 0.132 0.422 0.106 0.808 0.196 1.164 0.266 0.36 0.070 0.672-0.008 0.946-0.238 0.29-0.25 0.45-0.574 0.472-0.964 0.020-0.394-0.128-0.778-0.458-1.152-0.422-0.484-0.93-0.778-1.54-0.886-0.602-0.106-1.218-0.098-1.86 0.042-0.632 0.144-1.234 0.382-1.804 0.718s-1.028 0.68-1.368 1.016c-0.13-0.124-0.26-0.246-0.39-0.368-0.144-0.132-0.324-0.204-0.54-0.2-0.218 0-0.398 0.094-0.546 0.266-0.144 0.168-0.21 0.364-0.184 0.57 0.020 0.214 0.106 0.378 0.254 0.504 0.13 0.11 0.26 0.218 0.39 0.332-0.512 0.618-0.934 1.3-1.266 2.020-0.336 0.722-0.536 1.438-0.61 2.132-0.078 0.7-0.004 1.34 0.21 1.934 0.214 0.598 0.61 1.106 1.188 1.586 0.942 0.782 2.050 1.114 3.336 1.040 1.282-0.078 2.664-0.46 4.15-1.258 1.18 1.364 2.364 2.718 3.546 3.976-0.5 0.422-0.938 0.664-1.324 0.742-0.386 0.082-0.73 0.074-1.042-0.020-0.312-0.098-0.602-0.238-0.868-0.418-0.266-0.184-0.528-0.34-0.79-0.468-0.258-0.128-0.524-0.2-0.796-0.204s-0.562 0.128-0.882 0.402c-0.328 0.286-0.492 0.618-0.492 0.992 0 0.372 0.172 0.75 0.508 1.132 0.34 0.382 0.782 0.704 1.316 0.958s1.138 0.414 1.802 0.458c0.664 0.046 1.364-0.054 2.102-0.328 0.742-0.27 1.476-0.758 2.2-1.484 0.348 0.34 0.7 0.664 1.050 0.976 0.148 0.128 0.328 0.192 0.546 0.176 0.21-0.008 0.394-0.106 0.54-0.282 0.148-0.18 0.21-0.378 0.188-0.586-0.020-0.21-0.106-0.372-0.25-0.488-0.352-0.282-0.704-0.578-1.054-0.89 0.598-0.734 1.078-1.508 1.434-2.274 0.356-0.77 0.566-1.512 0.636-2.2 0.070-0.692-0.012-1.316-0.238-1.882-0.224-0.574-0.622-1.066-1.192-1.54zM27.942 31.156c-0.566 0.024-1.060-0.164-1.492-0.582-0.184-0.176-0.312-0.39-0.39-0.644-0.082-0.254-0.11-0.532-0.078-0.836 0.028-0.3 0.118-0.614 0.274-0.93 0.148-0.316 0.368-0.632 0.648-0.938 1.014 1.008 2.026 2.114 3.040 3.258-0.768 0.422-1.436 0.648-2.002 0.672zM37.376 35.16c-0.18 0.332-0.386 0.628-0.628 0.886-1.122-1.132-2.242-2.376-3.36-3.652 0.286-0.128 0.586-0.262 0.91-0.398s0.648-0.226 0.972-0.282c0.332-0.050 0.66-0.036 0.988 0.042 0.324 0.082 0.632 0.258 0.918 0.536 0.282 0.282 0.46 0.574 0.532 0.89 0.078 0.32 0.082 0.644 0.028 0.976-0.058 0.334-0.176 0.666-0.36 1.002zM29.434 44.36c0.394-0.318 0.974-0.302 1.336 0.066 0.392 0.39 0.392 1.028 0 1.418-0.032 0.032-0.066 0.054-0.102 0.082l0.004 0.004c-1.266 0.962-2.306 1.828-3.428 2.95-1.014 1.012-1.93 2.078-2.722 3.16l-1.278 1.75c-0.040 0.072-0.088 0.138-0.148 0.2-0.392 0.39-1.030 0.39-1.42 0-0.34-0.34-0.382-0.864-0.132-1.254l-0.004-0.004 1.368-1.868c0.854-1.168 1.836-2.312 2.922-3.398 1.13-1.134 2.35-2.146 3.6-3.106h0.004zM36.756 15.43c1.012-1.012 1.926-2.074 2.72-3.162l1.328-1.82c0.048-0.086 0.102-0.172 0.176-0.246 0.394-0.394 1.032-0.394 1.426 0 0.374 0.376 0.39 0.97 0.050 1.368l0.004 0.004-1.368 1.876c-0.856 1.168-1.836 2.308-2.922 3.394-1.13 1.13-2.348 2.146-3.598 3.106l-0.008-0.004c-0.398 0.366-1.016 0.358-1.398-0.028-0.394-0.394-0.394-1.036 0-1.43 0.070-0.074 0.152-0.126 0.234-0.172 1.176-0.898 2.31-1.84 3.356-2.886z"></path>
</svg>
<svg id="icon-wallet11" width="64" height="64" viewBox="0 0 64 64" x="880" y="0">
<path d="M32 40c0-2.209 1.791-4 4-4s4 1.791 4 4c0 2.209-1.791 4-4 4s-4-1.791-4-4zM58.002 26c-0.002 0-0.002 0 0 0l-0.002-12v-6c0-3.314-2.688-6-6-6h-41c-6.066 0-11 4.936-11 11v40c0 6.064 4.934 11 11 11h36c6.064 0 11-4.936 11-11v-3c0 0 0 0 0.002 0 7.996-6.002 7.996-17.998 0-24zM11 6h41c1.102 0 2 0.896 2 2v12.368c-0.628-0.224-1.296-0.368-2-0.368h-0.002v-10c0-1.106-0.896-2-2-2h-42c-1.104 0-2 0.894-2 2v7.886c-1.234-1.262-1.998-2.982-1.998-4.886 0-3.866 3.132-7 7-7zM49.998 12h-42v-2h42v2zM49.998 14v2h-42v-2h42zM49.998 18v2h-38.998c-1.080 0-2.088-0.264-3-0.7v-1.3h41.998zM54 53c0 3.866-3.134 7-7 7h-36c-3.868 0-7-3.134-7-7v-31.522c1.902 1.574 4.342 2.522 7 2.522h41c1.102 0 2 0.896 2 2v4h-18c-5.524 0-10 4.476-10 10s4.478 10 10 10h18v3zM56.554 46h-20.554c-3.308 0-6-2.692-6-6s2.692-6 6-6h18c1.234-0.016 2.458-0.614 3.204-1.608 0.208-0.28 0.37-0.594 0.5-0.922 0.018-0.044 0.050-0.078 0.066-0.124 1.438 1.886 2.23 4.198 2.23 6.654 0 3.076-1.242 5.93-3.446 8z"></path>
</svg>
<svg id="icon-credit-card" width="60" height="56" viewBox="0 0 60 56" x="0" y="80">
<path d="M55 4c2.75 0 5 2.25 5 5v38c0 2.75-2.25 5-5 5h-50c-2.75 0-5-2.25-5-5v-38c0-2.75 2.25-5 5-5h50zM5 8c-0.531 0-1 0.469-1 1v7h52v-7c0-0.531-0.469-1-1-1h-50zM55 48c0.531 0 1-0.469 1-1v-19h-52v19c0 0.531 0.469 1 1 1h50zM8 44v-4h8v4h-8zM20 44v-4h12v4h-12z"></path>
</svg>
<svg id="icon-cc-mastercard" width="72" height="56" viewBox="0 0 72 56" x="72" y="80">
<path d="M34.969 10.656c-2.594-1.719-5.656-2.656-8.781-2.656-8.781 0-15.906 7.125-15.906 15.875 0 8.781 7.125 15.906 15.906 15.906 3.125 0 6.188-0.938 8.781-2.656-8.375-6.812-8.313-19.656 0-26.469zM36 11.406c-8.063 6.344-8.094 18.656 0 24.969 8.094-6.313 8.063-18.625 0-24.969zM37.031 10.656c8.281 6.812 8.406 19.688 0 26.469 2.594 1.719 5.688 2.656 8.781 2.656 8.781 0 15.906-7.125 15.906-15.906 0-8.75-7.125-15.875-15.906-15.875-3.125 0-6.188 0.938-8.781 2.656zM60.187 33.219h0.219v-0.094h-0.531v0.094h0.219v0.531h0.094v-0.531zM61.094 33.75h0.125v-0.625h-0.156l-0.188 0.406-0.188-0.406h-0.156v0.625h0.094v-0.469l0.188 0.406h0.125l0.156-0.406v0.469zM60.844 47.5v0.063h-0.156v-0.094h0.156v0.031zM60.844 47.781h0.094l-0.125-0.156c0.063 0 0.063-0.031 0.094-0.031 0.031-0.031 0.031-0.063 0.031-0.094s0-0.063-0.031-0.094c-0.031 0-0.063-0.031-0.125-0.031h-0.188v0.406h0.094v-0.156h0.031zM21.406 45.656c0-0.75 0.469-1.344 1.281-1.344 0.75 0 1.25 0.594 1.25 1.344 0 0.781-0.5 1.344-1.25 1.344-0.812 0-1.281-0.594-1.281-1.344zM36.187 44.281c0.594 0 1 0.344 1.094 1h-2.188c0.094-0.594 0.469-1 1.094-1zM47.313 45.656c0-0.75 0.469-1.344 1.25-1.344s1.281 0.594 1.281 1.344c0 0.781-0.5 1.344-1.281 1.344s-1.25-0.594-1.25-1.344zM55.812 45.656c0-0.75 0.5-1.344 1.281-1.344 0.75 0 1.281 0.594 1.281 1.344 0 0.781-0.531 1.344-1.281 1.344-0.781 0-1.281-0.594-1.281-1.344zM60.75 47.906c-0.031 0-0.063 0-0.125-0.031-0.031 0-0.063-0.031-0.094-0.063s-0.063-0.063-0.063-0.094-0.031-0.094-0.031-0.125 0-0.094 0.031-0.125c0-0.063 0.031-0.094 0.063-0.125s0.063-0.031 0.094-0.063 0.094-0.031 0.125-0.031 0.094 0 0.125 0.031 0.094 0.031 0.125 0.063 0.031 0.063 0.063 0.125c0 0.031 0.031 0.063 0.031 0.125 0 0.031-0.031 0.063-0.031 0.125-0.031 0.031-0.031 0.063-0.063 0.094s-0.063 0.063-0.125 0.063c-0.031 0.031-0.063 0.031-0.125 0.031zM18.719 47.781h0.938v-2.656c0-1-0.656-1.656-1.687-1.687-0.531 0-1.094 0.156-1.469 0.75-0.281-0.469-0.75-0.75-1.406-0.75-0.438 0-0.875 0.156-1.219 0.625v-0.5h-0.938v4.219h0.938v-2.344c0-0.75 0.406-1.125 1.031-1.125s0.938 0.406 0.938 1.125v2.344h0.906v-2.344c0-0.75 0.438-1.125 1.031-1.125 0.625 0 0.938 0.406 0.938 1.125v2.344zM23.906 47.781h0.906v-4.219h-0.906v0.5c-0.312-0.375-0.75-0.625-1.344-0.625-1.187 0-2.094 0.938-2.094 2.219s0.906 2.219 2.094 2.219c0.594 0 1.031-0.219 1.344-0.625v0.531zM29.469 46.5c0-0.75-0.563-1.125-1.469-1.25l-0.438-0.063c-0.406-0.063-0.719-0.156-0.719-0.438s0.281-0.469 0.781-0.469c0.563 0 1.063 0.188 1.344 0.344l0.375-0.75c-0.438-0.281-1.031-0.438-1.719-0.438-1.063 0-1.75 0.531-1.75 1.375 0 0.687 0.5 1.094 1.469 1.219l0.406 0.063c0.531 0.094 0.75 0.219 0.75 0.438 0 0.344-0.344 0.531-0.969 0.531s-1.094-0.219-1.406-0.438l-0.406 0.719c0.5 0.344 1.125 0.531 1.813 0.531 1.219 0 1.938-0.563 1.938-1.375zM33.531 47.562l-0.25-0.781c-0.281 0.156-0.563 0.219-0.812 0.219-0.469 0-0.594-0.281-0.594-0.687v-1.906h1.5v-0.844h-1.5v-1.281h-0.938v1.281h-0.875v0.844h0.875v1.906c0 0.969 0.375 1.562 1.469 1.562 0.375 0 0.844-0.125 1.125-0.312zM36.219 43.438c-1.219 0-2.094 0.906-2.094 2.219 0 1.344 0.906 2.219 2.156 2.219 0.625 0 1.219-0.156 1.719-0.594l-0.438-0.687c-0.344 0.281-0.812 0.469-1.219 0.469-0.594 0-1.125-0.281-1.281-1.031h3.156v-0.375c0-1.313-0.812-2.219-2-2.219zM41.188 43.438c-0.531 0-0.875 0.25-1.094 0.625v-0.5h-0.938v4.219h0.938v-2.375c0-0.687 0.281-1.094 0.906-1.094 0.188 0 0.375 0.031 0.563 0.125l0.281-0.875c-0.219-0.094-0.469-0.125-0.656-0.125zM42.125 45.656c0 1.281 0.875 2.219 2.25 2.219 0.625 0 1.063-0.125 1.5-0.5l-0.438-0.75c-0.344 0.25-0.687 0.406-1.094 0.375-0.75 0-1.281-0.531-1.281-1.344s0.531-1.344 1.281-1.344c0.406 0 0.75 0.125 1.094 0.375l0.438-0.75c-0.438-0.344-0.875-0.5-1.5-0.5-1.375 0-2.25 0.938-2.25 2.219zM49.781 47.781h0.938v-4.219h-0.938v0.5c-0.281-0.375-0.719-0.625-1.313-0.625-1.187 0-2.125 0.938-2.125 2.219s0.938 2.219 2.125 2.219c0.594 0 1.031-0.219 1.313-0.625v0.531zM53.938 43.438c-0.531 0-0.875 0.25-1.094 0.625v-0.5h-0.906v4.219h0.906v-2.375c0-0.687 0.312-1.094 0.906-1.094 0.188 0 0.375 0.031 0.563 0.125l0.281-0.875c-0.188-0.094-0.469-0.125-0.656-0.125zM58.313 47.781h0.906v-5.937h-0.906v2.219c-0.281-0.375-0.719-0.625-1.344-0.625-1.156 0-2.094 0.938-2.094 2.219s0.938 2.219 2.094 2.219c0.625 0 1.063-0.219 1.344-0.625v0.531zM60.75 47.156c-0.031 0-0.094 0.031-0.156 0.031-0.063 0.031-0.094 0.063-0.125 0.094-0.063 0.031-0.094 0.094-0.094 0.125-0.031 0.063-0.031 0.125-0.031 0.188 0 0.031 0 0.094 0.031 0.156 0 0.031 0.031 0.094 0.094 0.125 0.031 0.031 0.063 0.063 0.125 0.094s0.125 0.031 0.156 0.031c0.063 0 0.125 0 0.188-0.031 0.031-0.031 0.094-0.063 0.125-0.094s0.063-0.094 0.094-0.125c0.031-0.063 0.031-0.125 0.031-0.156 0-0.063 0-0.125-0.031-0.188-0.031-0.031-0.063-0.094-0.094-0.125s-0.094-0.063-0.125-0.094c-0.063 0-0.125-0.031-0.188-0.031zM72 8v40c0 2.188-1.813 4-4 4h-64c-2.188 0-4-1.813-4-4v-40c0-2.187 1.813-4 4-4h64c2.188 0 4 1.813 4 4z"></path>
</svg>
<svg id="icon-library" width="68" height="64" viewBox="0 0 68 64" x="0" y="152">
<path d="M64 60v-4h-4v-24h4v-4h-12v4h4v24h-12v-24h4v-4h-12v4h4v24h-12v-24h4v-4h-12v4h4v24h-12v-24h4v-4h-12v4h4v24h-4v4h-4v4h68v-4h-4z"></path>
<path d="M32 0h4l32 20v4h-68v-4l32-20z"></path>
</svg>
<svg id="icon-coin-dollar" width="64" height="64" viewBox="0 0 64 64" x="80" y="152">
<path d="M30 4c-16.569 0-30 13.431-30 30s13.431 30 30 30c16.569 0 30-13.431 30-30s-13.431-30-30-30zM30 58c-13.255 0-24-10.745-24-24s10.745-24 24-24c13.255 0 24 10.745 24 24s-10.745 24-24 24zM32 32v-8h8v-4h-8v-4h-4v4h-8v16h8v8h-8v4h8v4h4v-4h8l-0-16h-8zM28 32h-4v-8h4v8zM36 44h-4v-8h4v8z"></path>
</svg>
<svg id="icon-coin-euro" width="64" height="64" viewBox="0 0 64 64" x="160" y="152">
<path d="M30 4c-16.569 0-30 13.431-30 30s13.431 30 30 30c16.569 0 30-13.431 30-30s-13.431-30-30-30zM30 58c-13.255 0-24-10.745-24-24s10.745-24 24-24c13.255 0 24 10.745 24 24s-10.745 24-24 24z"></path>
<path d="M41.926 40.271c-0.954-0.555-2.179-0.232-2.734 0.723-1.078 1.854-3.068 3.006-5.192 3.006h-8c-2.607 0-4.83-1.672-5.656-4h9.656c1.105 0 2-0.895 2-2s-0.895-2-2-2h-10v-4h10c1.105 0 2-0.895 2-2s-0.895-2-2-2h-9.656c0.826-2.328 3.049-4 5.656-4h8c2.124 0 4.114 1.152 5.192 3.006 0.556 0.955 1.78 1.279 2.734 0.723s1.279-1.78 0.723-2.735c-1.792-3.081-5.106-4.994-8.65-4.994h-8c-4.829 0-8.87 3.441-9.799 8h-2.201c-1.104 0-2 0.895-2 2s0.896 2 2 2h2v4h-2c-1.104 0-2 0.895-2 2s0.896 2 2 2h2.201c0.929 4.559 4.97 8 9.799 8h8c3.543 0 6.858-1.914 8.65-4.994 0.556-0.955 0.232-2.179-0.723-2.734z"></path>
</svg>
<svg id="icon-coin-pound" width="64" height="64" viewBox="0 0 64 64" x="240" y="152">
<path d="M30 4c-16.569 0-30 13.431-30 30s13.431 30 30 30c16.569 0 30-13.431 30-30s-13.431-30-30-30zM30 58c-13.255 0-24-10.745-24-24s10.745-24 24-24c13.255 0 24 10.745 24 24s-10.745 24-24 24z"></path>
<path d="M38 44h-14v-8h6c1.105 0 2-0.895 2-2s-0.895-2-2-2h-6v-2c0-3.308 2.692-6 6-6 2.136 0 4.128 1.15 5.199 3.002 0.553 0.956 1.777 1.283 2.733 0.73s1.283-1.776 0.73-2.733c-1.784-3.084-5.102-4.999-8.661-4.999-5.514 0-10 4.486-10 10v2h-2c-1.105 0-2 0.895-2 2s0.895 2 2 2h2v12h18c1.105 0 2-0.895 2-2s-0.895-2-2-2z"></path>
</svg>
<svg id="icon-coin-yen" width="64" height="64" viewBox="0 0 64 64" x="320" y="152">
<path d="M30 4c-16.569 0-30 13.431-30 30s13.431 30 30 30c16.569 0 30-13.431 30-30s-13.431-30-30-30zM30 58c-13.255 0-24-10.745-24-24s10.745-24 24-24c13.255 0 24 10.745 24 24s-10.745 24-24 24z"></path>
<path d="M38 36c1.105 0 2-0.895 2-2s-0.895-2-2-2h-4.263l5.927-8.891c0.613-0.919 0.364-2.161-0.555-2.773s-2.161-0.364-2.773 0.555l-6.336 9.504-6.336-9.504c-0.613-0.919-1.855-1.168-2.773-0.555s-1.167 1.855-0.555 2.773l5.927 8.891h-4.263c-1.105 0-2 0.895-2 2s0.895 2 2 2h6v4h-6c-1.105 0-2 0.895-2 2s0.895 2 2 2h6v6c0 1.105 0.895 2 2 2s2-0.895 2-2v-6h6c1.105 0 2-0.895 2-2s-0.895-2-2-2h-6v-4h6z"></path>
</svg>
<svg id="icon-credit-card1" width="64" height="64" viewBox="0 0 64 64" x="400" y="152">
<path d="M58 8h-52c-3.3 0-6 2.7-6 6v36c0 3.3 2.7 6 6 6h52c3.3 0 6-2.7 6-6v-36c0-3.3-2.7-6-6-6zM6 12h52c1.084 0 2 0.916 2 2v6h-56v-6c0-1.084 0.916-2 2-2zM58 52h-52c-1.084 0-2-0.916-2-2v-18h56v18c0 1.084-0.916 2-2 2zM8 40h4v8h-4zM16 40h4v8h-4zM24 40h4v8h-4z"></path>
</svg>
<svg id="icon-coins-small" width="32" height="32" viewBox="0 0 32 32" x="0" y="220">
<path d="M28.5 23h-12.246c0.359-0.619 0.634-1.29 0.816-2h11.43c0.553 0 1 0.447 1 1 0 0.552-0.447 1-1 1zM28.5 20h-11.236c0.041-0.328 0.069-0.661 0.069-1 0-0.34-0.028-0.672-0.069-1h11.236c0.553 0 1 0.447 1 1 0 0.552-0.447 1-1 1zM28.5 17h-11.43c-0.183-0.71-0.457-1.381-0.816-2h12.246c0.553 0 1 0.447 1 1 0 0.552-0.447 1-1 1zM28.5 14h-12.928c-0.65-0.811-1.453-1.493-2.369-2h15.297c0.553 0 1 0.447 1 1 0 0.552-0.447 1-1 1zM28.5 11h-16c-0.553 0-1-0.448-1-1 0-0.553 0.447-1 1-1h16c0.553 0 1 0.447 1 1 0 0.552-0.447 1-1 1zM28.5 8h-16c-0.553 0-1-0.448-1-1 0-0.553 0.447-1 1-1h16c0.553 0 1 0.447 1 1 0 0.552-0.447 1-1 1zM16.5 19c0 3.866-3.135 7-7 7s-7-3.134-7-7 3.134-7 7-7c3.865 0 7 3.134 7 7zM11.978 19.761c-0.101-0.239-0.231-0.447-0.394-0.624s-0.348-0.329-0.556-0.456c-0.208-0.127-0.42-0.24-0.637-0.341-0.217-0.1-0.429-0.194-0.637-0.284-0.208-0.089-0.395-0.185-0.559-0.287s-0.296-0.219-0.394-0.35-0.147-0.286-0.147-0.466c0-0.12 0.022-0.234 0.065-0.342 0.044-0.107 0.11-0.2 0.2-0.277 0.089-0.076 0.201-0.137 0.334-0.18 0.133-0.044 0.29-0.065 0.469-0.065 0.229 0 0.439 0.027 0.631 0.083 0.191 0.057 0.36 0.118 0.506 0.187 0.146 0.068 0.269 0.131 0.369 0.189s0.173 0.086 0.219 0.086 0.082-0.012 0.109-0.037c0.026-0.025 0.048-0.064 0.062-0.119 0.015-0.054 0.024-0.123 0.031-0.206 0.006-0.084 0.009-0.187 0.009-0.308 0-0.108-0.002-0.199-0.006-0.271s-0.012-0.134-0.021-0.182c-0.011-0.048-0.023-0.087-0.037-0.116-0.016-0.029-0.043-0.064-0.085-0.105s-0.127-0.094-0.256-0.155c-0.129-0.062-0.277-0.118-0.443-0.167-0.167-0.050-0.346-0.089-0.537-0.118-0.039-0.006-0.079-0.004-0.118-0.009v-1.034h-0.984v1.034c-0.181 0.024-0.356 0.060-0.526 0.109-0.331 0.096-0.618 0.24-0.862 0.434s-0.438 0.438-0.581 0.73c-0.144 0.294-0.215 0.634-0.215 1.021 0 0.337 0.050 0.627 0.149 0.868s0.23 0.451 0.391 0.628 0.342 0.328 0.546 0.455c0.204 0.128 0.415 0.241 0.631 0.341s0.427 0.194 0.631 0.284 0.386 0.186 0.546 0.287c0.161 0.103 0.291 0.219 0.391 0.35 0.1 0.132 0.15 0.289 0.15 0.472 0 0.159-0.029 0.303-0.087 0.433s-0.143 0.237-0.253 0.325-0.244 0.155-0.402 0.203c-0.159 0.048-0.337 0.072-0.538 0.072-0.304 0-0.572-0.034-0.803-0.103s-0.43-0.145-0.597-0.229c-0.167-0.083-0.303-0.158-0.409-0.228-0.106-0.068-0.188-0.103-0.247-0.103-0.042 0-0.079 0.012-0.109 0.034-0.032 0.023-0.057 0.062-0.075 0.116-0.019 0.055-0.032 0.125-0.041 0.213s-0.013 0.196-0.013 0.325c0 0.192 0.012 0.339 0.034 0.441 0.023 0.103 0.062 0.181 0.116 0.234s0.142 0.115 0.265 0.186 0.276 0.137 0.459 0.201c0.183 0.063 0.395 0.118 0.634 0.164 0.239 0.045 0.499 0.067 0.778 0.067 0.012 0 0.023-0.002 0.036-0.002v0.963h0.983v-1.092c0.047-0.012 0.097-0.018 0.143-0.031 0.362-0.108 0.679-0.27 0.95-0.484s0.485-0.481 0.644-0.802c0.158-0.321 0.236-0.693 0.236-1.118 0.001-0.323-0.049-0.604-0.148-0.844zM15.572 24h12.928c0.553 0 1 0.447 1 1 0 0.552-0.447 1-1 1h-15.297c0.916-0.507 1.719-1.189 2.369-2z"></path>
</svg>
<svg id="icon-dollar-small" width="38" height="32" viewBox="0 0 38 32" x="48" y="220">
<path d="M36.002 23.010l0.057-17.089-31.050 0.019-0.001-1.96h32.992v19.031l-1.998-0.001zM34.995 26.017l-1.997-0.002 0.057-17.089-31.050 0.020-0.001-1.96h32.992v19.031zM32.053 28.020h-32.053v-18.030h32.053v18.030zM30.049 11.931h-28.046v14.086h28.045v-14.086zM27.045 24.515c0 0.177 0.044 0.342 0.101 0.5h-11.12c2.766 0 5.009-2.69 5.009-6.010s-2.243-6.010-5.009-6.010h11.119c-0.057 0.158-0.101 0.323-0.101 0.501 0 0.83 0.672 1.502 1.502 1.502 0.178 0 0.343-0.044 0.501-0.101v8.215c-0.158-0.056-0.323-0.101-0.501-0.101-0.829 0.001-1.501 0.674-1.501 1.504zM25.041 16.919c-0.83 0-1.502 0.896-1.502 2.003s0.672 2.003 1.502 2.003 1.502-0.896 1.502-2.003-0.672-2.003-1.502-2.003zM18.123 15.394c0.015 0.029 0.027 0.068 0.037 0.116 0.011 0.048 0.018 0.109 0.021 0.182 0.005 0.073 0.007 0.164 0.007 0.273 0 0.121-0.003 0.224-0.009 0.307-0.007 0.084-0.018 0.153-0.031 0.207-0.016 0.055-0.036 0.095-0.062 0.119-0.027 0.025-0.064 0.038-0.11 0.038s-0.118-0.029-0.219-0.087c-0.101-0.059-0.224-0.121-0.369-0.189s-0.315-0.131-0.507-0.187-0.402-0.084-0.632-0.084c-0.18 0-0.336 0.021-0.469 0.065-0.134 0.044-0.246 0.104-0.335 0.181s-0.157 0.17-0.2 0.277c-0.044 0.108-0.066 0.223-0.066 0.343 0 0.18 0.049 0.335 0.147 0.467s0.229 0.248 0.395 0.35c0.165 0.103 0.352 0.198 0.56 0.288s0.421 0.185 0.638 0.284c0.217 0.101 0.43 0.214 0.639 0.342 0.209 0.127 0.395 0.279 0.557 0.456 0.163 0.178 0.295 0.386 0.395 0.626s0.15 0.522 0.15 0.848c0 0.425-0.080 0.799-0.238 1.119-0.158 0.321-0.373 0.59-0.645 0.805s-0.588 0.376-0.951 0.484c-0.046 0.014-0.096 0.020-0.143 0.031v1.094h-0.985v-0.965c-0.013 0-0.024 0.003-0.037 0.003-0.279 0-0.539-0.023-0.779-0.068s-0.452-0.101-0.635-0.164c-0.184-0.064-0.337-0.132-0.46-0.202s-0.212-0.132-0.266-0.186-0.093-0.132-0.116-0.234-0.035-0.25-0.035-0.442c0-0.129 0.004-0.238 0.013-0.325 0.008-0.088 0.022-0.159 0.041-0.214 0.019-0.054 0.044-0.093 0.075-0.116 0.031-0.022 0.068-0.034 0.109-0.034 0.059 0 0.141 0.034 0.248 0.104 0.106 0.068 0.243 0.145 0.41 0.228s0.366 0.159 0.598 0.228c0.231 0.069 0.5 0.104 0.804 0.104 0.2 0 0.38-0.024 0.538-0.072s0.293-0.116 0.404-0.203c0.11-0.088 0.194-0.197 0.253-0.326s0.088-0.274 0.088-0.433c0-0.184-0.051-0.342-0.15-0.473-0.1-0.132-0.23-0.248-0.391-0.351s-0.343-0.198-0.547-0.287c-0.205-0.090-0.415-0.185-0.632-0.285s-0.428-0.214-0.632-0.341c-0.204-0.127-0.387-0.279-0.547-0.457-0.16-0.177-0.291-0.387-0.391-0.628-0.1-0.242-0.15-0.532-0.15-0.87 0-0.388 0.072-0.729 0.216-1.022 0.144-0.294 0.338-0.538 0.582-0.732s0.532-0.339 0.863-0.435c0.17-0.049 0.346-0.085 0.527-0.109v-1.035h0.985v1.035c0.039 0.005 0.078 0.003 0.117 0.009 0.192 0.029 0.372 0.068 0.539 0.118 0.166 0.050 0.314 0.105 0.443 0.168s0.215 0.113 0.258 0.155c0.039 0.037 0.067 0.072 0.082 0.102zM11.018 19.005c0 3.319 2.242 6.010 5.008 6.010h-11.119c0.056-0.158 0.101-0.323 0.101-0.5 0-0.83-0.673-1.503-1.502-1.503-0.178 0-0.343 0.045-0.501 0.101v-8.215c0.158 0.057 0.323 0.101 0.501 0.101 0.83 0 1.502-0.672 1.502-1.502 0-0.178-0.045-0.343-0.101-0.501h11.119c-2.766-0.001-5.008 2.69-5.008 6.009zM7.011 16.919c-0.83 0-1.502 0.896-1.502 2.003s0.673 2.003 1.502 2.003c0.83 0 1.502-0.896 1.502-2.003s-0.672-2.003-1.502-2.003z"></path>
</svg>
<svg id="icon-wallet-small" width="32" height="32" viewBox="0 0 32 32" x="96" y="220">
<path d="M18 22c-1.104 0-2-0.896-2-2v-2c0-1.105 0.896-2 2-2h12v6h-12zM19.5 17.583c-0.828 0-1.5 0.672-1.5 1.5 0 0.829 0.672 1.5 1.5 1.5 0.829 0 1.5-0.671 1.5-1.5 0-0.828-0.671-1.5-1.5-1.5zM15 18v2c0 1.656 1.344 3 3 3h10v4c0 1.656-1.343 3-3 3h-21c-1.656 0-3-1.344-3-3v-19c0-1.657 1.344-3 3-3h9.632l-2.349 0.979h-7.782c-0.828 0-1.5 0.672-1.5 1.5s0.672 1.5 1.5 1.5h24.499v6.021h-10c-1.656 0-3 1.343-3 3zM5.001 11h-2v2h1v-1h1v-1zM5.001 14h-2v2h1.041l-0.041-1 1 0.021v-1.021zM5.001 17h-2v2h1.021l-0.021-1h1v-1zM5.001 20h-2v2h1.021l-0.021-1 1 0.021v-1.021zM5.001 23h-2v2h1v-1h1v-1zM5.001 26h-2v2h1.021l-0.021-0.979h1v-1.021zM9.001 7.938l11.75-4.938 2.25 4.938h-14zM22.646 5h2.354c0.876 0 1.656 0.381 2.205 0.979h-4.081l-0.478-0.979z"></path>
</svg>
<svg id="icon-pig-small" width="32" height="32" viewBox="0 0 32 32" x="144" y="220">
<path d="M24.674 21.909c0 0 3.33-2.278 3.33-6.771 0-6.688-7.088-9.161-10.899-9.095-3.812 0.067-4.948 1.070-4.948 1.070s-1.297-0.943-2.672-1.733c-1.052-0.41-1.296-0.469-2.027-0.234-0.585 0-0.217 0.974 0.018 1.325 0.233 0.351 1.366 2.29 1.366 2.29s-2.378 2.449-2.554 4.059c0-0.029-1.12-0.009-1.734-0.009s-0.556 0.669-0.556 0.669l0.017 4.714c0 0-0.038 0.669 0.519 0.669 0.556 0 1.738 0.013 1.738 0.013s1.663 2.415 2.717 2.854c0 0.029-0.911 2.503-0.911 2.503s-0.439 0.761 0.351 1.054c0.79 0.292 2.851 1.157 3.729 1.421s1.003-0.334 1.003-0.334l0.869-1.877 5.685 0.009 0.869 1.935c0 0 0.167 0.898 1.337 0.401 1.171-0.497 2.449-1.087 3.415-1.584 0.965-0.497 0.33-1.426 0.33-1.426l-0.992-1.923zM9.322 13.764c-0.533 0-0.965-0.433-0.965-0.966s0.432-0.965 0.965-0.965 0.966 0.432 0.966 0.965-0.433 0.966-0.966 0.966zM22.925 10.756c-0.308 0.365-0.509 0.096-0.757 0.023 0 0-1.051-0.975-2.595-1.43-1.599-0.47-3.282-0.243-3.282-0.243-0.248-0.073-0.549-0.081-0.551-0.464 0.013-0.473 0.587-0.477 0.58-0.493 0 0 1.894-0.175 3.479 0.291 1.559 0.458 2.75 1.454 2.75 1.454s0.637 0.439 0.376 0.862z"></path>
</svg>
<svg id="icon-safe-small" width="32" height="32" viewBox="0 0 32 32" x="192" y="220">
<path d="M27 29l-1.999-0.062v2.062h-3v-2h-11.938l-0.062 2h-3v-1.938l-2.001-0.062c-1.104 0-2-0.896-2-2v-24c0-1.104 0.896-2 2-2h22c1.104 0 2 0.896 2 2v24c0 1.104-0.896 2-2 2zM26 4h-20v3.958l-0.979-0.020v3.083h0.979v7.917h-1v3.062h1v4h20v-22zM25 25h-18v-3h1v-3.062h-1v-7.938h1l0.021-3.042h-1.021v-2.958h18v20zM14.562 10.562c-2.209 0-4 1.791-4 4s1.791 4 4 4c2.21 0 4-1.791 4-4s-1.79-4-4-4zM23.5 11.518c0-0.553-0.447-1-1-1-0.552 0-1 0.447-1 1 0 0.366 0.207 0.673 0.5 0.847v5.289c-0.293 0.174-0.5 0.48-0.5 0.847 0 0.552 0.448 1 1 1 0.553 0 1-0.448 1-1 0-0.394-0.232-0.726-0.562-0.889v-5.205c0.33-0.164 0.562-0.496 0.562-0.889zM14.5 16.25c-0.828 0-1.5-0.672-1.5-1.5 0-0.829 0.672-1.5 1.5-1.5 0.829 0 1.5 0.671 1.5 1.5 0 0.828-0.671 1.5-1.5 1.5z"></path>
</svg>
<svg id="icon-pig1-small" width="32" height="32" viewBox="0 0 32 32" x="240" y="220">
<path d="M24.674 21.909c0 0 3.33-2.278 3.33-6.771 0-6.688-7.088-9.161-10.899-9.095-3.812 0.067-4.948 1.070-4.948 1.070s-1.297-0.943-2.672-1.733c-1.052-0.41-1.296-0.469-2.027-0.234-0.585 0-0.217 0.974 0.018 1.325 0.233 0.351 1.366 2.29 1.366 2.29s-2.378 2.449-2.554 4.059c0-0.029-1.12-0.009-1.734-0.009s-0.556 0.669-0.556 0.669l0.017 4.714c0 0-0.038 0.669 0.519 0.669 0.556 0 1.738 0.013 1.738 0.013s1.663 2.415 2.717 2.854c0 0.029-0.911 2.503-0.911 2.503s-0.439 0.761 0.351 1.054c0.79 0.292 2.851 1.157 3.729 1.421s1.003-0.334 1.003-0.334l0.869-1.877 5.685 0.009 0.869 1.935c0 0 0.167 0.898 1.337 0.401 1.171-0.497 2.449-1.087 3.415-1.584 0.965-0.497 0.33-1.426 0.33-1.426l-0.992-1.923zM9.322 13.764c-0.533 0-0.965-0.433-0.965-0.966s0.432-0.965 0.965-0.965 0.966 0.432 0.966 0.965-0.433 0.966-0.966 0.966zM22.925 10.756c-0.308 0.365-0.509 0.096-0.757 0.023 0 0-1.051-0.975-2.595-1.43-1.599-0.47-3.282-0.243-3.282-0.243-0.248-0.073-0.549-0.081-0.551-0.464 0.013-0.473 0.587-0.477 0.58-0.493 0 0 1.894-0.175 3.479 0.291 1.559 0.458 2.75 1.454 2.75 1.454s0.637 0.439 0.376 0.862z"></path>
</svg>
<svg id="icon-dollar1-small" width="38" height="32" viewBox="0 0 38 32" x="288" y="220">
<path d="M36.002 23.010l0.057-17.089-31.050 0.019-0.001-1.96h32.992v19.031l-1.998-0.001zM34.995 26.017l-1.997-0.002 0.057-17.089-31.050 0.020-0.001-1.96h32.992v19.031zM32.053 28.020h-32.053v-18.030h32.053v18.030zM30.049 11.931h-28.046v14.086h28.045v-14.086zM27.045 24.515c0 0.177 0.044 0.342 0.101 0.5h-11.12c2.766 0 5.009-2.69 5.009-6.010s-2.243-6.010-5.009-6.010h11.119c-0.057 0.158-0.101 0.323-0.101 0.501 0 0.83 0.672 1.502 1.502 1.502 0.178 0 0.343-0.044 0.501-0.101v8.215c-0.158-0.056-0.323-0.101-0.501-0.101-0.829 0.001-1.501 0.674-1.501 1.504zM25.041 16.919c-0.83 0-1.502 0.896-1.502 2.003s0.672 2.003 1.502 2.003 1.502-0.896 1.502-2.003-0.672-2.003-1.502-2.003zM18.123 15.394c0.015 0.029 0.027 0.068 0.037 0.116 0.011 0.048 0.018 0.109 0.021 0.182 0.005 0.073 0.007 0.164 0.007 0.273 0 0.121-0.003 0.224-0.009 0.307-0.007 0.084-0.018 0.153-0.031 0.207-0.016 0.055-0.036 0.095-0.062 0.119-0.027 0.025-0.064 0.038-0.11 0.038s-0.118-0.029-0.219-0.087c-0.101-0.059-0.224-0.121-0.369-0.189s-0.315-0.131-0.507-0.187-0.402-0.084-0.632-0.084c-0.18 0-0.336 0.021-0.469 0.065-0.134 0.044-0.246 0.104-0.335 0.181s-0.157 0.17-0.2 0.277c-0.044 0.108-0.066 0.223-0.066 0.343 0 0.18 0.049 0.335 0.147 0.467s0.229 0.248 0.395 0.35c0.165 0.103 0.352 0.198 0.56 0.288s0.421 0.185 0.638 0.284c0.217 0.101 0.43 0.214 0.639 0.342 0.209 0.127 0.395 0.279 0.557 0.456 0.163 0.178 0.295 0.386 0.395 0.626s0.15 0.522 0.15 0.848c0 0.425-0.080 0.799-0.238 1.119-0.158 0.321-0.373 0.59-0.645 0.805s-0.588 0.376-0.951 0.484c-0.046 0.014-0.096 0.020-0.143 0.031v1.094h-0.985v-0.965c-0.013 0-0.024 0.003-0.037 0.003-0.279 0-0.539-0.023-0.779-0.068s-0.452-0.101-0.635-0.164c-0.184-0.064-0.337-0.132-0.46-0.202s-0.212-0.132-0.266-0.186-0.093-0.132-0.116-0.234-0.035-0.25-0.035-0.442c0-0.129 0.004-0.238 0.013-0.325 0.008-0.088 0.022-0.159 0.041-0.214 0.019-0.054 0.044-0.093 0.075-0.116 0.031-0.022 0.068-0.034 0.109-0.034 0.059 0 0.141 0.034 0.248 0.104 0.106 0.068 0.243 0.145 0.41 0.228s0.366 0.159 0.598 0.228c0.231 0.069 0.5 0.104 0.804 0.104 0.2 0 0.38-0.024 0.538-0.072s0.293-0.116 0.404-0.203c0.11-0.088 0.194-0.197 0.253-0.326s0.088-0.274 0.088-0.433c0-0.184-0.051-0.342-0.15-0.473-0.1-0.132-0.23-0.248-0.391-0.351s-0.343-0.198-0.547-0.287c-0.205-0.090-0.415-0.185-0.632-0.285s-0.428-0.214-0.632-0.341c-0.204-0.127-0.387-0.279-0.547-0.457-0.16-0.177-0.291-0.387-0.391-0.628-0.1-0.242-0.15-0.532-0.15-0.87 0-0.388 0.072-0.729 0.216-1.022 0.144-0.294 0.338-0.538 0.582-0.732s0.532-0.339 0.863-0.435c0.17-0.049 0.346-0.085 0.527-0.109v-1.035h0.985v1.035c0.039 0.005 0.078 0.003 0.117 0.009 0.192 0.029 0.372 0.068 0.539 0.118 0.166 0.050 0.314 0.105 0.443 0.168s0.215 0.113 0.258 0.155c0.039 0.037 0.067 0.072 0.082 0.102zM11.018 19.005c0 3.319 2.242 6.010 5.008 6.010h-11.119c0.056-0.158 0.101-0.323 0.101-0.5 0-0.83-0.673-1.503-1.502-1.503-0.178 0-0.343 0.045-0.501 0.101v-8.215c0.158 0.057 0.323 0.101 0.501 0.101 0.83 0 1.502-0.672 1.502-1.502 0-0.178-0.045-0.343-0.101-0.501h11.119c-2.766-0.001-5.008 2.69-5.008 6.009zM7.011 16.919c-0.83 0-1.502 0.896-1.502 2.003s0.673 2.003 1.502 2.003c0.83 0 1.502-0.896 1.502-2.003s-0.672-2.003-1.502-2.003z"></path>
</svg>
<svg id="icon-wallet1-small" width="32" height="32" viewBox="0 0 32 32" x="336" y="220">
<path d="M18 22c-1.104 0-2-0.896-2-2v-2c0-1.105 0.896-2 2-2h12v6h-12zM19.5 17.583c-0.828 0-1.5 0.672-1.5 1.5 0 0.829 0.672 1.5 1.5 1.5 0.829 0 1.5-0.671 1.5-1.5 0-0.828-0.671-1.5-1.5-1.5zM15 18v2c0 1.656 1.344 3 3 3h10v4c0 1.656-1.343 3-3 3h-21c-1.656 0-3-1.344-3-3v-19c0-1.657 1.344-3 3-3h9.632l-2.349 0.979h-7.782c-0.828 0-1.5 0.672-1.5 1.5s0.672 1.5 1.5 1.5h24.499v6.021h-10c-1.656 0-3 1.343-3 3zM5.001 11h-2v2h1v-1h1v-1zM5.001 14h-2v2h1.041l-0.041-1 1 0.021v-1.021zM5.001 17h-2v2h1.021l-0.021-1h1v-1zM5.001 20h-2v2h1.021l-0.021-1 1 0.021v-1.021zM5.001 23h-2v2h1v-1h1v-1zM5.001 26h-2v2h1.021l-0.021-0.979h1v-1.021zM9.001 7.938l11.75-4.938 2.25 4.938h-14zM22.646 5h2.354c0.876 0 1.656 0.381 2.205 0.979h-4.081l-0.478-0.979z"></path>
</svg>
<svg id="icon-banknote-small" width="32" height="32" viewBox="0 0 32 32" x="384" y="220">
<path d="M31.415 10.586l-10-10c-0.496-0.496-1.215-0.695-1.896-0.527-0.359 0.088-0.68 0.273-0.934 0.527-0.227 0.227-0.398 0.508-0.496 0.822-0.453 1.469-1.236 2.746-2.395 3.904-1.548 1.547-3.564 2.719-5.697 3.958-2.264 1.312-4.603 2.672-6.52 4.588-1.629 1.631-2.738 3.445-3.388 5.551-0.219 0.711-0.028 1.48 0.496 2.006l10 10c0.496 0.496 1.215 0.695 1.896 0.527 0.359-0.090 0.68-0.273 0.934-0.527 0.227-0.227 0.398-0.508 0.496-0.824 0.454-1.469 1.237-2.746 2.397-3.904 1.547-1.547 3.562-2.717 5.697-3.955 2.262-1.314 4.602-2.674 6.518-4.59 1.629-1.629 2.738-3.445 3.389-5.551 0.218-0.71 0.026-1.482-0.497-2.005zM12 30c-3.312-3.312-6.688-6.689-10-10 2.842-9.201 15.16-8.799 18-18 3.312 3.311 6.689 6.688 10.002 10-2.843 9.199-15.161 8.799-18.002 18zM19.562 14.9c-0.326-0.273-0.654-0.459-0.984-0.551-0.328-0.092-0.656-0.129-0.988-0.105-0.328 0.025-0.664 0.1-1 0.229-0.336 0.131-0.674 0.273-1.014 0.438-0.537-0.617-1.074-1.227-1.611-1.793 0.242-0.219 0.477-0.33 0.703-0.338 0.227-0.010 0.445 0.014 0.652 0.066 0.211 0.053 0.404 0.098 0.582 0.133 0.18 0.035 0.336-0.004 0.473-0.119 0.145-0.125 0.225-0.287 0.236-0.482 0.010-0.197-0.064-0.389-0.229-0.576-0.211-0.242-0.465-0.389-0.77-0.443-0.301-0.053-0.609-0.049-0.93 0.021-0.316 0.072-0.617 0.191-0.902 0.359s-0.514 0.34-0.684 0.508c-0.065-0.062-0.13-0.123-0.195-0.184-0.072-0.066-0.162-0.102-0.27-0.1-0.109 0-0.199 0.047-0.273 0.133-0.072 0.084-0.105 0.182-0.092 0.285 0.010 0.107 0.053 0.189 0.127 0.252 0.065 0.055 0.13 0.109 0.195 0.166-0.256 0.309-0.467 0.65-0.633 1.010-0.168 0.361-0.268 0.719-0.305 1.066-0.039 0.35-0.002 0.67 0.105 0.967 0.107 0.299 0.305 0.553 0.594 0.793 0.471 0.391 1.025 0.557 1.668 0.52 0.641-0.039 1.332-0.23 2.075-0.629 0.59 0.682 1.182 1.359 1.773 1.988-0.25 0.211-0.469 0.332-0.662 0.371-0.193 0.041-0.365 0.037-0.521-0.010-0.156-0.049-0.301-0.119-0.434-0.209-0.133-0.092-0.264-0.17-0.395-0.234-0.129-0.064-0.262-0.1-0.398-0.102s-0.281 0.064-0.441 0.201c-0.164 0.143-0.246 0.309-0.246 0.496s0.086 0.375 0.254 0.566c0.17 0.191 0.391 0.352 0.658 0.479s0.569 0.207 0.901 0.229c0.332 0.023 0.682-0.027 1.051-0.164 0.371-0.135 0.738-0.379 1.1-0.742 0.174 0.17 0.35 0.332 0.525 0.488 0.074 0.064 0.164 0.096 0.273 0.088 0.105-0.004 0.197-0.053 0.27-0.141 0.074-0.090 0.105-0.189 0.094-0.293-0.010-0.105-0.053-0.186-0.125-0.244-0.176-0.141-0.352-0.289-0.527-0.445 0.299-0.367 0.539-0.754 0.717-1.137 0.178-0.385 0.283-0.756 0.318-1.1 0.035-0.346-0.006-0.658-0.119-0.941-0.112-0.287-0.311-0.533-0.596-0.77zM13.971 15.578c-0.283 0.012-0.53-0.082-0.746-0.291-0.092-0.088-0.156-0.195-0.195-0.322-0.041-0.127-0.055-0.266-0.039-0.418 0.014-0.15 0.059-0.307 0.137-0.465 0.074-0.158 0.184-0.316 0.324-0.469 0.507 0.504 1.013 1.057 1.52 1.629-0.384 0.211-0.718 0.324-1.001 0.336zM18.688 17.58c-0.090 0.166-0.193 0.314-0.314 0.443-0.561-0.566-1.121-1.188-1.68-1.826 0.143-0.064 0.293-0.131 0.455-0.199s0.324-0.113 0.486-0.141c0.166-0.025 0.33-0.018 0.494 0.021 0.162 0.041 0.316 0.129 0.459 0.268 0.141 0.141 0.23 0.287 0.266 0.445 0.039 0.16 0.041 0.322 0.014 0.488-0.029 0.167-0.088 0.333-0.18 0.501zM14.717 22.18c0.197-0.159 0.487-0.151 0.668 0.033 0.196 0.195 0.196 0.514 0 0.709-0.016 0.016-0.033 0.027-0.051 0.041l0.002 0.002c-0.633 0.481-1.153 0.914-1.714 1.475-0.507 0.506-0.965 1.039-1.361 1.58l-0.639 0.875c-0.020 0.036-0.044 0.069-0.074 0.1-0.196 0.195-0.515 0.195-0.71 0-0.17-0.17-0.191-0.432-0.066-0.627l-0.002-0.002 0.684-0.934c0.427-0.584 0.918-1.156 1.461-1.699 0.565-0.567 1.175-1.073 1.8-1.553h0.002zM18.378 7.715c0.506-0.506 0.963-1.037 1.36-1.581l0.664-0.91c0.024-0.043 0.051-0.086 0.088-0.123 0.197-0.197 0.516-0.197 0.713 0 0.187 0.188 0.195 0.485 0.025 0.684l0.002 0.002-0.684 0.938c-0.428 0.584-0.918 1.154-1.461 1.697-0.565 0.565-1.174 1.073-1.799 1.553l-0.004-0.002c-0.199 0.183-0.508 0.179-0.699-0.014-0.197-0.197-0.197-0.518 0-0.715 0.035-0.037 0.076-0.063 0.117-0.086 0.588-0.449 1.155-0.92 1.678-1.443z"></path>
</svg>
<svg id="icon-wallet11-small" width="32" height="32" viewBox="0 0 32 32" x="432" y="220">
<path d="M16 20c0-1.105 0.895-2 2-2s2 0.895 2 2c0 1.105-0.895 2-2 2s-2-0.895-2-2zM29.001 13c-0.001 0-0.001 0 0 0l-0.001-6v-3c0-1.657-1.344-3-3-3h-20.5c-3.033 0-5.5 2.468-5.5 5.5v20c0 3.032 2.467 5.5 5.5 5.5h18c3.032 0 5.5-2.468 5.5-5.5v-1.5c0 0 0 0 0.001 0 3.998-3.001 3.998-8.999 0-12zM5.5 3h20.5c0.551 0 1 0.448 1 1v6.184c-0.314-0.112-0.648-0.184-1-0.184h-0.001v-5c0-0.553-0.448-1-1-1h-21c-0.552 0-1 0.447-1 1v3.943c-0.617-0.631-0.999-1.491-0.999-2.443 0-1.933 1.566-3.5 3.5-3.5zM24.999 6h-21v-1h21v1zM24.999 7v1h-21v-1h21zM24.999 9v1h-19.499c-0.54 0-1.044-0.132-1.5-0.35v-0.65h20.999zM27 26.5c0 1.933-1.567 3.5-3.5 3.5h-18c-1.934 0-3.5-1.567-3.5-3.5v-15.761c0.951 0.787 2.171 1.261 3.5 1.261h20.5c0.551 0 1 0.448 1 1v2h-9c-2.762 0-5 2.238-5 5s2.239 5 5 5h9v1.5zM28.277 23h-10.277c-1.654 0-3-1.346-3-3s1.346-3 3-3h9c0.617-0.008 1.229-0.307 1.602-0.804 0.104-0.14 0.185-0.297 0.25-0.461 0.009-0.022 0.025-0.039 0.033-0.062 0.719 0.943 1.115 2.099 1.115 3.327 0 1.538-0.621 2.965-1.723 4z"></path>
</svg>
<svg id="icon-credit-card-small" width="30" height="28" viewBox="0 0 30 28" x="0" y="268">
<path d="M27.5 2c1.375 0 2.5 1.125 2.5 2.5v19c0 1.375-1.125 2.5-2.5 2.5h-25c-1.375 0-2.5-1.125-2.5-2.5v-19c0-1.375 1.125-2.5 2.5-2.5h25zM2.5 4c-0.266 0-0.5 0.234-0.5 0.5v3.5h26v-3.5c0-0.266-0.234-0.5-0.5-0.5h-25zM27.5 24c0.266 0 0.5-0.234 0.5-0.5v-9.5h-26v9.5c0 0.266 0.234 0.5 0.5 0.5h25zM4 22v-2h4v2h-4zM10 22v-2h6v2h-6z"></path>
</svg>
<svg id="icon-cc-mastercard-small" width="36" height="28" viewBox="0 0 36 28" x="44" y="268">
<path d="M17.484 5.328c-1.297-0.859-2.828-1.328-4.391-1.328-4.391 0-7.953 3.563-7.953 7.938 0 4.391 3.563 7.953 7.953 7.953 1.563 0 3.094-0.469 4.391-1.328-4.188-3.406-4.156-9.828 0-13.234zM18 5.703c-4.031 3.172-4.047 9.328 0 12.484 4.047-3.156 4.031-9.312 0-12.484zM18.516 5.328c4.141 3.406 4.203 9.844 0 13.234 1.297 0.859 2.844 1.328 4.391 1.328 4.391 0 7.953-3.563 7.953-7.953 0-4.375-3.563-7.938-7.953-7.938-1.563 0-3.094 0.469-4.391 1.328zM30.094 16.609h0.109v-0.047h-0.266v0.047h0.109v0.266h0.047v-0.266zM30.547 16.875h0.063v-0.313h-0.078l-0.094 0.203-0.094-0.203h-0.078v0.313h0.047v-0.234l0.094 0.203h0.063l0.078-0.203v0.234zM30.422 23.75v0.031h-0.078v-0.047h0.078v0.016zM30.422 23.891h0.047l-0.063-0.078c0.031 0 0.031-0.016 0.047-0.016 0.016-0.016 0.016-0.031 0.016-0.047s0-0.031-0.016-0.047c-0.016 0-0.031-0.016-0.063-0.016h-0.094v0.203h0.047v-0.078h0.016zM10.703 22.828c0-0.375 0.234-0.672 0.641-0.672 0.375 0 0.625 0.297 0.625 0.672 0 0.391-0.25 0.672-0.625 0.672-0.406 0-0.641-0.297-0.641-0.672zM18.094 22.141c0.297 0 0.5 0.172 0.547 0.5h-1.094c0.047-0.297 0.234-0.5 0.547-0.5zM23.656 22.828c0-0.375 0.234-0.672 0.625-0.672s0.641 0.297 0.641 0.672c0 0.391-0.25 0.672-0.641 0.672s-0.625-0.297-0.625-0.672zM27.906 22.828c0-0.375 0.25-0.672 0.641-0.672 0.375 0 0.641 0.297 0.641 0.672 0 0.391-0.266 0.672-0.641 0.672-0.391 0-0.641-0.297-0.641-0.672zM30.375 23.953c-0.016 0-0.031 0-0.063-0.016-0.016 0-0.031-0.016-0.047-0.031s-0.031-0.031-0.031-0.047-0.016-0.047-0.016-0.063 0-0.047 0.016-0.063c0-0.031 0.016-0.047 0.031-0.063s0.031-0.016 0.047-0.031 0.047-0.016 0.063-0.016 0.047 0 0.063 0.016 0.047 0.016 0.063 0.031 0.016 0.031 0.031 0.063c0 0.016 0.016 0.031 0.016 0.063 0 0.016-0.016 0.031-0.016 0.063-0.016 0.016-0.016 0.031-0.031 0.047s-0.031 0.031-0.063 0.031c-0.016 0.016-0.031 0.016-0.063 0.016zM9.359 23.891h0.469v-1.328c0-0.5-0.328-0.828-0.844-0.844-0.266 0-0.547 0.078-0.734 0.375-0.141-0.234-0.375-0.375-0.703-0.375-0.219 0-0.438 0.078-0.609 0.313v-0.25h-0.469v2.109h0.469v-1.172c0-0.375 0.203-0.562 0.516-0.562s0.469 0.203 0.469 0.562v1.172h0.453v-1.172c0-0.375 0.219-0.562 0.516-0.562 0.313 0 0.469 0.203 0.469 0.562v1.172zM11.953 23.891h0.453v-2.109h-0.453v0.25c-0.156-0.187-0.375-0.313-0.672-0.313-0.594 0-1.047 0.469-1.047 1.109s0.453 1.109 1.047 1.109c0.297 0 0.516-0.109 0.672-0.313v0.266zM14.734 23.25c0-0.375-0.281-0.562-0.734-0.625l-0.219-0.031c-0.203-0.031-0.359-0.078-0.359-0.219s0.141-0.234 0.391-0.234c0.281 0 0.531 0.094 0.672 0.172l0.187-0.375c-0.219-0.141-0.516-0.219-0.859-0.219-0.531 0-0.875 0.266-0.875 0.688 0 0.344 0.25 0.547 0.734 0.609l0.203 0.031c0.266 0.047 0.375 0.109 0.375 0.219 0 0.172-0.172 0.266-0.484 0.266s-0.547-0.109-0.703-0.219l-0.203 0.359c0.25 0.172 0.562 0.266 0.906 0.266 0.609 0 0.969-0.281 0.969-0.688zM16.766 23.781l-0.125-0.391c-0.141 0.078-0.281 0.109-0.406 0.109-0.234 0-0.297-0.141-0.297-0.344v-0.953h0.75v-0.422h-0.75v-0.641h-0.469v0.641h-0.438v0.422h0.438v0.953c0 0.484 0.187 0.781 0.734 0.781 0.187 0 0.422-0.063 0.562-0.156zM18.109 21.719c-0.609 0-1.047 0.453-1.047 1.109 0 0.672 0.453 1.109 1.078 1.109 0.313 0 0.609-0.078 0.859-0.297l-0.219-0.344c-0.172 0.141-0.406 0.234-0.609 0.234-0.297 0-0.562-0.141-0.641-0.516h1.578v-0.187c0-0.656-0.406-1.109-1-1.109zM20.594 21.719c-0.266 0-0.438 0.125-0.547 0.313v-0.25h-0.469v2.109h0.469v-1.188c0-0.344 0.141-0.547 0.453-0.547 0.094 0 0.187 0.016 0.281 0.063l0.141-0.438c-0.109-0.047-0.234-0.063-0.328-0.063zM21.063 22.828c0 0.641 0.438 1.109 1.125 1.109 0.313 0 0.531-0.063 0.75-0.25l-0.219-0.375c-0.172 0.125-0.344 0.203-0.547 0.187-0.375 0-0.641-0.266-0.641-0.672s0.266-0.672 0.641-0.672c0.203 0 0.375 0.063 0.547 0.187l0.219-0.375c-0.219-0.172-0.438-0.25-0.75-0.25-0.688 0-1.125 0.469-1.125 1.109zM24.891 23.891h0.469v-2.109h-0.469v0.25c-0.141-0.187-0.359-0.313-0.656-0.313-0.594 0-1.062 0.469-1.062 1.109s0.469 1.109 1.062 1.109c0.297 0 0.516-0.109 0.656-0.313v0.266zM26.969 21.719c-0.266 0-0.438 0.125-0.547 0.313v-0.25h-0.453v2.109h0.453v-1.188c0-0.344 0.156-0.547 0.453-0.547 0.094 0 0.187 0.016 0.281 0.063l0.141-0.438c-0.094-0.047-0.234-0.063-0.328-0.063zM29.156 23.891h0.453v-2.969h-0.453v1.109c-0.141-0.187-0.359-0.313-0.672-0.313-0.578 0-1.047 0.469-1.047 1.109s0.469 1.109 1.047 1.109c0.313 0 0.531-0.109 0.672-0.313v0.266zM30.375 23.578c-0.016 0-0.047 0.016-0.078 0.016-0.031 0.016-0.047 0.031-0.063 0.047-0.031 0.016-0.047 0.047-0.047 0.063-0.016 0.031-0.016 0.063-0.016 0.094 0 0.016 0 0.047 0.016 0.078 0 0.016 0.016 0.047 0.047 0.063 0.016 0.016 0.031 0.031 0.063 0.047s0.063 0.016 0.078 0.016c0.031 0 0.063 0 0.094-0.016 0.016-0.016 0.047-0.031 0.063-0.047s0.031-0.047 0.047-0.063c0.016-0.031 0.016-0.063 0.016-0.078 0-0.031 0-0.063-0.016-0.094-0.016-0.016-0.031-0.047-0.047-0.063s-0.047-0.031-0.063-0.047c-0.031 0-0.063-0.016-0.094-0.016zM36 4v20c0 1.094-0.906 2-2 2h-32c-1.094 0-2-0.906-2-2v-20c0-1.094 0.906-2 2-2h32c1.094 0 2 0.906 2 2z"></path>
</svg>
<svg id="icon-library-small" width="34" height="32" viewBox="0 0 34 32" x="0" y="312">
<path d="M32 30v-2h-2v-12h2v-2h-6v2h2v12h-6v-12h2v-2h-6v2h2v12h-6v-12h2v-2h-6v2h2v12h-6v-12h2v-2h-6v2h2v12h-2v2h-2v2h34v-2h-2z"></path>
<path d="M16 0h2l16 10v2h-34v-2l16-10z"></path>
</svg>
<svg id="icon-coin-dollar-small" width="32" height="32" viewBox="0 0 32 32" x="48" y="312">
<path d="M15 2c-8.284 0-15 6.716-15 15s6.716 15 15 15c8.284 0 15-6.716 15-15s-6.716-15-15-15zM15 29c-6.627 0-12-5.373-12-12s5.373-12 12-12c6.627 0 12 5.373 12 12s-5.373 12-12 12zM16 16v-4h4v-2h-4v-2h-2v2h-4v8h4v4h-4v2h4v2h2v-2h4l-0-8h-4zM14 16h-2v-4h2v4zM18 22h-2v-4h2v4z"></path>
</svg>
<svg id="icon-coin-euro-small" width="32" height="32" viewBox="0 0 32 32" x="96" y="312">
<path d="M15 2c-8.284 0-15 6.716-15 15s6.716 15 15 15c8.284 0 15-6.716 15-15s-6.716-15-15-15zM15 29c-6.627 0-12-5.373-12-12s5.373-12 12-12c6.627 0 12 5.373 12 12s-5.373 12-12 12z"></path>
<path d="M20.963 20.136c-0.477-0.278-1.089-0.116-1.367 0.362-0.539 0.927-1.534 1.503-2.596 1.503h-4c-1.304 0-2.415-0.836-2.828-2h4.828c0.552 0 1-0.448 1-1s-0.448-1-1-1h-5v-2h5c0.552 0 1-0.448 1-1s-0.448-1-1-1h-4.828c0.413-1.164 1.524-2 2.828-2h4c1.062 0 2.057 0.576 2.596 1.503 0.278 0.477 0.89 0.639 1.367 0.361s0.639-0.89 0.361-1.367c-0.896-1.54-2.553-2.497-4.325-2.497h-4c-2.415 0-4.435 1.72-4.899 4h-1.101c-0.552 0-1 0.448-1 1s0.448 1 1 1h1v2h-1c-0.552 0-1 0.448-1 1s0.448 1 1 1h1.101c0.465 2.279 2.485 4 4.899 4h4c1.772 0 3.429-0.957 4.325-2.497 0.278-0.477 0.116-1.090-0.362-1.367z"></path>
</svg>
<svg id="icon-coin-pound-small" width="32" height="32" viewBox="0 0 32 32" x="144" y="312">
<path d="M15 2c-8.284 0-15 6.716-15 15s6.716 15 15 15c8.284 0 15-6.716 15-15s-6.716-15-15-15zM15 29c-6.627 0-12-5.373-12-12s5.373-12 12-12c6.627 0 12 5.373 12 12s-5.373 12-12 12z"></path>
<path d="M19 22h-7v-4h3c0.552 0 1-0.448 1-1s-0.448-1-1-1h-3v-1c0-1.654 1.346-3 3-3 1.068 0 2.064 0.575 2.599 1.501 0.277 0.478 0.888 0.641 1.366 0.365s0.641-0.888 0.365-1.366c-0.892-1.542-2.551-2.499-4.331-2.499-2.757 0-5 2.243-5 5v1h-1c-0.552 0-1 0.448-1 1s0.448 1 1 1h1v6h9c0.552 0 1-0.448 1-1s-0.448-1-1-1z"></path>
</svg>
<svg id="icon-coin-yen-small" width="32" height="32" viewBox="0 0 32 32" x="192" y="312">
<path d="M15 2c-8.284 0-15 6.716-15 15s6.716 15 15 15c8.284 0 15-6.716 15-15s-6.716-15-15-15zM15 29c-6.627 0-12-5.373-12-12s5.373-12 12-12c6.627 0 12 5.373 12 12s-5.373 12-12 12z"></path>
<path d="M19 18c0.552 0 1-0.448 1-1s-0.448-1-1-1h-2.131l2.963-4.445c0.306-0.46 0.182-1.080-0.277-1.387s-1.080-0.182-1.387 0.277l-3.168 4.752-3.168-4.752c-0.306-0.46-0.927-0.584-1.387-0.277s-0.584 0.927-0.277 1.387l2.964 4.445h-2.132c-0.552 0-1 0.448-1 1s0.448 1 1 1h3v2h-3c-0.552 0-1 0.448-1 1s0.448 1 1 1h3v3c0 0.552 0.448 1 1 1s1-0.448 1-1v-3h3c0.552 0 1-0.448 1-1s-0.448-1-1-1h-3v-2h3z"></path>
</svg>
<svg id="icon-credit-card1-small" width="32" height="32" viewBox="0 0 32 32" x="240" y="312">
<path d="M29 4h-26c-1.65 0-3 1.35-3 3v18c0 1.65 1.35 3 3 3h26c1.65 0 3-1.35 3-3v-18c0-1.65-1.35-3-3-3zM3 6h26c0.542 0 1 0.458 1 1v3h-28v-3c0-0.542 0.458-1 1-1zM29 26h-26c-0.542 0-1-0.458-1-1v-9h28v9c0 0.542-0.458 1-1 1zM4 20h2v4h-2zM8 20h2v4h-2zM12 20h2v4h-2z"></path>
</svg>
<svg id="icon-coins-tiny" width="24" height="24" viewBox="0 0 24 24" x="0" y="360">
<path d="M21.375 17.25h-9.185c0.269-0.464 0.476-0.968 0.612-1.5h8.572c0.415 0 0.75 0.335 0.75 0.75s-0.335 0.75-0.75 0.75zM21.375 15h-8.427c0.031-0.246 0.052-0.496 0.052-0.75s-0.021-0.504-0.052-0.75h8.427c0.415 0 0.75 0.335 0.75 0.75s-0.335 0.75-0.75 0.75zM21.375 12.75h-8.572c-0.137-0.533-0.343-1.036-0.612-1.5h9.184c0.415 0 0.75 0.335 0.75 0.75s-0.335 0.75-0.75 0.75zM21.375 10.5h-9.696c-0.487-0.608-1.090-1.12-1.777-1.5h11.473c0.415 0 0.75 0.335 0.75 0.75s-0.335 0.75-0.75 0.75zM21.375 8.25h-12c-0.415 0-0.75-0.336-0.75-0.75s0.335-0.75 0.75-0.75h12c0.415 0 0.75 0.335 0.75 0.75s-0.335 0.75-0.75 0.75zM21.375 6h-12c-0.415 0-0.75-0.336-0.75-0.75s0.335-0.75 0.75-0.75h12c0.415 0 0.75 0.335 0.75 0.75s-0.335 0.75-0.75 0.75zM12.375 14.25c0 2.899-2.351 5.25-5.25 5.25s-5.25-2.351-5.25-5.25 2.351-5.25 5.25-5.25c2.899 0 5.25 2.351 5.25 5.25zM8.983 14.821c-0.076-0.179-0.173-0.335-0.296-0.468s-0.261-0.247-0.417-0.342c-0.156-0.095-0.315-0.18-0.478-0.256s-0.322-0.145-0.478-0.213c-0.156-0.067-0.296-0.139-0.419-0.215s-0.222-0.164-0.295-0.262-0.11-0.215-0.11-0.35c0-0.090 0.016-0.175 0.049-0.256s0.082-0.15 0.15-0.208c0.067-0.057 0.151-0.103 0.25-0.135s0.217-0.049 0.352-0.049c0.172 0 0.329 0.020 0.473 0.062s0.27 0.088 0.38 0.14c0.11 0.051 0.202 0.098 0.277 0.142s0.13 0.064 0.164 0.064 0.062-0.009 0.082-0.028c0.020-0.019 0.036-0.048 0.046-0.089s0.018-0.092 0.023-0.155c0.005-0.063 0.007-0.14 0.007-0.231 0-0.081-0.002-0.149-0.005-0.203s-0.009-0.101-0.016-0.136c-0.008-0.036-0.017-0.065-0.028-0.087-0.012-0.022-0.032-0.048-0.064-0.079s-0.095-0.070-0.192-0.116c-0.097-0.046-0.208-0.088-0.332-0.125s-0.259-0.067-0.403-0.088c-0.029-0.005-0.059-0.003-0.089-0.007v-0.776h-0.738v0.776c-0.136 0.018-0.267 0.045-0.394 0.082-0.248 0.072-0.464 0.18-0.647 0.325s-0.328 0.329-0.436 0.548c-0.108 0.22-0.161 0.476-0.161 0.766 0 0.253 0.038 0.47 0.112 0.651s0.173 0.338 0.293 0.471 0.256 0.246 0.41 0.341c0.153 0.096 0.311 0.181 0.473 0.256s0.32 0.145 0.473 0.213 0.289 0.14 0.409 0.215c0.121 0.077 0.218 0.164 0.293 0.262s0.112 0.217 0.112 0.354c0 0.119-0.022 0.227-0.065 0.325s-0.107 0.178-0.19 0.244-0.183 0.116-0.301 0.152c-0.119 0.036-0.253 0.054-0.404 0.054-0.228 0-0.429-0.025-0.602-0.077s-0.322-0.109-0.448-0.172c-0.125-0.062-0.227-0.119-0.307-0.171-0.079-0.051-0.141-0.077-0.185-0.077-0.031 0-0.059 0.009-0.082 0.025-0.024 0.017-0.043 0.047-0.056 0.087s-0.024 0.094-0.031 0.16-0.010 0.147-0.010 0.244c0 0.144 0.009 0.254 0.025 0.331s0.046 0.136 0.087 0.175c0.041 0.041 0.107 0.086 0.199 0.14s0.207 0.103 0.344 0.151c0.137 0.047 0.296 0.088 0.476 0.123s0.374 0.050 0.584 0.050c0.009 0 0.017-0.002 0.027-0.002v0.722h0.737v-0.819c0.035-0.009 0.073-0.014 0.107-0.023 0.271-0.081 0.509-0.203 0.712-0.363s0.364-0.361 0.483-0.601c0.118-0.241 0.177-0.52 0.177-0.838 0.001-0.242-0.037-0.453-0.111-0.633zM11.679 18h9.696c0.415 0 0.75 0.335 0.75 0.75s-0.335 0.75-0.75 0.75h-11.473c0.687-0.38 1.289-0.892 1.777-1.5z"></path>
</svg>
<svg id="icon-dollar-tiny" width="29" height="24" viewBox="0 0 29 24" x="40" y="360">
<path d="M27.002 17.258l0.043-12.817-23.288 0.014-0.001-1.47h24.744v14.273l-1.498-0.001zM26.246 19.513l-1.498-0.002 0.043-12.817-23.287 0.015-0.001-1.47h24.744v14.273zM24.040 21.015h-24.040v-13.523h24.040v13.523zM22.537 8.948h-21.034v10.565h21.034v-10.565zM20.284 18.386c0 0.133 0.033 0.256 0.076 0.375h-8.34c2.074 0 3.757-2.018 3.757-4.507s-1.682-4.508-3.757-4.508h8.339c-0.043 0.118-0.076 0.242-0.076 0.376 0 0.623 0.504 1.127 1.127 1.127 0.134 0 0.257-0.033 0.376-0.076v6.161c-0.119-0.042-0.242-0.076-0.376-0.076-0.622 0.001-1.126 0.505-1.126 1.128zM18.781 12.689c-0.622 0-1.127 0.672-1.127 1.502s0.504 1.502 1.127 1.502 1.126-0.672 1.126-1.502-0.504-1.502-1.126-1.502zM13.592 11.546c0.011 0.022 0.020 0.051 0.028 0.087s0.014 0.082 0.016 0.136c0.004 0.055 0.005 0.123 0.005 0.205 0 0.091-0.002 0.168-0.007 0.23s-0.014 0.115-0.023 0.155c-0.012 0.041-0.027 0.071-0.046 0.089s-0.048 0.029-0.082 0.029-0.088-0.022-0.164-0.065c-0.076-0.044-0.168-0.091-0.277-0.142s-0.236-0.098-0.38-0.14-0.302-0.063-0.474-0.063c-0.135 0-0.252 0.016-0.352 0.049s-0.184 0.078-0.251 0.136c-0.067 0.058-0.118 0.128-0.15 0.208s-0.050 0.167-0.050 0.257c0 0.135 0.037 0.251 0.11 0.35s0.172 0.186 0.296 0.262c0.124 0.077 0.264 0.149 0.42 0.216s0.316 0.139 0.479 0.213c0.163 0.076 0.322 0.16 0.479 0.256s0.296 0.209 0.418 0.342c0.122 0.133 0.221 0.289 0.296 0.47s0.112 0.391 0.112 0.636c0 0.319-0.060 0.599-0.178 0.839s-0.28 0.442-0.484 0.604-0.441 0.282-0.713 0.363c-0.035 0.011-0.072 0.015-0.107 0.023v0.821h-0.739v-0.724c-0.010 0-0.018 0.002-0.028 0.002-0.209 0-0.404-0.017-0.584-0.051s-0.339-0.076-0.476-0.123c-0.138-0.048-0.253-0.099-0.345-0.152s-0.159-0.099-0.2-0.139-0.070-0.099-0.087-0.176-0.026-0.188-0.026-0.331c0-0.097 0.003-0.178 0.010-0.244s0.017-0.119 0.031-0.16c0.014-0.040 0.033-0.070 0.056-0.087s0.051-0.025 0.082-0.025c0.044 0 0.106 0.025 0.186 0.078 0.079 0.051 0.182 0.109 0.308 0.171s0.274 0.119 0.448 0.171c0.173 0.052 0.375 0.078 0.603 0.078 0.15 0 0.285-0.018 0.403-0.054s0.22-0.087 0.303-0.152c0.082-0.066 0.146-0.148 0.19-0.244s0.066-0.206 0.066-0.325c0-0.138-0.038-0.256-0.113-0.355s-0.172-0.186-0.293-0.263c-0.121-0.077-0.257-0.149-0.41-0.215s-0.311-0.139-0.474-0.214-0.321-0.16-0.474-0.256c-0.153-0.095-0.29-0.209-0.41-0.343s-0.218-0.29-0.293-0.471c-0.075-0.181-0.113-0.399-0.113-0.652 0-0.291 0.054-0.547 0.162-0.766s0.253-0.403 0.437-0.549c0.183-0.145 0.399-0.254 0.647-0.326 0.127-0.037 0.26-0.064 0.395-0.082v-0.776h0.739v0.776c0.029 0.004 0.059 0.002 0.088 0.007 0.144 0.022 0.279 0.051 0.404 0.088s0.236 0.079 0.332 0.126c0.098 0.046 0.161 0.085 0.194 0.116 0.029 0.028 0.050 0.054 0.062 0.076zM8.264 14.254c0 2.489 1.681 4.508 3.756 4.508h-8.339c0.042-0.119 0.076-0.242 0.076-0.375 0-0.622-0.505-1.127-1.127-1.127-0.133 0-0.257 0.034-0.376 0.076v-6.161c0.119 0.043 0.242 0.076 0.376 0.076 0.623 0 1.127-0.504 1.127-1.127 0-0.134-0.034-0.257-0.076-0.376h8.339c-2.075-0.001-3.756 2.018-3.756 4.507zM5.258 12.689c-0.623 0-1.127 0.672-1.127 1.502s0.505 1.502 1.127 1.502c0.622 0 1.127-0.672 1.127-1.502s-0.504-1.502-1.127-1.502z"></path>
</svg>
<svg id="icon-wallet-tiny" width="24" height="24" viewBox="0 0 24 24" x="80" y="360">
<path d="M13.5 16.5c-0.828 0-1.5-0.672-1.5-1.5v-1.5c0-0.829 0.672-1.5 1.5-1.5h9v4.5h-9zM14.625 13.187c-0.621 0-1.125 0.504-1.125 1.125s0.504 1.125 1.125 1.125c0.622 0 1.125-0.503 1.125-1.125s-0.503-1.125-1.125-1.125zM11.25 13.5v1.5c0 1.242 1.008 2.25 2.25 2.25h7.5v3c0 1.242-1.007 2.25-2.25 2.25h-15.75c-1.242 0-2.25-1.008-2.25-2.25v-14.25c0-1.243 1.008-2.25 2.25-2.25h7.224l-1.762 0.734h-5.836c-0.621 0-1.125 0.504-1.125 1.125s0.504 1.125 1.125 1.125h18.374v4.516h-7.5c-1.242 0-2.25 1.007-2.25 2.25zM3.751 8.25h-1.5v1.5h0.75v-0.75h0.75v-0.75zM3.751 10.5h-1.5v1.5h0.781l-0.031-0.75 0.75 0.016v-0.766zM3.751 12.75h-1.5v1.5h0.766l-0.016-0.75h0.75v-0.75zM3.751 15h-1.5v1.5h0.766l-0.016-0.75 0.75 0.016v-0.766zM3.751 17.25h-1.5v1.5h0.75v-0.75h0.75v-0.75zM3.751 19.5h-1.5v1.5h0.766l-0.016-0.734h0.75v-0.766zM6.751 5.954l8.812-3.704 1.687 3.704h-10.5zM16.985 3.75h1.765c0.657 0 1.242 0.286 1.654 0.734h-3.061l-0.359-0.734z"></path>
</svg>
<svg id="icon-pig-tiny" width="24" height="24" viewBox="0 0 24 24" x="120" y="360">
<path d="M18.505 16.432c0 0 2.498-1.709 2.498-5.078 0-5.016-5.316-6.871-8.174-6.821s-3.711 0.803-3.711 0.803-0.973-0.707-2.004-1.3c-0.789-0.308-0.972-0.352-1.52-0.176-0.439 0-0.163 0.731 0.013 0.994 0.175 0.263 1.024 1.718 1.024 1.718s-1.784 1.837-1.916 3.044c0-0.022-0.84-0.007-1.3-0.007s-0.417 0.502-0.417 0.502l0.013 3.535c0 0-0.028 0.502 0.389 0.502s1.303 0.010 1.303 0.010 1.247 1.811 2.038 2.141c0 0.022-0.683 1.877-0.683 1.877s-0.329 0.571 0.263 0.791c0.592 0.219 2.138 0.868 2.797 1.066s0.752-0.25 0.752-0.25l0.652-1.408 4.264 0.007 0.652 1.451c0 0 0.125 0.674 1.003 0.301s1.837-0.815 2.561-1.188c0.724-0.373 0.247-1.069 0.247-1.069l-0.744-1.442zM6.991 10.323c-0.4 0-0.724-0.325-0.724-0.725s0.324-0.724 0.724-0.724 0.724 0.324 0.724 0.724-0.325 0.725-0.724 0.725zM17.194 8.067c-0.231 0.274-0.382 0.072-0.568 0.017 0 0-0.788-0.731-1.946-1.073-1.199-0.353-2.461-0.182-2.461-0.182-0.186-0.055-0.412-0.061-0.413-0.348 0.010-0.355 0.44-0.358 0.435-0.37 0 0 1.42-0.131 2.609 0.218 1.169 0.343 2.062 1.091 2.062 1.091s0.478 0.329 0.282 0.646z"></path>
</svg>
<svg id="icon-safe-tiny" width="24" height="24" viewBox="0 0 24 24" x="160" y="360">
<path d="M20.25 21.75l-1.499-0.047v1.547h-2.25v-1.5h-8.954l-0.046 1.5h-2.25v-1.453l-1.501-0.047c-0.828 0-1.5-0.672-1.5-1.5v-18c0-0.828 0.672-1.5 1.5-1.5h16.5c0.828 0 1.5 0.672 1.5 1.5v18c0 0.828-0.672 1.5-1.5 1.5zM19.5 3h-15v2.969l-0.734-0.015v2.312h0.734v5.938h-0.75v2.297h0.75v3h15v-16.5zM18.75 18.75h-13.5v-2.25h0.75v-2.297h-0.75v-5.953h0.75l0.016-2.281h-0.766v-2.219h13.5v15zM10.921 7.921c-1.657 0-3 1.343-3 3s1.343 3 3 3c1.657 0 3-1.343 3-3s-1.342-3-3-3zM17.625 8.639c0-0.415-0.335-0.75-0.75-0.75s-0.75 0.335-0.75 0.75c0 0.274 0.155 0.505 0.375 0.635v3.967c-0.22 0.13-0.375 0.36-0.375 0.635 0 0.414 0.336 0.75 0.75 0.75s0.75-0.336 0.75-0.75c0-0.295-0.174-0.544-0.422-0.667v-3.904c0.247-0.123 0.422-0.372 0.422-0.667zM10.875 12.188c-0.621 0-1.125-0.504-1.125-1.125s0.504-1.125 1.125-1.125c0.622 0 1.125 0.503 1.125 1.125s-0.503 1.125-1.125 1.125z"></path>
</svg>
<svg id="icon-pig1-tiny" width="24" height="24" viewBox="0 0 24 24" x="200" y="360">
<path d="M18.505 16.432c0 0 2.498-1.709 2.498-5.078 0-5.016-5.316-6.871-8.174-6.821s-3.711 0.803-3.711 0.803-0.973-0.707-2.004-1.3c-0.789-0.308-0.972-0.352-1.52-0.176-0.439 0-0.163 0.731 0.013 0.994 0.175 0.263 1.024 1.718 1.024 1.718s-1.784 1.837-1.916 3.044c0-0.022-0.84-0.007-1.3-0.007s-0.417 0.502-0.417 0.502l0.013 3.535c0 0-0.028 0.502 0.389 0.502s1.303 0.010 1.303 0.010 1.247 1.811 2.038 2.141c0 0.022-0.683 1.877-0.683 1.877s-0.329 0.571 0.263 0.791c0.592 0.219 2.138 0.868 2.797 1.066s0.752-0.25 0.752-0.25l0.652-1.408 4.264 0.007 0.652 1.451c0 0 0.125 0.674 1.003 0.301s1.837-0.815 2.561-1.188c0.724-0.373 0.247-1.069 0.247-1.069l-0.744-1.442zM6.991 10.323c-0.4 0-0.724-0.325-0.724-0.725s0.324-0.724 0.724-0.724 0.724 0.324 0.724 0.724-0.325 0.725-0.724 0.725zM17.194 8.067c-0.231 0.274-0.382 0.072-0.568 0.017 0 0-0.788-0.731-1.946-1.073-1.199-0.353-2.461-0.182-2.461-0.182-0.186-0.055-0.412-0.061-0.413-0.348 0.010-0.355 0.44-0.358 0.435-0.37 0 0 1.42-0.131 2.609 0.218 1.169 0.343 2.062 1.091 2.062 1.091s0.478 0.329 0.282 0.646z"></path>
</svg>
<svg id="icon-dollar1-tiny" width="29" height="24" viewBox="0 0 29 24" x="240" y="360">
<path d="M27.002 17.258l0.043-12.817-23.288 0.014-0.001-1.47h24.744v14.273l-1.498-0.001zM26.246 19.513l-1.498-0.002 0.043-12.817-23.287 0.015-0.001-1.47h24.744v14.273zM24.040 21.015h-24.040v-13.523h24.040v13.523zM22.537 8.948h-21.034v10.565h21.034v-10.565zM20.284 18.386c0 0.133 0.033 0.256 0.076 0.375h-8.34c2.074 0 3.757-2.018 3.757-4.507s-1.682-4.508-3.757-4.508h8.339c-0.043 0.118-0.076 0.242-0.076 0.376 0 0.623 0.504 1.127 1.127 1.127 0.134 0 0.257-0.033 0.376-0.076v6.161c-0.119-0.042-0.242-0.076-0.376-0.076-0.622 0.001-1.126 0.505-1.126 1.128zM18.781 12.689c-0.622 0-1.127 0.672-1.127 1.502s0.504 1.502 1.127 1.502 1.126-0.672 1.126-1.502-0.504-1.502-1.126-1.502zM13.592 11.546c0.011 0.022 0.020 0.051 0.028 0.087s0.014 0.082 0.016 0.136c0.004 0.055 0.005 0.123 0.005 0.205 0 0.091-0.002 0.168-0.007 0.23s-0.014 0.115-0.023 0.155c-0.012 0.041-0.027 0.071-0.046 0.089s-0.048 0.029-0.082 0.029-0.088-0.022-0.164-0.065c-0.076-0.044-0.168-0.091-0.277-0.142s-0.236-0.098-0.38-0.14-0.302-0.063-0.474-0.063c-0.135 0-0.252 0.016-0.352 0.049s-0.184 0.078-0.251 0.136c-0.067 0.058-0.118 0.128-0.15 0.208s-0.050 0.167-0.050 0.257c0 0.135 0.037 0.251 0.11 0.35s0.172 0.186 0.296 0.262c0.124 0.077 0.264 0.149 0.42 0.216s0.316 0.139 0.479 0.213c0.163 0.076 0.322 0.16 0.479 0.256s0.296 0.209 0.418 0.342c0.122 0.133 0.221 0.289 0.296 0.47s0.112 0.391 0.112 0.636c0 0.319-0.060 0.599-0.178 0.839s-0.28 0.442-0.484 0.604-0.441 0.282-0.713 0.363c-0.035 0.011-0.072 0.015-0.107 0.023v0.821h-0.739v-0.724c-0.010 0-0.018 0.002-0.028 0.002-0.209 0-0.404-0.017-0.584-0.051s-0.339-0.076-0.476-0.123c-0.138-0.048-0.253-0.099-0.345-0.152s-0.159-0.099-0.2-0.139-0.070-0.099-0.087-0.176-0.026-0.188-0.026-0.331c0-0.097 0.003-0.178 0.010-0.244s0.017-0.119 0.031-0.16c0.014-0.040 0.033-0.070 0.056-0.087s0.051-0.025 0.082-0.025c0.044 0 0.106 0.025 0.186 0.078 0.079 0.051 0.182 0.109 0.308 0.171s0.274 0.119 0.448 0.171c0.173 0.052 0.375 0.078 0.603 0.078 0.15 0 0.285-0.018 0.403-0.054s0.22-0.087 0.303-0.152c0.082-0.066 0.146-0.148 0.19-0.244s0.066-0.206 0.066-0.325c0-0.138-0.038-0.256-0.113-0.355s-0.172-0.186-0.293-0.263c-0.121-0.077-0.257-0.149-0.41-0.215s-0.311-0.139-0.474-0.214-0.321-0.16-0.474-0.256c-0.153-0.095-0.29-0.209-0.41-0.343s-0.218-0.29-0.293-0.471c-0.075-0.181-0.113-0.399-0.113-0.652 0-0.291 0.054-0.547 0.162-0.766s0.253-0.403 0.437-0.549c0.183-0.145 0.399-0.254 0.647-0.326 0.127-0.037 0.26-0.064 0.395-0.082v-0.776h0.739v0.776c0.029 0.004 0.059 0.002 0.088 0.007 0.144 0.022 0.279 0.051 0.404 0.088s0.236 0.079 0.332 0.126c0.098 0.046 0.161 0.085 0.194 0.116 0.029 0.028 0.050 0.054 0.062 0.076zM8.264 14.254c0 2.489 1.681 4.508 3.756 4.508h-8.339c0.042-0.119 0.076-0.242 0.076-0.375 0-0.622-0.505-1.127-1.127-1.127-0.133 0-0.257 0.034-0.376 0.076v-6.161c0.119 0.043 0.242 0.076 0.376 0.076 0.623 0 1.127-0.504 1.127-1.127 0-0.134-0.034-0.257-0.076-0.376h8.339c-2.075-0.001-3.756 2.018-3.756 4.507zM5.258 12.689c-0.623 0-1.127 0.672-1.127 1.502s0.505 1.502 1.127 1.502c0.622 0 1.127-0.672 1.127-1.502s-0.504-1.502-1.127-1.502z"></path>
</svg>
<svg id="icon-wallet1-tiny" width="24" height="24" viewBox="0 0 24 24" x="280" y="360">
<path d="M13.5 16.5c-0.828 0-1.5-0.672-1.5-1.5v-1.5c0-0.829 0.672-1.5 1.5-1.5h9v4.5h-9zM14.625 13.187c-0.621 0-1.125 0.504-1.125 1.125s0.504 1.125 1.125 1.125c0.622 0 1.125-0.503 1.125-1.125s-0.503-1.125-1.125-1.125zM11.25 13.5v1.5c0 1.242 1.008 2.25 2.25 2.25h7.5v3c0 1.242-1.007 2.25-2.25 2.25h-15.75c-1.242 0-2.25-1.008-2.25-2.25v-14.25c0-1.243 1.008-2.25 2.25-2.25h7.224l-1.762 0.734h-5.836c-0.621 0-1.125 0.504-1.125 1.125s0.504 1.125 1.125 1.125h18.374v4.516h-7.5c-1.242 0-2.25 1.007-2.25 2.25zM3.751 8.25h-1.5v1.5h0.75v-0.75h0.75v-0.75zM3.751 10.5h-1.5v1.5h0.781l-0.031-0.75 0.75 0.016v-0.766zM3.751 12.75h-1.5v1.5h0.766l-0.016-0.75h0.75v-0.75zM3.751 15h-1.5v1.5h0.766l-0.016-0.75 0.75 0.016v-0.766zM3.751 17.25h-1.5v1.5h0.75v-0.75h0.75v-0.75zM3.751 19.5h-1.5v1.5h0.766l-0.016-0.734h0.75v-0.766zM6.751 5.954l8.812-3.704 1.687 3.704h-10.5zM16.985 3.75h1.765c0.657 0 1.242 0.286 1.654 0.734h-3.061l-0.359-0.734z"></path>
</svg>
<svg id="icon-banknote-tiny" width="24" height="24" viewBox="0 0 24 24" x="320" y="360">
<path d="M23.561 7.94l-7.5-7.5c-0.372-0.372-0.911-0.521-1.422-0.395-0.269 0.066-0.51 0.205-0.7 0.395-0.17 0.17-0.299 0.381-0.372 0.617-0.34 1.102-0.927 2.059-1.796 2.928-1.161 1.16-2.673 2.039-4.273 2.968-1.698 0.984-3.452 2.004-4.89 3.441-1.222 1.223-2.054 2.584-2.541 4.163-0.164 0.533-0.021 1.11 0.372 1.505l7.5 7.5c0.372 0.372 0.911 0.521 1.422 0.395 0.269-0.067 0.51-0.205 0.7-0.395 0.17-0.17 0.298-0.381 0.372-0.618 0.341-1.102 0.928-2.059 1.798-2.928 1.16-1.16 2.671-2.038 4.273-2.966 1.697-0.986 3.451-2.005 4.889-3.442 1.222-1.222 2.053-2.584 2.542-4.163 0.164-0.532 0.020-1.111-0.373-1.504zM9 22.5c-2.484-2.484-5.016-5.017-7.5-7.5 2.132-6.901 11.37-6.599 13.5-13.5 2.484 2.483 5.017 5.016 7.502 7.5-2.132 6.899-11.371 6.599-13.501 13.5zM14.672 11.175c-0.245-0.205-0.491-0.344-0.738-0.413-0.246-0.069-0.492-0.097-0.741-0.079-0.246 0.019-0.498 0.075-0.75 0.172-0.252 0.098-0.505 0.205-0.761 0.329-0.403-0.463-0.805-0.92-1.208-1.345 0.181-0.164 0.358-0.247 0.527-0.253 0.17-0.008 0.334 0.011 0.489 0.050 0.158 0.040 0.303 0.074 0.437 0.1 0.135 0.026 0.252-0.003 0.355-0.089 0.109-0.094 0.169-0.215 0.177-0.361 0.008-0.148-0.048-0.292-0.172-0.432-0.158-0.181-0.349-0.292-0.578-0.332-0.226-0.040-0.457-0.037-0.697 0.016-0.237 0.054-0.463 0.143-0.677 0.269s-0.385 0.255-0.513 0.381c-0.049-0.046-0.098-0.092-0.146-0.138-0.054-0.050-0.121-0.077-0.202-0.075-0.082 0-0.149 0.035-0.205 0.1-0.054 0.063-0.079 0.136-0.069 0.214 0.007 0.080 0.040 0.142 0.095 0.189 0.049 0.041 0.098 0.082 0.146 0.124-0.192 0.232-0.35 0.488-0.475 0.758-0.126 0.271-0.201 0.539-0.229 0.8-0.029 0.262-0.002 0.503 0.079 0.725 0.080 0.224 0.229 0.415 0.445 0.595 0.353 0.293 0.769 0.418 1.251 0.39 0.481-0.029 0.999-0.173 1.556-0.472 0.443 0.511 0.886 1.019 1.33 1.491-0.188 0.158-0.352 0.249-0.496 0.278-0.145 0.031-0.274 0.028-0.391-0.008-0.117-0.037-0.226-0.089-0.325-0.157-0.1-0.069-0.198-0.128-0.296-0.176-0.097-0.048-0.197-0.075-0.299-0.076s-0.211 0.048-0.331 0.151c-0.123 0.107-0.184 0.232-0.184 0.372s0.065 0.281 0.191 0.425c0.127 0.143 0.293 0.264 0.493 0.359s0.427 0.155 0.676 0.172c0.249 0.017 0.511-0.020 0.788-0.123 0.278-0.101 0.553-0.284 0.825-0.557 0.13 0.128 0.263 0.249 0.394 0.366 0.056 0.048 0.123 0.072 0.205 0.066 0.079-0.003 0.148-0.040 0.202-0.106 0.056-0.067 0.079-0.142 0.071-0.22s-0.040-0.14-0.094-0.183c-0.132-0.106-0.264-0.217-0.395-0.334 0.224-0.275 0.404-0.566 0.538-0.853 0.134-0.289 0.212-0.567 0.239-0.825 0.026-0.26-0.005-0.494-0.089-0.706-0.084-0.215-0.233-0.4-0.447-0.577zM10.478 11.683c-0.212 0.009-0.397-0.061-0.559-0.218-0.069-0.066-0.117-0.146-0.146-0.242-0.031-0.095-0.041-0.199-0.029-0.313 0.011-0.113 0.044-0.23 0.103-0.349 0.056-0.118 0.138-0.237 0.243-0.352 0.38 0.378 0.76 0.793 1.14 1.222-0.288 0.158-0.538 0.243-0.751 0.252zM14.016 13.185c-0.067 0.125-0.145 0.236-0.235 0.332-0.421-0.425-0.841-0.891-1.26-1.37 0.107-0.048 0.22-0.098 0.341-0.149s0.243-0.085 0.365-0.106c0.124-0.019 0.247-0.014 0.37 0.016 0.121 0.031 0.237 0.097 0.344 0.201 0.106 0.106 0.172 0.215 0.2 0.334 0.029 0.12 0.031 0.242 0.011 0.366-0.022 0.125-0.066 0.25-0.135 0.376zM11.038 16.635c0.148-0.119 0.365-0.113 0.501 0.025 0.147 0.146 0.147 0.385 0 0.532-0.012 0.012-0.025 0.020-0.038 0.031l0.002 0.001c-0.475 0.361-0.865 0.686-1.286 1.106-0.38 0.38-0.724 0.779-1.021 1.185l-0.479 0.656c-0.015 0.027-0.033 0.052-0.056 0.075-0.147 0.146-0.386 0.146-0.532 0-0.127-0.128-0.143-0.324-0.050-0.47l-0.002-0.002 0.513-0.7c0.32-0.438 0.688-0.867 1.096-1.274 0.424-0.425 0.881-0.805 1.35-1.165h0.002zM13.784 5.786c0.38-0.38 0.722-0.778 1.020-1.186l0.498-0.683c0.018-0.032 0.038-0.065 0.066-0.092 0.148-0.148 0.387-0.148 0.535 0 0.14 0.141 0.146 0.364 0.019 0.513l0.001 0.002-0.513 0.703c-0.321 0.438-0.688 0.866-1.096 1.273-0.424 0.424-0.88 0.805-1.349 1.165l-0.003-0.002c-0.149 0.137-0.381 0.134-0.524-0.011-0.148-0.148-0.148-0.389 0-0.536 0.026-0.028 0.057-0.047 0.088-0.065 0.441-0.337 0.866-0.69 1.259-1.082z"></path>
</svg>
<svg id="icon-wallet11-tiny" width="24" height="24" viewBox="0 0 24 24" x="360" y="360">
<path d="M12 15c0-0.828 0.672-1.5 1.5-1.5s1.5 0.672 1.5 1.5c0 0.828-0.672 1.5-1.5 1.5s-1.5-0.672-1.5-1.5zM21.751 9.75c-0.001 0-0.001 0 0 0l-0.001-4.5v-2.25c0-1.243-1.008-2.25-2.25-2.25h-15.375c-2.275 0-4.125 1.851-4.125 4.125v15c0 2.274 1.85 4.125 4.125 4.125h13.5c2.274 0 4.125-1.851 4.125-4.125v-1.125c0 0 0 0 0.001 0 2.999-2.251 2.999-6.749 0-9zM4.125 2.25h15.375c0.413 0 0.75 0.336 0.75 0.75v4.638c-0.236-0.084-0.486-0.138-0.75-0.138h-0.001v-3.75c0-0.415-0.336-0.75-0.75-0.75h-15.75c-0.414 0-0.75 0.335-0.75 0.75v2.957c-0.463-0.473-0.749-1.118-0.749-1.832 0-1.45 1.175-2.625 2.625-2.625zM18.749 4.5h-15.75v-0.75h15.75v0.75zM18.749 5.25v0.75h-15.75v-0.75h15.75zM18.749 6.75v0.75h-14.624c-0.405 0-0.783-0.099-1.125-0.262v-0.488h15.749zM20.25 19.875c0 1.45-1.175 2.625-2.625 2.625h-13.5c-1.45 0-2.625-1.175-2.625-2.625v-11.821c0.713 0.59 1.628 0.946 2.625 0.946h15.375c0.413 0 0.75 0.336 0.75 0.75v1.5h-6.75c-2.072 0-3.75 1.678-3.75 3.75s1.679 3.75 3.75 3.75h6.75v1.125zM21.208 17.25h-7.708c-1.241 0-2.25-1.009-2.25-2.25s1.009-2.25 2.25-2.25h6.75c0.463-0.006 0.922-0.23 1.201-0.603 0.078-0.105 0.139-0.223 0.188-0.346 0.007-0.017 0.019-0.029 0.025-0.046 0.539 0.707 0.836 1.574 0.836 2.495 0 1.154-0.466 2.224-1.292 3z"></path>
</svg>
<svg id="icon-location_on-tiny" width="12" height="12" viewBox="0 0 12 12" x="0" y="400">
<path d="M6 5.742q0.516 0 0.879-0.363t0.363-0.879-0.363-0.879-0.879-0.363-0.879 0.363-0.363 0.879 0.363 0.879 0.879 0.363zM6 1.008q1.453 0 2.473 1.020t1.020 2.473q0 0.727-0.363 1.664t-0.879 1.758-1.020 1.535-0.855 1.137l-0.375 0.398q-0.141-0.164-0.375-0.434t-0.844-1.078-1.066-1.57-0.832-1.723-0.375-1.688q0-1.453 1.020-2.473t2.473-1.020z"></path>
</svg>
<svg id="icon-credit-card-tiny" width="26" height="24" viewBox="0 0 26 24" x="0" y="428">
<path d="M23.571 1.714c1.179 0 2.143 0.964 2.143 2.143v16.286c0 1.179-0.964 2.143-2.143 2.143h-21.429c-1.179 0-2.143-0.964-2.143-2.143v-16.286c0-1.179 0.964-2.143 2.143-2.143h21.429zM2.143 3.429c-0.228 0-0.429 0.201-0.429 0.429v3h22.286v-3c0-0.228-0.201-0.429-0.429-0.429h-21.429zM23.571 20.571c0.228 0 0.429-0.201 0.429-0.429v-8.143h-22.286v8.143c0 0.228 0.201 0.429 0.429 0.429h21.429zM3.429 18.857v-1.714h3.429v1.714h-3.429zM8.571 18.857v-1.714h5.143v1.714h-5.143z"></path>
</svg>
<svg id="icon-cc-mastercard-tiny" width="31" height="24" viewBox="0 0 31 24" x="40" y="428">
<path d="M14.987 4.567c-1.112-0.737-2.424-1.138-3.763-1.138-3.763 0-6.817 3.054-6.817 6.804 0 3.763 3.054 6.817 6.817 6.817 1.339 0 2.652-0.402 3.763-1.138-3.589-2.92-3.563-8.424 0-11.344zM15.429 4.888c-3.455 2.719-3.469 7.996 0 10.701 3.469-2.705 3.455-7.982 0-10.701zM15.871 4.567c3.549 2.92 3.603 8.438 0 11.344 1.112 0.737 2.438 1.138 3.763 1.138 3.763 0 6.817-3.054 6.817-6.817 0-3.75-3.054-6.804-6.817-6.804-1.339 0-2.652 0.402-3.763 1.138zM25.795 14.237h0.094v-0.040h-0.228v0.040h0.094v0.228h0.040v-0.228zM26.183 14.464h0.054v-0.268h-0.067l-0.080 0.174-0.080-0.174h-0.067v0.268h0.040v-0.201l0.080 0.174h0.054l0.067-0.174v0.201zM26.076 20.357v0.027h-0.067v-0.040h0.067v0.013zM26.076 20.478h0.040l-0.054-0.067c0.027 0 0.027-0.013 0.040-0.013 0.013-0.013 0.013-0.027 0.013-0.040s0-0.027-0.013-0.040c-0.013 0-0.027-0.013-0.054-0.013h-0.080v0.174h0.040v-0.067h0.013zM9.174 19.567c0-0.321 0.201-0.576 0.549-0.576 0.321 0 0.536 0.254 0.536 0.576 0 0.335-0.214 0.576-0.536 0.576-0.348 0-0.549-0.254-0.549-0.576zM15.509 18.978c0.254 0 0.429 0.147 0.469 0.429h-0.938c0.040-0.254 0.201-0.429 0.469-0.429zM20.277 19.567c0-0.321 0.201-0.576 0.536-0.576s0.549 0.254 0.549 0.576c0 0.335-0.214 0.576-0.549 0.576s-0.536-0.254-0.536-0.576zM23.92 19.567c0-0.321 0.214-0.576 0.549-0.576 0.321 0 0.549 0.254 0.549 0.576 0 0.335-0.228 0.576-0.549 0.576-0.335 0-0.549-0.254-0.549-0.576zM26.036 20.531c-0.013 0-0.027 0-0.054-0.013-0.013 0-0.027-0.013-0.040-0.027s-0.027-0.027-0.027-0.040-0.013-0.040-0.013-0.054 0-0.040 0.013-0.054c0-0.027 0.013-0.040 0.027-0.054s0.027-0.013 0.040-0.027 0.040-0.013 0.054-0.013 0.040 0 0.054 0.013 0.040 0.013 0.054 0.027 0.013 0.027 0.027 0.054c0 0.013 0.013 0.027 0.013 0.054 0 0.013-0.013 0.027-0.013 0.054-0.013 0.013-0.013 0.027-0.027 0.040s-0.027 0.027-0.054 0.027c-0.013 0.013-0.027 0.013-0.054 0.013zM8.022 20.478h0.402v-1.138c0-0.429-0.281-0.71-0.723-0.723-0.228 0-0.469 0.067-0.629 0.321-0.121-0.201-0.321-0.321-0.603-0.321-0.188 0-0.375 0.067-0.522 0.268v-0.214h-0.402v1.808h0.402v-1.004c0-0.321 0.174-0.482 0.442-0.482s0.402 0.174 0.402 0.482v1.004h0.388v-1.004c0-0.321 0.188-0.482 0.442-0.482 0.268 0 0.402 0.174 0.402 0.482v1.004zM10.246 20.478h0.388v-1.808h-0.388v0.214c-0.134-0.161-0.321-0.268-0.576-0.268-0.509 0-0.897 0.402-0.897 0.951s0.388 0.951 0.897 0.951c0.254 0 0.442-0.094 0.576-0.268v0.228zM12.629 19.929c0-0.321-0.241-0.482-0.629-0.536l-0.188-0.027c-0.174-0.027-0.308-0.067-0.308-0.188s0.121-0.201 0.335-0.201c0.241 0 0.455 0.080 0.576 0.147l0.161-0.321c-0.188-0.121-0.442-0.188-0.737-0.188-0.455 0-0.75 0.228-0.75 0.589 0 0.295 0.214 0.469 0.629 0.522l0.174 0.027c0.228 0.040 0.321 0.094 0.321 0.188 0 0.147-0.147 0.228-0.415 0.228s-0.469-0.094-0.603-0.188l-0.174 0.308c0.214 0.147 0.482 0.228 0.777 0.228 0.522 0 0.83-0.241 0.83-0.589zM14.371 20.384l-0.107-0.335c-0.121 0.067-0.241 0.094-0.348 0.094-0.201 0-0.254-0.121-0.254-0.295v-0.817h0.643v-0.362h-0.643v-0.549h-0.402v0.549h-0.375v0.362h0.375v0.817c0 0.415 0.161 0.67 0.629 0.67 0.161 0 0.362-0.054 0.482-0.134zM15.522 18.616c-0.522 0-0.897 0.388-0.897 0.951 0 0.576 0.388 0.951 0.924 0.951 0.268 0 0.522-0.067 0.737-0.254l-0.188-0.295c-0.147 0.121-0.348 0.201-0.522 0.201-0.254 0-0.482-0.121-0.549-0.442h1.353v-0.161c0-0.563-0.348-0.951-0.857-0.951zM17.652 18.616c-0.228 0-0.375 0.107-0.469 0.268v-0.214h-0.402v1.808h0.402v-1.018c0-0.295 0.121-0.469 0.388-0.469 0.080 0 0.161 0.013 0.241 0.054l0.121-0.375c-0.094-0.040-0.201-0.054-0.281-0.054zM18.054 19.567c0 0.549 0.375 0.951 0.964 0.951 0.268 0 0.455-0.054 0.643-0.214l-0.188-0.321c-0.147 0.107-0.295 0.174-0.469 0.161-0.321 0-0.549-0.228-0.549-0.576s0.228-0.576 0.549-0.576c0.174 0 0.321 0.054 0.469 0.161l0.188-0.321c-0.188-0.147-0.375-0.214-0.643-0.214-0.589 0-0.964 0.402-0.964 0.951zM21.335 20.478h0.402v-1.808h-0.402v0.214c-0.121-0.161-0.308-0.268-0.563-0.268-0.509 0-0.911 0.402-0.911 0.951s0.402 0.951 0.911 0.951c0.254 0 0.442-0.094 0.563-0.268v0.228zM23.116 18.616c-0.228 0-0.375 0.107-0.469 0.268v-0.214h-0.388v1.808h0.388v-1.018c0-0.295 0.134-0.469 0.388-0.469 0.080 0 0.161 0.013 0.241 0.054l0.121-0.375c-0.080-0.040-0.201-0.054-0.281-0.054zM24.991 20.478h0.388v-2.545h-0.388v0.951c-0.121-0.161-0.308-0.268-0.576-0.268-0.496 0-0.897 0.402-0.897 0.951s0.402 0.951 0.897 0.951c0.268 0 0.455-0.094 0.576-0.268v0.228zM26.036 20.21c-0.013 0-0.040 0.013-0.067 0.013-0.027 0.013-0.040 0.027-0.054 0.040-0.027 0.013-0.040 0.040-0.040 0.054-0.013 0.027-0.013 0.054-0.013 0.080 0 0.013 0 0.040 0.013 0.067 0 0.013 0.013 0.040 0.040 0.054 0.013 0.013 0.027 0.027 0.054 0.040s0.054 0.013 0.067 0.013c0.027 0 0.054 0 0.080-0.013 0.013-0.013 0.040-0.027 0.054-0.040s0.027-0.040 0.040-0.054c0.013-0.027 0.013-0.054 0.013-0.067 0-0.027 0-0.054-0.013-0.080-0.013-0.013-0.027-0.040-0.040-0.054s-0.040-0.027-0.054-0.040c-0.027 0-0.054-0.013-0.080-0.013zM30.857 3.429v17.143c0 0.938-0.777 1.714-1.714 1.714h-27.429c-0.938 0-1.714-0.777-1.714-1.714v-17.143c0-0.938 0.777-1.714 1.714-1.714h27.429c0.938 0 1.714 0.777 1.714 1.714z"></path>
</svg>
<svg id="icon-library-tiny" width="26" height="24" viewBox="0 0 26 24" x="0" y="468">
<path d="M24 22.5v-1.5h-1.5v-9h1.5v-1.5h-4.5v1.5h1.5v9h-4.5v-9h1.5v-1.5h-4.5v1.5h1.5v9h-4.5v-9h1.5v-1.5h-4.5v1.5h1.5v9h-4.5v-9h1.5v-1.5h-4.5v1.5h1.5v9h-1.5v1.5h-1.5v1.5h25.5v-1.5h-1.5z"></path>
<path d="M12 0h1.5l12 7.5v1.5h-25.5v-1.5l12-7.5z"></path>
</svg>
<svg id="icon-coin-dollar-tiny" width="24" height="24" viewBox="0 0 24 24" x="40" y="468">
<path d="M11.25 1.5c-6.213 0-11.25 5.037-11.25 11.25s5.037 11.25 11.25 11.25c6.213 0 11.25-5.037 11.25-11.25s-5.037-11.25-11.25-11.25zM11.25 21.75c-4.971 0-9-4.029-9-9s4.029-9 9-9c4.971 0 9 4.029 9 9s-4.029 9-9 9zM12 12v-3h3v-1.5h-3v-1.5h-1.5v1.5h-3v6h3v3h-3v1.5h3v1.5h1.5v-1.5h3l-0-6h-3zM10.5 12h-1.5v-3h1.5v3zM13.5 16.5h-1.5v-3h1.5v3z"></path>
</svg>
<svg id="icon-coin-euro-tiny" width="24" height="24" viewBox="0 0 24 24" x="80" y="468">
<path d="M11.25 1.5c-6.213 0-11.25 5.037-11.25 11.25s5.037 11.25 11.25 11.25c6.213 0 11.25-5.037 11.25-11.25s-5.037-11.25-11.25-11.25zM11.25 21.75c-4.971 0-9-4.029-9-9s4.029-9 9-9c4.971 0 9 4.029 9 9s-4.029 9-9 9z"></path>
<path d="M15.722 15.102c-0.358-0.208-0.817-0.087-1.025 0.271-0.404 0.695-1.15 1.127-1.947 1.127h-3c-0.978 0-1.811-0.627-2.121-1.5h3.621c0.414 0 0.75-0.336 0.75-0.75s-0.336-0.75-0.75-0.75h-3.75v-1.5h3.75c0.414 0 0.75-0.336 0.75-0.75s-0.336-0.75-0.75-0.75h-3.621c0.31-0.873 1.143-1.5 2.121-1.5h3c0.797 0 1.543 0.432 1.947 1.127 0.208 0.358 0.667 0.479 1.025 0.271s0.479-0.667 0.271-1.025c-0.672-1.155-1.915-1.873-3.244-1.873h-3c-1.811 0-3.326 1.29-3.675 3h-0.825c-0.414 0-0.75 0.336-0.75 0.75s0.336 0.75 0.75 0.75h0.75v1.5h-0.75c-0.414 0-0.75 0.336-0.75 0.75s0.336 0.75 0.75 0.75h0.825c0.348 1.71 1.864 3 3.675 3h3c1.329 0 2.572-0.718 3.244-1.873 0.208-0.358 0.087-0.817-0.271-1.025z"></path>
</svg>
<svg id="icon-coin-pound-tiny" width="24" height="24" viewBox="0 0 24 24" x="120" y="468">
<path d="M11.25 1.5c-6.213 0-11.25 5.037-11.25 11.25s5.037 11.25 11.25 11.25c6.213 0 11.25-5.037 11.25-11.25s-5.037-11.25-11.25-11.25zM11.25 21.75c-4.971 0-9-4.029-9-9s4.029-9 9-9c4.97 0 9 4.029 9 9s-4.030 9-9 9z"></path>
<path d="M14.25 16.5h-5.25v-3h2.25c0.414 0 0.75-0.336 0.75-0.75s-0.336-0.75-0.75-0.75h-2.25v-0.75c0-1.241 1.009-2.25 2.25-2.25 0.801 0 1.548 0.431 1.95 1.126 0.207 0.359 0.666 0.481 1.025 0.274s0.481-0.666 0.274-1.025c-0.669-1.156-1.913-1.875-3.248-1.875-2.068 0-3.75 1.682-3.75 3.75v0.75h-0.75c-0.414 0-0.75 0.336-0.75 0.75s0.336 0.75 0.75 0.75h0.75v4.5h6.75c0.414 0 0.75-0.336 0.75-0.75s-0.336-0.75-0.75-0.75z"></path>
</svg>
<svg id="icon-coin-yen-tiny" width="24" height="24" viewBox="0 0 24 24" x="160" y="468">
<path d="M11.25 1.5c-6.213 0-11.25 5.037-11.25 11.25s5.037 11.25 11.25 11.25c6.213 0 11.25-5.037 11.25-11.25s-5.037-11.25-11.25-11.25zM11.25 21.75c-4.971 0-9-4.029-9-9s4.029-9 9-9c4.971 0 9 4.029 9 9s-4.029 9-9 9z"></path>
<path d="M14.25 13.5c0.414 0 0.75-0.336 0.75-0.75s-0.336-0.75-0.75-0.75h-1.599l2.223-3.334c0.23-0.345 0.137-0.81-0.208-1.040s-0.81-0.137-1.040 0.208l-2.376 3.564-2.376-3.564c-0.23-0.345-0.695-0.438-1.040-0.208s-0.438 0.695-0.208 1.040l2.223 3.334h-1.599c-0.414 0-0.75 0.336-0.75 0.75s0.336 0.75 0.75 0.75h2.25v1.5h-2.25c-0.414 0-0.75 0.336-0.75 0.75s0.336 0.75 0.75 0.75h2.25v2.25c0 0.414 0.336 0.75 0.75 0.75s0.75-0.336 0.75-0.75v-2.25h2.25c0.414 0 0.75-0.336 0.75-0.75s-0.336-0.75-0.75-0.75h-2.25v-1.5h2.25z"></path>
</svg>
<svg id="icon-credit-card1-tiny" width="24" height="24" viewBox="0 0 24 24" x="200" y="468">
<path d="M21.75 3h-19.5c-1.237 0-2.25 1.012-2.25 2.25v13.5c0 1.237 1.013 2.25 2.25 2.25h19.5c1.237 0 2.25-1.013 2.25-2.25v-13.5c0-1.238-1.013-2.25-2.25-2.25zM2.25 4.5h19.5c0.407 0 0.75 0.343 0.75 0.75v2.25h-21v-2.25c0-0.407 0.343-0.75 0.75-0.75zM21.75 19.5h-19.5c-0.407 0-0.75-0.343-0.75-0.75v-6.75h21v6.75c0 0.407-0.343 0.75-0.75 0.75zM3 15h1.5v3h-1.5zM6 15h1.5v3h-1.5zM9 15h1.5v3h-1.5z"></path>
</svg>
<svg id="icon-pencil-tiny" width="14" height="16" viewBox="0 0 14 16" x="240" y="468">
<path d="M3.241 13.714l0.812-0.813-2.098-2.098-0.813 0.813v0.955h1.143v1.143h0.955zM7.911 5.429c0-0.116-0.080-0.196-0.196-0.196-0.054 0-0.107 0.018-0.152 0.063l-4.839 4.839c-0.045 0.045-0.063 0.098-0.063 0.152 0 0.116 0.080 0.196 0.196 0.196 0.054 0 0.107-0.018 0.152-0.063l4.839-4.839c0.045-0.045 0.063-0.098 0.063-0.152zM7.429 3.714l3.714 3.714-7.429 7.429h-3.714v-3.714zM13.527 4.571c0 0.304-0.125 0.598-0.33 0.804l-1.482 1.482-3.714-3.714 1.482-1.473c0.205-0.214 0.5-0.339 0.804-0.339s0.598 0.125 0.813 0.339l2.098 2.089c0.205 0.214 0.33 0.509 0.33 0.813z"></path>
</svg>
</svg>
