<?xml version="1.0" encoding="utf-8"?>
<!-- Generated by IcoMoon.io -->
<svg version="1.1" xmlns="http://www.w3.org/2000/svg" xmlns:xlink="http://www.w3.org/1999/xlink" width="688" height="116" viewBox="0 0 688 116">
<svg id="icon-caret-down" width="16" height="28" viewBox="0 0 16 28" x="0" y="0">
<path d="M16 11c0 0.266-0.109 0.516-0.297 0.703l-7 7c-0.187 0.187-0.438 0.297-0.703 0.297s-0.516-0.109-0.703-0.297l-7-7c-0.187-0.187-0.297-0.438-0.297-0.703 0-0.547 0.453-1 1-1h14c0.547 0 1 0.453 1 1z"></path>
</svg>
<svg id="icon-add-outline" width="17" height="17" viewBox="0 0 28 28" x="0" y="0">
<path d="M15.4 12.6h5.6v2.8h-5.6v5.6h-2.8v-5.6h-5.6v-2.8h5.6v-5.6h2.8v5.6zM14 28c-7.732 0-14-6.268-14-14s6.268-14 14-14v0c7.732 0 14 6.268 14 14s-6.268 14-14 14v0zM14 25.2c6.186 0 11.2-5.014 11.2-11.2s-5.014-11.2-11.2-11.2v0c-6.186 0-11.2 5.014-11.2 11.2s5.014 11.2 11.2 11.2v0z"></path>
</svg>
<svg id="icon-home" width="25" height="25" viewBox="0 0 28 28" x="0" y="0">
<path d="M28 16.145l-14-10.867-14 10.867v-4.431l14-10.867 14 10.867zM24.5 15.75v10.5h-7v-7h-7v7h-7v-10.5l10.5-7.875z"></path>
</svg>
<svg id="icon-ticket" width="25" height="25" viewBox="0 0 28 28" x="0" y="0">
<path d="M15.75 8.75l3.5 3.5-7 7-3.5-3.5zM27.385 8.135l-2.010-2.010-0.875 0.875c-0.448 0.448-1.067 0.725-1.75 0.725-1.367 0-2.475-1.108-2.475-2.475 0-0.684 0.277-1.303 0.726-1.75l0.875-0.875-2.010-2.010c-0.819-0.819-2.16-0.819-2.98 0l-16.271 16.271c-0.819 0.819-0.819 2.16 0 2.98l2.010 2.010 0.874-0.874c0.448-0.449 1.067-0.726 1.751-0.726 1.367 0 2.475 1.108 2.475 2.475 0 0.684-0.277 1.303-0.726 1.751l-0.875 0.875 2.010 2.010c0.819 0.819 2.16 0.819 2.98 0l16.271-16.271c0.819-0.82 0.819-2.161 0-2.98zM12.25 22.75l-7-7 10.5-10.5 7 7-10.5 10.5z"></path>
</svg>
<svg id="icon-calculator" width="25" height="25" viewBox="0 0 28 28" x="0" y="0">
<path d="M10.5 1.75h-8.75c-0.963 0-1.75 0.788-1.75 1.75v8.75c0 0.963 0.787 1.75 1.75 1.75h8.75c0.963 0 1.75-0.787 1.75-1.75v-8.75c0-0.962-0.787-1.75-1.75-1.75zM10.5 8.75h-8.75v-1.75h8.75v1.75zM24.5 1.75h-8.75c-0.963 0-1.75 0.788-1.75 1.75v22.75c0 0.963 0.787 1.75 1.75 1.75h8.75c0.963 0 1.75-0.787 1.75-1.75v-22.75c0-0.962-0.787-1.75-1.75-1.75zM24.5 17.5h-8.75v-1.75h8.75v1.75zM24.5 12.25h-8.75v-1.75h8.75v1.75zM10.5 15.75h-8.75c-0.963 0-1.75 0.787-1.75 1.75v8.75c0 0.963 0.787 1.75 1.75 1.75h8.75c0.963 0 1.75-0.787 1.75-1.75v-8.75c0-0.963-0.787-1.75-1.75-1.75zM10.5 22.75h-3.5v3.5h-1.75v-3.5h-3.5v-1.75h3.5v-3.5h1.75v3.5h3.5v1.75z"></path>
</svg>
<svg id="icon-lifebuoy" width="25" height="25" viewBox="0 0 28 28" x="0" y="0">
<path d="M14 0c-7.732 0-14 6.268-14 14s6.268 14 14 14 14-6.268 14-14-6.268-14-14-14zM8.75 14c0-2.9 2.35-5.25 5.25-5.25s5.25 2.35 5.25 5.25-2.35 5.25-5.25 5.25-5.25-2.35-5.25-5.25zM25.32 18.689v0l-4.851-2.009c0.342-0.825 0.532-1.73 0.532-2.679s-0.189-1.854-0.532-2.679l4.851-2.009c0.599 1.444 0.93 3.028 0.93 4.689s-0.331 3.244-0.93 4.689v0zM18.689 2.68v0 0l-2.009 4.851c-0.825-0.342-1.73-0.532-2.679-0.532s-1.854 0.189-2.679 0.532l-2.009-4.851c1.444-0.599 3.028-0.93 4.689-0.93s3.244 0.331 4.689 0.93zM2.68 9.311l4.851 2.009c-0.342 0.825-0.532 1.73-0.532 2.679s0.189 1.854 0.532 2.679l-4.851 2.009c-0.599-1.444-0.93-3.028-0.93-4.689s0.331-3.244 0.93-4.689zM9.311 25.32l2.009-4.851c0.825 0.342 1.73 0.532 2.679 0.532s1.854-0.189 2.679-0.532l2.009 4.851c-1.444 0.599-3.028 0.93-4.689 0.93s-3.244-0.331-4.689-0.93z"></path>
</svg>
<svg id="icon-download" width="25" height="25" viewBox="0 0 28 28" x="0" y="0">
<path d="M14 15.75l7-7h-5.25v-7h-3.5v7h-5.25zM20.364 12.886l-1.962 1.962 7.112 2.652-11.514 4.293-11.514-4.293 7.112-2.652-1.962-1.962-7.636 2.864v7l14 5.25 14-5.25v-7z"></path>
</svg>
<svg id="icon-database" width="25" height="25" viewBox="0 0 28 28" x="0" y="0">
<path d="M14 0c-7.732 0-14 1.959-14 4.375v3.5c0 2.416 6.268 4.375 14 4.375s14-1.959 14-4.375v-3.5c0-2.416-6.268-4.375-14-4.375z"></path>
<path d="M14 14.875c-7.732 0-14-1.959-14-4.375v5.25c0 2.416 6.268 4.375 14 4.375s14-1.959 14-4.375v-5.25c0 2.416-6.268 4.375-14 4.375z"></path>
<path d="M14 22.75c-7.732 0-14-1.959-14-4.375v5.25c0 2.416 6.268 4.375 14 4.375s14-1.959 14-4.375v-5.25c0 2.416-6.268 4.375-14 4.375z"></path>
</svg>
<svg id="icon-cogs" width="25" height="25" viewBox="0 0 28 28" x="0" y="0">
<path d="M9.946 19.744l1.129-1.581-1.237-1.237-1.581 1.129c-0.293-0.164-0.607-0.295-0.937-0.388l-0.319-1.916h-1.75l-0.319 1.916c-0.33 0.093-0.644 0.224-0.937 0.388l-1.581-1.129-1.237 1.237 1.129 1.581c-0.164 0.293-0.295 0.607-0.388 0.937l-1.916 0.319v1.75l1.916 0.319c0.093 0.33 0.224 0.644 0.388 0.937l-1.129 1.581 1.237 1.237 1.581-1.129c0.293 0.164 0.607 0.295 0.937 0.388l0.319 1.916h1.75l0.319-1.916c0.33-0.093 0.644-0.224 0.937-0.388l1.581 1.129 1.237-1.237-1.129-1.581c0.164-0.293 0.295-0.607 0.388-0.937l1.916-0.319v-1.75l-1.916-0.319c-0.093-0.33-0.224-0.644-0.388-0.937zM6.125 23.625c-0.967 0-1.75-0.784-1.75-1.75s0.783-1.75 1.75-1.75 1.75 0.784 1.75 1.75-0.783 1.75-1.75 1.75zM28 10.5v-1.75l-1.842-0.335c-0.034-0.22-0.077-0.437-0.129-0.651l1.574-1.014-0.67-1.617-1.83 0.396c-0.115-0.189-0.239-0.372-0.369-0.55l1.067-1.541-1.237-1.237-1.541 1.067c-0.178-0.13-0.361-0.254-0.55-0.369l0.396-1.831-1.617-0.67-1.014 1.574c-0.214-0.052-0.431-0.095-0.651-0.129l-0.335-1.842h-1.75l-0.335 1.842c-0.22 0.034-0.437 0.077-0.651 0.129l-1.014-1.574-1.617 0.67 0.396 1.831c-0.189 0.115-0.372 0.239-0.55 0.369l-1.541-1.067-1.237 1.237 1.067 1.541c-0.13 0.178-0.254 0.361-0.369 0.55l-1.831-0.396-0.67 1.617 1.574 1.014c-0.052 0.214-0.095 0.43-0.129 0.651l-1.843 0.335v1.75l1.842 0.335c0.034 0.22 0.077 0.437 0.129 0.651l-1.574 1.014 0.67 1.617 1.831-0.396c0.115 0.189 0.239 0.372 0.369 0.55l-1.067 1.541 1.237 1.237 1.541-1.067c0.178 0.13 0.361 0.254 0.55 0.369l-0.396 1.83 1.617 0.67 1.015-1.574c0.214 0.052 0.43 0.095 0.65 0.129l0.335 1.843h1.75l0.335-1.842c0.22-0.034 0.437-0.077 0.651-0.129l1.014 1.574 1.617-0.67-0.396-1.831c0.189-0.115 0.372-0.239 0.55-0.369l1.541 1.067 1.237-1.237-1.067-1.541c0.13-0.178 0.254-0.361 0.369-0.55l1.83 0.396 0.67-1.617-1.574-1.014c0.052-0.214 0.095-0.43 0.129-0.651l1.842-0.335zM18.375 13.431c-2.102 0-3.806-1.704-3.806-3.806s1.704-3.806 3.806-3.806 3.806 1.704 3.806 3.806c0 2.102-1.704 3.806-3.806 3.806z"></path>
</svg>
<svg id="icon-pie-chart" width="25" height="25" viewBox="0 0 28 28" x="0" y="0">
<path d="M12.25 15.75v-12.25c-6.766 0-12.25 5.485-12.25 12.25s5.484 12.25 12.25 12.25 12.25-5.485 12.25-12.25c0-1.97-0.466-3.83-1.292-5.479l-10.958 5.479zM24.958 6.771c-2.011-4.014-6.163-6.771-10.958-6.771v12.25l10.958-5.479z"></path>
</svg>
<svg id="icon-star-full" width="25" height="25" viewBox="0 0 28 28" x="0" y="0">
<path d="M28 10.857l-9.674-1.406-4.326-8.766-4.326 8.766-9.674 1.406 7 6.823-1.652 9.635 8.652-4.549 8.652 4.549-1.652-9.635 7-6.823z"></path>
</svg>
<svg id="icon-enter" width="25" height="25" viewBox="0 0 28 28" x="0" y="0">
<path d="M10.5 14h-8.75v-3.5h8.75v-3.5l5.25 5.25-5.25 5.25zM28 0v22.75l-10.5 5.25v-5.25h-10.5v-7h1.75v5.25h8.75v-15.75l7-3.5h-15.75v7h-1.75v-8.75z"></path>
</svg>
<svg id="icon-exit" width="25" height="25" viewBox="0 0 28 28" x="0" y="0">
<path d="M21 17.5v-3.5h-8.75v-3.5h8.75v-3.5l5.25 5.25zM19.25 15.75v7h-8.75v5.25l-10.5-5.25v-22.75h19.25v8.75h-1.75v-7h-14l7 3.5v15.75h7v-5.25z"></path>
</svg>
<svg id="icon-circle-left" viewBox="0 0 28 28">
<path d="M14 28c7.732 0 14-6.268 14-14s-6.268-14-14-14-14 6.268-14 14 6.268 14 14 14zM14 2.625c6.282 0 11.375 5.093 11.375 11.375s-5.093 11.375-11.375 11.375-11.375-5.093-11.375-11.375 5.093-11.375 11.375-11.375z"></path>
<path d="M18.3 8.675l-2.475-2.475-7.8 7.8 7.8 7.8 2.475-2.475-5.325-5.325z"></path>
</svg>
<svg  id="icon-knife-fork" x="0" y="0" width="24" height="24" fill-rule="evenodd" clip-rule="evenodd">
<path d="M18.496 24h-.001c-.715 0-1.5-.569-1.5-1.5v-8.5s-1.172-.003-2.467 0c.802-6.996 3.103-14 4.66-14 .447 0 .804.357.807.851.01 1.395.003 16.612.001 21.649 0 .828-.672 1.5-1.5 1.5zm-11.505-12.449c0-.691-.433-.917-1.377-1.673-.697-.56-1.177-1.433-1.088-2.322.252-2.537.862-7.575.862-7.575h.6v6h1.003l.223-6h.607l.173 6h1.003l.242-6h.562l.199 6h1.003v-6h.549s.674 5.005.951 7.55c.098.902-.409 1.792-1.122 2.356-.949.751-1.381.967-1.381 1.669v10.925c0 .828-.673 1.5-1.505 1.5-.831 0-1.504-.672-1.504-1.5v-10.93z"/>
</svg>
<svg  id="icon-juice" x="0" y="0" width="24" height="24" fill-rule="evenodd" clip-rule="evenodd"><path d="M17 24h-10l-2-16h14l-2 16zm-6.25-5.5c.414 0 .75.336.75.75s-.336.75-.75.75-.75-.336-.75-.75.336-.75.75-.75zm3.25-2.5c.552 0 1 .448 1 1s-.448 1-1 1-1-.448-1-1 .448-1 1-1zm-3.5-3c.828 0 1.5.672 1.5 1.5s-.672 1.5-1.5 1.5-1.5-.672-1.5-1.5.672-1.5 1.5-1.5zm1.685-9l2.072-4 1.359.634-1.776 3.366h4.199c0 .922 1.092 1.618 1.961 1.618v1.382h-16v-1.382c.87 0 2-.697 2-1.618h6.185z"/></svg>

<svg  id="icon-close"  viewBox="0 0 30 35"><path d="M16 0c-8.837 0-16 7.163-16 16s7.163 16 16 16 16-7.163 16-16-7.163-16-16-16zM16 29c-7.18 0-13-5.82-13-13s5.82-13 13-13 13 5.82 13 13-5.82 13-13 13z"></path>
<path d="M21 8l-5 5-5-5-3 3 5 5-5 5 3 3 5-5 5 5 3-3-5-5 5-5z"></path></svg>
<svg id="icon-loader" viewBox="0 0 24 24">
<path d="M11 2v4c0 0.552 0.448 1 1 1s1-0.448 1-1v-4c0-0.552-0.448-1-1-1s-1 0.448-1 1zM11 18v4c0 0.552 0.448 1 1 1s1-0.448 1-1v-4c0-0.552-0.448-1-1-1s-1 0.448-1 1zM4.223 5.637l2.83 2.83c0.391 0.391 1.024 0.391 1.414 0s0.391-1.024 0-1.414l-2.83-2.83c-0.391-0.391-1.024-0.391-1.414 0s-0.391 1.024 0 1.414zM15.533 16.947l2.83 2.83c0.391 0.391 1.024 0.391 1.414 0s0.391-1.024 0-1.414l-2.83-2.83c-0.391-0.391-1.024-0.391-1.414 0s-0.391 1.024 0 1.414zM2 13h4c0.552 0 1-0.448 1-1s-0.448-1-1-1h-4c-0.552 0-1 0.448-1 1s0.448 1 1 1zM18 13h4c0.552 0 1-0.448 1-1s-0.448-1-1-1h-4c-0.552 0-1 0.448-1 1s0.448 1 1 1zM5.637 19.777l2.83-2.83c0.391-0.391 0.391-1.024 0-1.414s-1.024-0.391-1.414 0l-2.83 2.83c-0.391 0.391-0.391 1.024 0 1.414s1.024 0.391 1.414 0zM16.947 8.467l2.83-2.83c0.391-0.391 0.391-1.024 0-1.414s-1.024-0.391-1.414 0l-2.83 2.83c-0.391 0.391-0.391 1.024 0 1.414s1.024 0.391 1.414 0z"></path>
</svg>
</svg>
