<?xml version="1.0" encoding="utf-8"?>
<!-- Generated by IcoMoon.io -->
<svg version="1.1" xmlns="http://www.w3.org/2000/svg" xmlns:xlink="http://www.w3.org/1999/xlink" width="528" height="776" viewBox="0 0 528 776">
<svg id="icon-key" width="18" height="18" viewBox="0 0 18 18" x="0" y="0">
<path d="M15.922 4.252c-0.453-2.679-2.898-4.47-5.462-3.997s-4.73 2.534-4.278 5.215c0.096 0.577 0.367 1.48 0.687 2.128l-4.657 6.951c-0.172 0.256-0.269 0.719-0.218 1.027l0.3 1.774c0.052 0.308 0.335 0.515 0.63 0.463l1.364-0.253c0.295-0.053 0.67-0.313 0.832-0.575l1.842-2.98 0.016-0.020 1.247-0.23 2.151-3.491c0.707 0.125 1.721 0.083 2.32-0.028 2.563-0.473 3.678-3.303 3.226-5.984zM13.649 5.627c-0.706 1.053-1.426 0.311-2.433-0.427-1.007-0.736-1.921-1.19-1.217-2.243s2.093-1.309 3.102-0.571c1.008 0.737 1.252 2.189 0.547 3.242z"></path>
</svg>
<svg id="icon-location-current" width="18" height="18" viewBox="0 0 18 18" x="34" y="0">
<path d="M0 0l18 7.2-7.2 3.6-1.8 7.2z"></path>
</svg>
<svg id="icon-add-outline" width="18" height="18" viewBox="0 0 18 18" x="68" y="0">
<path d="M9.9 8.1h3.6v1.8h-3.6v3.6h-1.8v-3.6h-3.6v-1.8h3.6v-3.6h1.8v3.6zM9 18c-4.971 0-9-4.029-9-9s4.029-9 9-9v0c4.971 0 9 4.029 9 9s-4.029 9-9 9v0zM9 16.2c3.976 0 7.2-3.224 7.2-7.2s-3.224-7.2-7.2-7.2v0c-3.976 0-7.2 3.224-7.2 7.2s3.224 7.2 7.2 7.2v0z"></path>
</svg>
<svg id="icon-home1" width="17" height="18" viewBox="0 0 17 18" x="0" y="34">
<path d="M14.143 9.964v4.821c0 0.352-0.291 0.643-0.643 0.643h-3.857v-3.857h-2.571v3.857h-3.857c-0.352 0-0.643-0.291-0.643-0.643v-4.821c0-0.020 0.010-0.040 0.010-0.060l5.776-4.761 5.776 4.761c0.010 0.020 0.010 0.040 0.010 0.060zM16.383 9.271l-0.623 0.743c-0.050 0.060-0.131 0.1-0.211 0.11h-0.030c-0.080 0-0.151-0.020-0.211-0.070l-6.951-5.796-6.951 5.796c-0.070 0.050-0.151 0.080-0.241 0.070-0.080-0.010-0.161-0.050-0.211-0.11l-0.623-0.743c-0.11-0.131-0.090-0.342 0.040-0.452l7.222-6.017c0.422-0.352 1.105-0.352 1.527 0l2.451 2.049v-1.959c0-0.181 0.141-0.321 0.321-0.321h1.929c0.181 0 0.321 0.141 0.321 0.321v4.098l2.2 1.828c0.131 0.11 0.151 0.321 0.040 0.452z"></path>
</svg>
<svg id="icon-bars" width="15" height="18" viewBox="0 0 15 18" x="34" y="34">
<path d="M15.429 13.5v1.286c0 0.352-0.291 0.643-0.643 0.643h-14.143c-0.352 0-0.643-0.291-0.643-0.643v-1.286c0-0.352 0.291-0.643 0.643-0.643h14.143c0.352 0 0.643 0.291 0.643 0.643zM15.429 8.357v1.286c0 0.352-0.291 0.643-0.643 0.643h-14.143c-0.352 0-0.643-0.291-0.643-0.643v-1.286c0-0.352 0.291-0.643 0.643-0.643h14.143c0.352 0 0.643 0.291 0.643 0.643zM15.429 3.214v1.286c0 0.352-0.291 0.643-0.643 0.643h-14.143c-0.352 0-0.643-0.291-0.643-0.643v-1.286c0-0.352 0.291-0.643 0.643-0.643h14.143c0.352 0 0.643 0.291 0.643 0.643z"></path>
</svg>
<svg id="icon-tripadvisor" width="23" height="18" viewBox="0 0 23 18" x="68" y="34">
<path d="M6.539 10.015c0 0.522-0.422 0.944-0.934 0.944-0.522 0-0.944-0.422-0.944-0.944 0-0.512 0.422-0.934 0.944-0.934 0.512 0 0.934 0.422 0.934 0.934zM18.131 10.004c0 0.522-0.422 0.944-0.944 0.944s-0.944-0.422-0.944-0.944 0.422-0.934 0.944-0.934 0.944 0.412 0.944 0.934zM7.684 10.015c0-1.065-0.874-1.939-1.939-1.939-1.075 0-1.939 0.874-1.939 1.939 0 1.075 0.864 1.939 1.939 1.939 1.065 0 1.939-0.864 1.939-1.939zM19.266 10.004c0-1.065-0.864-1.939-1.939-1.939-1.065 0-1.939 0.874-1.939 1.939 0 1.075 0.874 1.939 1.939 1.939 1.075 0 1.939-0.864 1.939-1.939zM8.538 10.015c0 1.547-1.246 2.802-2.792 2.802s-2.802-1.256-2.802-2.802c0-1.537 1.256-2.792 2.802-2.792s2.792 1.256 2.792 2.792zM20.129 10.004c0 1.547-1.256 2.792-2.802 2.792-1.537 0-2.792-1.246-2.792-2.792s1.256-2.792 2.792-2.792c1.547 0 2.802 1.246 2.802 2.792zM10.446 10.035c0-2.561-2.079-4.641-4.641-4.641-2.551 0-4.631 2.079-4.631 4.641s2.079 4.641 4.631 4.641c2.561 0 4.641-2.079 4.641-4.641zM17.156 4.279c-1.657-0.723-3.526-1.115-5.585-1.115s-4.108 0.392-5.756 1.105c3.184 0.010 5.756 2.581 5.756 5.766 0-3.124 2.481-5.665 5.585-5.756zM21.968 10.035c0-2.561-2.069-4.641-4.631-4.641s-4.641 2.079-4.641 4.641 2.079 4.641 4.641 4.641 4.631-2.079 4.631-4.641zM19.296 4.349h3.847c-0.603 0.703-1.045 1.647-1.155 2.3 0.693 0.954 1.105 2.119 1.105 3.385 0 3.184-2.581 5.756-5.756 5.756-1.808 0-3.415-0.824-4.47-2.119 0 0-0.472 0.563-1.296 1.798-0.141-0.291-0.854-1.306-1.286-1.808-1.055 1.306-2.672 2.129-4.48 2.129-3.174 0-5.756-2.571-5.756-5.756 0-1.266 0.412-2.431 1.105-3.385-0.11-0.653-0.552-1.597-1.155-2.3h3.666c1.969-1.316 4.831-2.14 7.905-2.14s5.756 0.824 7.724 2.14z"></path>
</svg>
<svg id="icon-monitor" width="18" height="18" viewBox="0 0 18 18" x="0" y="68">
<path d="M9.563 14.028h-1.688v0.879l-1.688 0.281v0.563h5.028v-0.528l-1.653-0.316v-0.879zM15.188 2.25h-12.938c-0.622 0-1.125 0.503-1.125 1.125v7.875c0 0.621 0.503 1.125 1.125 1.125h12.938c0.622 0 1.125-0.504 1.125-1.125v-7.875c0-0.622-0.503-1.125-1.125-1.125zM8.648 11.531c-0.31 0-0.563-0.252-0.563-0.563s0.252-0.563 0.563-0.563c0.311 0 0.563 0.251 0.563 0.563s-0.252 0.563-0.563 0.563zM15.188 9.563h-12.938v-6.188h12.938v6.188z"></path>
</svg>
<svg id="icon-wallet" width="18" height="18" viewBox="0 0 18 18" x="34" y="68">
<path d="M10.125 12.375c-0.621 0-1.125-0.504-1.125-1.125v-1.125c0-0.622 0.504-1.125 1.125-1.125h6.75v3.375h-6.75zM10.969 9.89c-0.466 0-0.844 0.378-0.844 0.844s0.378 0.844 0.844 0.844c0.466 0 0.844-0.377 0.844-0.844s-0.377-0.844-0.844-0.844zM8.438 10.125v1.125c0 0.931 0.756 1.688 1.688 1.688h5.625v2.25c0 0.931-0.755 1.688-1.688 1.688h-11.813c-0.931 0-1.688-0.756-1.688-1.688v-10.688c0-0.932 0.756-1.688 1.688-1.688h5.418l-1.321 0.551h-4.377c-0.466 0-0.844 0.378-0.844 0.844s0.378 0.844 0.844 0.844h13.781v3.387h-5.625c-0.931 0-1.688 0.755-1.688 1.688zM2.813 6.188h-1.125v1.125h0.562v-0.563h0.563v-0.563zM2.813 7.875h-1.125v1.125h0.586l-0.023-0.563 0.563 0.012v-0.574zM2.813 9.563h-1.125v1.125h0.574l-0.012-0.563h0.563v-0.563zM2.813 11.25h-1.125v1.125h0.574l-0.012-0.563 0.563 0.012v-0.574zM2.813 12.938h-1.125v1.125h0.562v-0.563h0.563v-0.563zM2.813 14.625h-1.125v1.125h0.574l-0.012-0.551h0.563v-0.574zM5.063 4.465l6.609-2.778 1.266 2.778h-7.875zM12.738 2.813h1.324c0.493 0 0.931 0.214 1.24 0.551h-2.296l-0.269-0.551z"></path>
</svg>
<svg id="icon-moneybag" width="18" height="18" viewBox="0 0 18 18" x="68" y="68">
<path d="M7.885 5.232h2.213v-0.83h-2.213v0.83zM10.081 5.509h-2.197c0 0-3.614 3.562-3.614 7.055 0 3.701 3.787 3.995 3.787 3.995s1.129 0.187 1.832 0c0 0 3.84-0.45 3.84-3.977 0.001-3.528-3.648-7.073-3.648-7.073zM10.244 13.007c-0.089 0.18-0.209 0.331-0.362 0.451s-0.331 0.211-0.534 0.272c-0.026 0.008-0.054 0.011-0.080 0.017v0.614h-0.553v-0.542c-0.007 0.001-0.013 0.002-0.020 0.002-0.157 0-0.303-0.012-0.438-0.038s-0.253-0.057-0.357-0.092c-0.103-0.036-0.19-0.074-0.258-0.113s-0.119-0.074-0.15-0.105c-0.031-0.030-0.052-0.074-0.065-0.132s-0.019-0.14-0.019-0.248c0-0.073 0.002-0.133 0.007-0.183s0.012-0.089 0.023-0.12c0.011-0.031 0.024-0.052 0.042-0.065s0.038-0.019 0.061-0.019c0.033 0 0.079 0.019 0.139 0.058s0.136 0.082 0.23 0.128c0.094 0.047 0.205 0.089 0.336 0.129 0.13 0.038 0.281 0.058 0.452 0.058 0.112 0 0.213-0.014 0.302-0.040s0.165-0.065 0.227-0.114c0.062-0.050 0.11-0.11 0.142-0.183s0.050-0.154 0.050-0.244c0-0.103-0.029-0.191-0.084-0.266s-0.13-0.139-0.22-0.197c-0.090-0.057-0.192-0.111-0.307-0.161s-0.233-0.104-0.355-0.16c-0.122-0.056-0.24-0.12-0.355-0.192s-0.218-0.156-0.308-0.256-0.163-0.218-0.22-0.353c-0.056-0.136-0.084-0.299-0.084-0.488 0-0.218 0.040-0.409 0.121-0.574s0.19-0.302 0.327-0.411c0.137-0.109 0.299-0.19 0.485-0.244 0.096-0.028 0.195-0.048 0.296-0.061v-0.582h0.553v0.582c0.022 0.003 0.044 0.002 0.066 0.005 0.107 0.016 0.209 0.038 0.302 0.066s0.177 0.059 0.249 0.094 0.121 0.064 0.144 0.087c0.024 0.023 0.039 0.043 0.048 0.059 0.008 0.016 0.014 0.038 0.021 0.065 0.006 0.027 0.010 0.061 0.012 0.102 0.002 0.040 0.003 0.092 0.003 0.152 0 0.068-0.002 0.126-0.006 0.173s-0.009 0.086-0.017 0.116c-0.008 0.031-0.020 0.053-0.035 0.067s-0.035 0.021-0.061 0.021c-0.025 0-0.067-0.016-0.123-0.048s-0.125-0.068-0.206-0.106c-0.082-0.038-0.177-0.073-0.285-0.105s-0.227-0.047-0.355-0.047c-0.101 0-0.189 0.012-0.264 0.037s-0.138 0.059-0.188 0.101c-0.050 0.043-0.088 0.096-0.112 0.156s-0.037 0.125-0.037 0.192c0 0.101 0.028 0.188 0.082 0.262s0.129 0.139 0.222 0.197c0.092 0.058 0.197 0.111 0.315 0.161s0.236 0.104 0.358 0.16c0.122 0.057 0.241 0.12 0.358 0.192s0.222 0.157 0.313 0.256 0.165 0.217 0.221 0.351c0.056 0.135 0.084 0.293 0.084 0.476-0.001 0.237-0.046 0.447-0.134 0.627zM10.064 4.125l1.124-2.767c0 0-0.709 0.588-1.124 0.588s-1.073-0.571-1.073-0.571-0.709 0.571-1.124 0.571c-0.415 0-1.090-0.553-1.090-0.553l1.141 2.732h2.145z"></path>
</svg>
<svg id="icon-dollar" width="21" height="18" viewBox="0 0 21 18" x="102" y="68">
<path d="M20.251 12.943l0.032-9.613-17.466 0.011-0.001-1.103h18.558v10.705l-1.124-0.001zM19.685 14.635l-1.123-0.001 0.032-9.613-17.466 0.011-0.001-1.102h18.558v10.705zM18.030 15.761h-18.030v-10.142h18.030v10.142zM16.903 6.711h-15.776v7.923h15.775v-7.923zM15.213 13.79c0 0.1 0.025 0.192 0.057 0.281h-6.255c1.556 0 2.818-1.513 2.818-3.381s-1.262-3.381-2.818-3.381h6.254c-0.032 0.089-0.057 0.182-0.057 0.282 0 0.467 0.378 0.845 0.845 0.845 0.1 0 0.193-0.025 0.282-0.057v4.621c-0.089-0.031-0.182-0.057-0.282-0.057-0.466 0.001-0.844 0.379-0.844 0.846zM14.086 9.517c-0.467 0-0.845 0.504-0.845 1.127s0.378 1.127 0.845 1.127 0.845-0.504 0.845-1.127-0.378-1.127-0.845-1.127zM10.194 8.659c0.008 0.016 0.015 0.038 0.021 0.065s0.010 0.061 0.012 0.102c0.003 0.041 0.004 0.092 0.004 0.154 0 0.068-0.002 0.126-0.005 0.173s-0.010 0.086-0.017 0.116c-0.009 0.031-0.020 0.053-0.035 0.067s-0.036 0.021-0.062 0.021-0.066-0.016-0.123-0.049c-0.057-0.033-0.126-0.068-0.208-0.106s-0.177-0.074-0.285-0.105-0.226-0.047-0.356-0.047c-0.101 0-0.189 0.012-0.264 0.037s-0.138 0.059-0.188 0.102c-0.051 0.043-0.088 0.096-0.113 0.156s-0.037 0.125-0.037 0.193c0 0.101 0.028 0.188 0.083 0.263s0.129 0.14 0.222 0.197c0.093 0.058 0.198 0.111 0.315 0.162s0.237 0.104 0.359 0.16c0.122 0.057 0.242 0.12 0.359 0.192s0.222 0.157 0.313 0.256c0.092 0.1 0.166 0.217 0.222 0.352s0.084 0.294 0.084 0.477c0 0.239-0.045 0.449-0.134 0.629s-0.21 0.332-0.363 0.453-0.331 0.212-0.535 0.272c-0.026 0.008-0.054 0.011-0.080 0.017v0.615h-0.554v-0.543c-0.007 0-0.014 0.002-0.021 0.002-0.157 0-0.303-0.013-0.438-0.038s-0.254-0.057-0.357-0.092c-0.103-0.036-0.19-0.074-0.259-0.114s-0.119-0.074-0.15-0.105-0.052-0.074-0.065-0.132-0.020-0.141-0.020-0.249c0-0.073 0.002-0.134 0.007-0.183s0.012-0.089 0.023-0.12c0.011-0.030 0.025-0.052 0.042-0.065s0.038-0.019 0.061-0.019c0.033 0 0.079 0.019 0.139 0.058 0.060 0.038 0.137 0.082 0.231 0.128s0.206 0.089 0.336 0.128c0.13 0.039 0.281 0.058 0.452 0.058 0.112 0 0.214-0.014 0.303-0.040s0.165-0.065 0.227-0.114c0.062-0.050 0.109-0.111 0.142-0.183s0.050-0.154 0.050-0.244c0-0.104-0.029-0.192-0.084-0.266s-0.129-0.14-0.22-0.197c-0.091-0.057-0.193-0.111-0.308-0.161s-0.233-0.104-0.355-0.16c-0.122-0.056-0.241-0.12-0.356-0.192s-0.218-0.157-0.308-0.257c-0.090-0.1-0.164-0.218-0.22-0.353s-0.084-0.299-0.084-0.489c0-0.218 0.040-0.41 0.121-0.575s0.19-0.303 0.327-0.412c0.137-0.109 0.299-0.191 0.485-0.245 0.096-0.028 0.195-0.048 0.296-0.061v-0.582h0.554v0.582c0.022 0.003 0.044 0.002 0.066 0.005 0.108 0.016 0.209 0.038 0.303 0.066s0.177 0.059 0.249 0.095c0.073 0.035 0.121 0.064 0.145 0.087 0.022 0.021 0.038 0.040 0.046 0.057zM6.198 10.69c0 1.867 1.261 3.381 2.817 3.381h-6.254c0.032-0.089 0.057-0.182 0.057-0.281 0-0.467-0.379-0.845-0.845-0.845-0.1 0-0.193 0.025-0.282 0.057v-4.621c0.089 0.032 0.182 0.057 0.282 0.057 0.467 0 0.845-0.378 0.845-0.845 0-0.1-0.025-0.193-0.057-0.282h6.254c-1.556-0.001-2.817 1.513-2.817 3.38zM3.944 9.517c-0.467 0-0.845 0.504-0.845 1.127s0.379 1.127 0.845 1.127c0.467 0 0.845-0.504 0.845-1.127s-0.378-1.127-0.845-1.127z"></path>
</svg>
<svg id="icon-coins" width="18" height="18" viewBox="0 0 18 18" x="136" y="68">
<path d="M16.031 12.938h-6.888c0.202-0.348 0.357-0.726 0.459-1.125h6.429c0.311 0 0.563 0.251 0.563 0.563s-0.251 0.563-0.563 0.563zM16.031 11.25h-6.32c0.023-0.184 0.039-0.372 0.039-0.563s-0.016-0.378-0.039-0.563h6.32c0.311 0 0.563 0.251 0.563 0.563s-0.251 0.563-0.563 0.563zM16.031 9.563h-6.429c-0.103-0.399-0.257-0.777-0.459-1.125h6.888c0.311 0 0.563 0.251 0.563 0.563s-0.251 0.563-0.563 0.563zM16.031 7.875h-7.272c-0.366-0.456-0.817-0.84-1.333-1.125h8.605c0.311 0 0.563 0.251 0.563 0.563s-0.251 0.563-0.563 0.563zM16.031 6.188h-9c-0.311 0-0.563-0.252-0.563-0.563s0.251-0.563 0.563-0.563h9c0.311 0 0.563 0.251 0.563 0.563s-0.251 0.563-0.563 0.563zM16.031 4.5h-9c-0.311 0-0.563-0.252-0.563-0.563s0.251-0.563 0.563-0.563h9c0.311 0 0.563 0.251 0.563 0.563s-0.251 0.563-0.563 0.563zM9.281 10.688c0 2.175-1.763 3.938-3.938 3.938s-3.938-1.763-3.938-3.938 1.763-3.938 3.938-3.938c2.174 0 3.938 1.763 3.938 3.938zM6.738 11.116c-0.057-0.134-0.13-0.251-0.222-0.351s-0.196-0.185-0.313-0.256c-0.117-0.071-0.236-0.135-0.358-0.192s-0.241-0.109-0.358-0.16c-0.117-0.050-0.222-0.104-0.314-0.161s-0.166-0.123-0.222-0.197c-0.055-0.074-0.083-0.161-0.083-0.262 0-0.068 0.012-0.132 0.037-0.192s0.062-0.112 0.112-0.156c0.050-0.043 0.113-0.077 0.188-0.101s0.163-0.037 0.264-0.037c0.129 0 0.247 0.015 0.355 0.047s0.202 0.066 0.285 0.105c0.082 0.038 0.151 0.074 0.208 0.106s0.097 0.048 0.123 0.048 0.046-0.007 0.061-0.021c0.015-0.014 0.027-0.036 0.035-0.067s0.013-0.069 0.017-0.116c0.003-0.047 0.005-0.105 0.005-0.173 0-0.061-0.001-0.112-0.003-0.152s-0.007-0.075-0.012-0.102c-0.006-0.027-0.013-0.049-0.021-0.065-0.009-0.016-0.024-0.036-0.048-0.059s-0.071-0.053-0.144-0.087c-0.073-0.035-0.156-0.066-0.249-0.094s-0.195-0.050-0.302-0.066c-0.022-0.003-0.044-0.002-0.066-0.005v-0.582h-0.553v0.582c-0.102 0.013-0.2 0.034-0.296 0.061-0.186 0.054-0.348 0.135-0.485 0.244s-0.246 0.246-0.327 0.411c-0.081 0.165-0.121 0.357-0.121 0.574 0 0.19 0.028 0.353 0.084 0.488s0.129 0.254 0.22 0.353c0.091 0.1 0.192 0.184 0.307 0.256s0.233 0.136 0.355 0.192c0.122 0.056 0.24 0.109 0.355 0.16s0.217 0.105 0.307 0.161c0.091 0.058 0.164 0.123 0.22 0.197s0.084 0.163 0.084 0.266c0 0.089-0.016 0.17-0.049 0.244s-0.080 0.133-0.142 0.183c-0.062 0.050-0.137 0.087-0.226 0.114s-0.19 0.040-0.303 0.040c-0.171 0-0.322-0.019-0.452-0.058s-0.242-0.082-0.336-0.129c-0.094-0.047-0.17-0.089-0.23-0.128-0.060-0.038-0.106-0.058-0.139-0.058-0.024 0-0.044 0.007-0.061 0.019-0.018 0.013-0.032 0.035-0.042 0.065s-0.018 0.070-0.023 0.12-0.007 0.11-0.007 0.183c0 0.108 0.007 0.191 0.019 0.248s0.035 0.102 0.065 0.132c0.030 0.030 0.080 0.065 0.149 0.105s0.155 0.077 0.258 0.113c0.103 0.035 0.222 0.066 0.357 0.092s0.281 0.038 0.438 0.038c0.007 0 0.013-0.001 0.020-0.001v0.542h0.553v-0.614c0.026-0.007 0.055-0.010 0.080-0.017 0.204-0.061 0.382-0.152 0.534-0.272s0.273-0.271 0.362-0.451c0.089-0.181 0.133-0.39 0.133-0.629 0.001-0.182-0.028-0.34-0.083-0.475zM8.759 13.5h7.272c0.311 0 0.563 0.251 0.563 0.563s-0.251 0.563-0.563 0.563h-8.605c0.515-0.285 0.967-0.669 1.333-1.125z"></path>
</svg>
<svg id="icon-pig" width="18" height="18" viewBox="0 0 18 18" x="170" y="68">
<path d="M13.879 12.324c0 0 1.873-1.281 1.873-3.809 0-3.762-3.987-5.153-6.131-5.116s-2.783 0.602-2.783 0.602-0.73-0.53-1.503-0.975c-0.592-0.231-0.729-0.264-1.14-0.132-0.329 0-0.122 0.548 0.010 0.745 0.131 0.197 0.768 1.288 0.768 1.288s-1.338 1.378-1.437 2.283c0-0.016-0.63-0.005-0.975-0.005s-0.313 0.376-0.313 0.376l0.010 2.652c0 0-0.021 0.376 0.292 0.376s0.978 0.007 0.978 0.007 0.935 1.358 1.528 1.605c0 0.016-0.512 1.408-0.512 1.408s-0.247 0.428 0.197 0.593c0.444 0.164 1.604 0.651 2.098 0.799s0.564-0.188 0.564-0.188l0.489-1.056 3.198 0.005 0.489 1.088c0 0 0.094 0.505 0.752 0.226s1.378-0.611 1.921-0.891c0.543-0.28 0.186-0.802 0.186-0.802l-0.558-1.082zM5.244 7.742c-0.3 0-0.543-0.244-0.543-0.543s0.243-0.543 0.543-0.543 0.543 0.243 0.543 0.543-0.244 0.543-0.543 0.543zM12.895 6.050c-0.173 0.205-0.286 0.054-0.426 0.013 0 0-0.591-0.548-1.46-0.804-0.899-0.264-1.846-0.137-1.846-0.137-0.139-0.041-0.309-0.046-0.31-0.261 0.007-0.266 0.33-0.268 0.326-0.277 0 0 1.065-0.098 1.957 0.164 0.877 0.258 1.547 0.818 1.547 0.818s0.358 0.247 0.212 0.485z"></path>
</svg>
<svg id="icon-t-shirt" width="18" height="18" viewBox="0 0 18 18" x="204" y="68">
<path d="M17.578 3.621l-2.813-2.25c-0.2-0.16-0.448-0.246-0.703-0.246h-10.125c-0.255 0-0.503 0.087-0.703 0.246l-2.813 2.25c-0.368 0.295-0.513 0.787-0.364 1.235l1.125 3.375c0.111 0.332 0.371 0.595 0.703 0.708 0.118 0.040 0.242 0.061 0.365 0.061 0.196 0 0.39-0.051 0.563-0.151v6.901c0 0.621 0.504 1.125 1.125 1.125h10.125c0.621 0 1.125-0.504 1.125-1.125v-6.901c0.173 0.1 0.367 0.151 0.563 0.151 0.123 0 0.246-0.020 0.364-0.061 0.332-0.114 0.591-0.376 0.702-0.708l1.125-3.375c0.15-0.447 0.005-0.94-0.363-1.235zM11.112 2.25c-0.311 0.653-1.135 1.125-2.112 1.125s-1.801-0.472-2.112-1.125h4.223zM15.75 7.875l-1.688-1.125v9h-10.125v-9l-1.688 1.125-1.125-3.375 2.813-2.25h2.35c0.313 0.969 1.404 1.688 2.713 1.688s2.4-0.719 2.712-1.688h2.35l2.813 2.25-1.125 3.375z"></path>
</svg>
<svg id="icon-lightbulb" width="18" height="18" viewBox="0 0 18 18" x="0" y="102">
<path d="M9 1.512q2.18 0 3.709 1.529t1.529 3.709q0 2.637-2.25 4.289v1.723q0 0.316-0.211 0.527t-0.527 0.211h-4.5q-0.316 0-0.527-0.211t-0.211-0.527v-1.723q-2.25-1.547-2.25-4.289 0-2.18 1.529-3.709t3.709-1.529zM6.75 15.75v-0.738h4.5v0.738q0 0.316-0.211 0.527t-0.527 0.211h-3.023q-0.316 0-0.527-0.211t-0.211-0.527z"></path>
</svg>
<svg id="icon-create" width="18" height="18" viewBox="0 0 18 18" x="34" y="102">
<path d="M15.539 5.273l-1.371 1.371-2.813-2.813 1.371-1.371q0.211-0.211 0.527-0.211t0.527 0.211l1.758 1.758q0.211 0.211 0.211 0.527t-0.211 0.527zM2.25 12.938l8.297-8.297 2.813 2.813-8.297 8.297h-2.813v-2.813z"></path>
</svg>
<svg id="icon-airplanemode_on" width="18" height="18" viewBox="0 0 18 18" x="68" y="102">
<path d="M15.75 11.988l-6.012-1.863v4.113l1.512 1.125v1.125l-2.637-0.738-2.602 0.738v-1.125l1.477-1.125v-4.113l-5.977 1.863v-1.477l5.977-3.762v-4.113q0-0.457 0.334-0.791t0.791-0.334 0.791 0.334 0.334 0.791v4.113l6.012 3.762v1.477z"></path>
</svg>
<svg id="icon-insert_chart" width="18" height="18" viewBox="0 0 18 18" x="102" y="102">
<path d="M12.762 12.762v-3.023h-1.512v3.023h1.512zM9.738 12.762v-7.523h-1.477v7.523h1.477zM6.75 12.762v-5.273h-1.512v5.273h1.512zM14.238 2.25q0.598 0 1.055 0.457t0.457 1.055v10.477q0 0.598-0.457 1.055t-1.055 0.457h-10.477q-0.598 0-1.055-0.457t-0.457-1.055v-10.477q0-0.598 0.457-1.055t1.055-0.457h10.477z"></path>
</svg>
<svg id="icon-insert_chart_outlined" width="18" height="18" viewBox="0 0 18 18" x="136" y="102">
<path d="M14.625 2.25q0.598 0 1.055 0.457t0.457 1.055v10.477q0 0.598-0.457 1.055t-1.055 0.457h-11.25q-0.598 0-1.055-0.457t-0.457-1.055v-10.477q0-0.598 0.457-1.055t1.055-0.457h11.25zM14.625 14.309v-10.547h-11.25v10.547h11.25zM12.762 12.762h-1.512v-3.023h1.512v3.023zM9.738 12.762h-1.477v-7.523h1.477v7.523zM6.75 12.762h-1.512v-5.273h1.512v5.273z"></path>
</svg>
<svg id="icon-laptop_chromebook" width="18" height="18" viewBox="0 0 18 18" x="170" y="102">
<path d="M15.012 11.25v-7.488h-12.023v7.488h12.023zM10.512 13.5v-0.738h-3.023v0.738h3.023zM16.488 13.5h1.512v1.512h-18v-1.512h1.512v-11.25h14.977v11.25z"></path>
</svg>
<svg id="icon-directions_car" width="18" height="18" viewBox="0 0 18 18" x="204" y="102">
<path d="M3.762 8.262h10.477l-1.125-3.375h-8.227zM13.113 11.988q0.457 0 0.791-0.334t0.334-0.791-0.334-0.791-0.791-0.334-0.791 0.334-0.334 0.791 0.334 0.791 0.791 0.334zM4.887 11.988q0.457 0 0.791-0.334t0.334-0.791-0.334-0.791-0.791-0.334-0.791 0.334-0.334 0.791 0.334 0.791 0.791 0.334zM14.203 4.5l1.547 4.5v6.012q0 0.316-0.211 0.527t-0.527 0.211h-0.773q-0.316 0-0.527-0.211t-0.211-0.527v-0.773h-9v0.773q0 0.316-0.211 0.527t-0.527 0.211h-0.773q-0.316 0-0.527-0.211t-0.211-0.527v-6.012l1.547-4.5q0.211-0.738 1.090-0.738h8.227q0.879 0 1.090 0.738z"></path>
</svg>
<svg id="icon-directions_subway" width="18" height="18" viewBox="0 0 18 18" x="238" y="102">
<path d="M13.5 8.262v-3.762h-3.762v3.762h3.762zM12.375 12.762q0.492 0 0.809-0.334t0.316-0.791-0.316-0.791-0.809-0.334-0.809 0.334-0.316 0.791 0.316 0.791 0.809 0.334zM8.262 8.262v-3.762h-3.762v3.762h3.762zM5.625 12.762q0.492 0 0.809-0.334t0.316-0.791-0.316-0.791-0.809-0.334-0.809 0.334-0.316 0.791 0.316 0.791 0.809 0.334zM9 1.512q2.918 0 4.465 0.598t1.547 2.391v7.137q0 1.090-0.773 1.846t-1.863 0.756l1.125 1.125v0.387h-9v-0.387l1.125-1.125q-1.090 0-1.863-0.756t-0.773-1.846v-7.137q0-1.793 1.547-2.391t4.465-0.598z"></path>
</svg>
<svg id="icon-local_cafe" width="18" height="18" viewBox="0 0 18 18" x="272" y="102">
<path d="M2.988 14.238h12.023v1.512h-12.023v-1.512zM15.012 6.012v-2.25h-1.512v2.25h1.512zM15.012 2.25q0.633 0 1.055 0.439t0.422 1.072v2.25q0 0.633-0.422 1.055t-1.055 0.422h-1.512v2.25q0 1.23-0.879 2.127t-2.109 0.896h-4.5q-1.23 0-2.127-0.896t-0.896-2.127v-7.488h12.023z"></path>
</svg>
<svg id="icon-local_parking" width="18" height="18" viewBox="0 0 18 18" x="306" y="102">
<path d="M9.914 8.262q0.598 0 1.037-0.457t0.439-1.055-0.439-1.055-1.037-0.457h-2.426v3.023h2.426zM9.738 2.25q1.863 0 3.182 1.318t1.318 3.182-1.318 3.182-3.182 1.318h-2.25v4.5h-2.988v-13.5h5.238z"></path>
</svg>
<svg id="icon-local_restaurant" width="18" height="18" viewBox="0 0 18 18" x="340" y="102">
<path d="M11.145 8.648l-1.090 1.090 5.168 5.168-1.055 1.055-5.168-5.168-5.168 5.168-1.055-1.055 7.313-7.313q-0.422-0.844-0.123-1.969t1.178-2.004q1.090-1.090 2.426-1.248t2.145 0.65 0.65 2.162-1.248 2.443q-0.879 0.879-2.004 1.16t-1.969-0.141zM6.082 10.020l-3.164-3.164q-0.879-0.879-0.879-2.109t0.879-2.109l5.273 5.238z"></path>
</svg>
<svg id="icon-local_taxi" width="18" height="18" viewBox="0 0 18 18" x="374" y="102">
<path d="M3.762 8.262h10.477l-1.125-3.375h-8.227zM13.113 11.988q0.457 0 0.791-0.334t0.334-0.791-0.334-0.791-0.791-0.334-0.791 0.334-0.334 0.791 0.334 0.791 0.791 0.334zM4.887 11.988q0.457 0 0.791-0.334t0.334-0.791-0.334-0.791-0.791-0.334-0.791 0.334-0.334 0.791 0.334 0.791 0.791 0.334zM14.203 4.5l1.547 4.5v6.012q0 0.316-0.211 0.527t-0.527 0.211h-0.773q-0.316 0-0.527-0.211t-0.211-0.527v-0.773h-9v0.773q0 0.316-0.211 0.527t-0.527 0.211h-0.773q-0.316 0-0.527-0.211t-0.211-0.527v-6.012l1.547-4.5q0.211-0.738 1.090-0.738h1.863v-1.512h4.5v1.512h1.863q0.879 0 1.090 0.738z"></path>
</svg>
<svg id="icon-restaurant" width="18" height="18" viewBox="0 0 18 18" x="408" y="102">
<path d="M11.988 4.5q0-1.055 1.143-2.021t2.619-0.967v14.977h-1.863v-5.977h-1.898v-6.012zM8.262 6.75v-5.238h1.477v5.238q0 1.195-0.809 2.057t-2.004 0.932v6.75h-1.863v-6.75q-1.195-0.070-2.004-0.932t-0.809-2.057v-5.238h1.512v5.238h1.477v-5.238h1.512v5.238h1.512z"></path>
</svg>
<svg id="icon-train" width="18" height="18" viewBox="0 0 18 18" x="442" y="102">
<path d="M12.375 12.762q0.492 0 0.809-0.334t0.316-0.791-0.316-0.791-0.809-0.334-0.809 0.334-0.316 0.791 0.316 0.791 0.809 0.334zM9.738 7.488h3.762v-2.988h-3.762v2.988zM8.262 7.488v-2.988h-3.762v2.988h3.762zM5.625 12.762q0.492 0 0.809-0.334t0.316-0.791-0.316-0.791-0.809-0.334-0.809 0.334-0.316 0.791 0.316 0.791 0.809 0.334zM9 1.512q2.918 0 4.465 0.598t1.547 2.391v7.137q0 1.090-0.773 1.846t-1.863 0.756l1.125 1.125v0.387h-1.512l-1.477-1.512h-2.848l-1.477 1.512h-1.688v-0.387l1.125-1.125q-1.090 0-1.863-0.756t-0.773-1.846v-7.137q0-0.949 0.492-1.582t1.424-0.914 1.863-0.387 2.232-0.105z"></path>
</svg>
<svg id="icon-fastfood" width="18" height="18" viewBox="0 0 18 18" x="476" y="102">
<path d="M0.773 12.762h11.25v1.477h-11.25v-1.477zM12.023 11.25h-11.285q0-1.723 1.16-2.883t2.813-1.441 3.322 0 2.83 1.441 1.16 2.883zM0.738 16.488v-0.738h11.285v0.738q0 0.316-0.229 0.527t-0.545 0.211h-9.738q-0.316 0-0.545-0.211t-0.229-0.527zM13.535 17.227v-6.012q0-2.215-1.828-3.973-1.090-1.090-3.199-1.688l-0.211-1.758h3.727v-3.059h1.477v3.059h3.762l-1.266 12.34q-0.070 0.457-0.404 0.773t-0.791 0.316h-1.266z"></path>
</svg>
<svg id="icon-add_shopping_cart" width="18" height="18" viewBox="0 0 18 18" x="510" y="102">
<path d="M5.379 11.074q0 0.176 0.176 0.176h8.684v1.512h-9q-0.598 0-1.037-0.457t-0.439-1.055q0-0.352 0.176-0.703l1.020-1.863-2.707-5.695h-1.512v-1.477h2.461q0.703 1.477 1.406 2.988 0.176 0.316 0.809 1.67t0.984 2.092h5.273q2.637-4.781 2.883-5.273l1.301 0.738-2.883 5.238q-0.422 0.773-1.301 0.773h-5.59l-0.668 1.23zM12.762 13.5q0.598 0 1.037 0.457t0.439 1.055-0.439 1.037-1.037 0.439-1.055-0.439-0.457-1.037 0.457-1.055 1.055-0.457zM5.238 13.5q0.598 0 1.055 0.457t0.457 1.055-0.457 1.037-1.055 0.439-1.037-0.439-0.439-1.037 0.439-1.055 1.037-0.457zM8.262 6.75v-2.25h-2.25v-1.512h2.25v-2.25h1.477v2.25h2.25v1.512h-2.25v2.25h-1.477z"></path>
</svg>
<svg id="icon-hourglass_full" width="18" height="18" viewBox="0 0 18 18" x="0" y="136">
<path d="M4.5 1.512h9v4.5l-2.988 2.988 2.988 2.988v4.5h-9v-4.5l2.988-2.988-2.988-2.988v-4.5z"></path>
</svg>
<svg id="icon-redeem" width="18" height="18" viewBox="0 0 18 18" x="34" y="136">
<path d="M15.012 10.512v-4.5h-3.832l1.582 2.109-1.23 0.879q-2.25-3.059-2.531-3.445-0.281 0.387-2.531 3.445l-1.23-0.879 1.582-2.109h-3.832v4.5h12.023zM15.012 14.238v-1.477h-12.023v1.477h12.023zM6.75 2.988q-0.316 0-0.527 0.229t-0.211 0.545 0.211 0.527 0.527 0.211 0.527-0.211 0.211-0.527-0.211-0.545-0.527-0.229zM11.25 2.988q-0.316 0-0.527 0.229t-0.211 0.545 0.211 0.527 0.527 0.211 0.527-0.211 0.211-0.527-0.211-0.545-0.527-0.229zM15.012 4.5q0.633 0 1.055 0.439t0.422 1.072v8.227q0 0.633-0.422 1.072t-1.055 0.439h-12.023q-0.633 0-1.055-0.439t-0.422-1.072v-8.227q0-0.633 0.422-1.072t1.055-0.439h1.652q-0.141-0.492-0.141-0.738 0-0.914 0.668-1.582t1.582-0.668q1.16 0 1.863 0.984l0.387 0.527 0.387-0.527q0.246-0.422 0.809-0.703t1.055-0.281q0.914 0 1.582 0.668t0.668 1.582q0 0.246-0.141 0.738h1.652z"></path>
</svg>
<svg id="icon-pets" width="18" height="18" viewBox="0 0 18 18" x="68" y="136">
<path d="M13.008 11.145l0.598 0.598t0.299 0.316 0.281 0.334 0.264 0.334 0.229 0.352 0.176 0.387 0.105 0.404 0.035 0.422-0.018 0.439q-0.387 1.477-1.758 1.758-0.246 0.035-1.705-0.141t-2.443-0.176h-0.141q-0.984 0-2.443 0.176t-1.705 0.141q-1.371-0.281-1.758-1.758-0.105-0.703 0.246-1.441t0.65-1.055 1.072-1.090q0.352-0.387 0.932-1.090t0.932-1.090q0.633-0.773 1.301-0.984 0.141-0.070 0.246-0.070 0.211-0.035 0.598-0.035 0.422 0 0.598 0.035 0.105 0 0.246 0.070 0.668 0.211 1.301 0.984 0.316 0.387 0.914 1.090t0.949 1.090zM12.762 7.137q0-0.773 0.545-1.336t1.318-0.563 1.318 0.563 0.545 1.336-0.545 1.318-1.318 0.545-1.318-0.545-0.545-1.318zM9.387 4.113q0-0.773 0.545-1.318t1.318-0.545 1.318 0.545 0.545 1.318-0.545 1.336-1.318 0.563-1.318-0.563-0.545-1.336zM4.887 4.113q0-0.773 0.545-1.318t1.318-0.545 1.318 0.545 0.545 1.318-0.545 1.336-1.318 0.563-1.318-0.563-0.545-1.336zM1.512 7.137q0-0.773 0.545-1.336t1.318-0.563 1.318 0.563 0.545 1.336-0.545 1.318-1.318 0.545-1.318-0.545-0.545-1.318z"></path>
</svg>
<svg id="icon-emoji_events" width="18" height="18" viewBox="0 0 18 18" x="102" y="136">
<path d="M14.238 6.012v-0.773h-1.477v2.883q1.477-0.527 1.477-2.109zM5.238 8.121v-2.883h-1.477v0.773q0 1.582 1.477 2.109zM14.238 3.762q0.598 0 1.055 0.439t0.457 1.037v0.773q0 1.406-0.949 2.461t-2.355 1.23q-0.316 0.773-1.107 1.406t-1.6 0.809v2.32h3.023v1.512h-7.523v-1.512h3.023v-2.32q-0.809-0.176-1.6-0.809t-1.107-1.406q-1.406-0.176-2.355-1.23t-0.949-2.461v-0.773q0-0.598 0.457-1.037t1.055-0.439h1.477v-1.512h7.523v1.512h1.477z"></path>
</svg>
<svg id="icon-dinner_dining" width="18" height="18" viewBox="0 0 18 18" x="136" y="136">
<path d="M2.988 12.375v-6.363h-0.738v-0.773h0.738v-0.738h-0.738v-0.738h0.738v-0.773h-0.738v-0.738h4.5q0.563 0.035 1.002 0.475t0.51 1.037h7.488v0.738h-7.488q-0.070 0.598-0.51 1.072t-1.002 0.439h-1.512v5.273q0.070 0 0.193-0.018t0.193-0.018q0.633 0 1.441 0.316 0.457-1.055 1.582-1.811t2.25-0.756q1.723 0 2.918 1.195t1.195 2.918q0 0.070-0.018 0.211t-0.018 0.176h-12.621q0.141-0.563 0.633-1.125zM4.5 11.426v-5.414h-0.738v5.766q0.527-0.281 0.738-0.352zM6.75 5.238v-0.738h-1.512v0.738h1.512zM6.75 2.988h-1.512v0.773h1.512v-0.773zM3.762 2.988v0.773h0.738v-0.773h-0.738zM3.762 4.5v0.738h0.738v-0.738h-0.738zM1.512 14.238h14.977l-1.477 1.512h-12.023z"></path>
</svg>
<svg id="icon-lunch_dining" width="18" height="18" viewBox="0 0 18 18" x="170" y="136">
<path d="M1.512 11.988h14.977v1.512q0 0.598-0.439 1.055t-1.037 0.457h-12.023q-0.598 0-1.037-0.457t-0.439-1.055v-1.512zM4.008 10.125q-0.387 0-0.844 0.281-0.773 0.457-1.652 0.457v-1.477q0.387 0 0.844-0.281 0.809-0.492 1.652-0.492 0.809 0 1.617 0.492 0.457 0.281 0.879 0.281 0.387 0 0.844-0.281 0.809-0.492 1.652-0.492 0.809 0 1.617 0.492 0.457 0.281 0.879 0.281 0.387 0 0.844-0.281 0.809-0.492 1.652-0.492 0.809 0 1.617 0.492l0.879 0.281v1.477q-0.844 0-1.617-0.457-0.457-0.281-0.879-0.281-0.387 0-0.844 0.281-0.773 0.457-1.652 0.457-0.844 0-1.617-0.457-0.457-0.281-0.879-0.281-0.387 0-0.844 0.281-0.773 0.457-1.652 0.457-0.844 0-1.617-0.457-0.457-0.281-0.879-0.281zM16.488 7.488h-14.977q-0.176-1.828 2.039-3.164t5.449-1.336 5.449 1.336 2.039 3.164z"></path>
</svg>
<svg id="icon-park" width="18" height="18" viewBox="0 0 18 18" x="204" y="136">
<path d="M12.762 9l2.988 4.5h-5.273v2.988h-2.953v-2.988h-5.203l2.918-4.5h-1.441l5.203-7.488 5.238 7.488h-1.477z"></path>
</svg>
<svg id="icon-theater_comedy" width="18" height="18" viewBox="0 0 18 18" x="238" y="136">
<path d="M14.238 6.047q0.316 0 0.545-0.211t0.229-0.527-0.229-0.527-0.545-0.211-0.527 0.211-0.211 0.527 0.211 0.527 0.527 0.211zM10.512 6.047q0.316 0 0.527-0.211t0.211-0.527-0.211-0.527-0.527-0.211-0.545 0.211-0.229 0.527 0.229 0.527 0.545 0.211zM8.262 2.25h8.227v4.887q0 1.723-1.195 2.918t-2.918 1.195q-0.949 0-1.863-0.457v-2.18h3.727q0-0.457-0.545-0.791t-1.318-0.334-1.318 0.334-0.545 0.791v-1.863h-2.25v-4.5zM3.762 9.738q-0.316 0-0.545 0.229t-0.229 0.545 0.229 0.527 0.545 0.211 0.527-0.211 0.211-0.527-0.211-0.545-0.527-0.229zM7.488 9.738q-0.316 0-0.527 0.229t-0.211 0.545 0.211 0.527 0.527 0.211 0.545-0.211 0.229-0.527-0.229-0.545-0.545-0.229zM5.625 13.887q0.773 0 1.318-0.334t0.545-0.791h-3.727q0 0.457 0.545 0.791t1.318 0.334zM1.512 12.375v-4.887h8.227v4.887q0 1.723-1.195 2.918t-2.918 1.195-2.918-1.195-1.195-2.918z"></path>
</svg>
<svg id="icon-child_friendly" width="18" height="18" viewBox="0 0 18 18" x="272" y="136">
<path d="M12.762 15.012q0.457 0 0.791-0.334t0.334-0.791-0.334-0.791-0.791-0.334-0.791 0.334-0.334 0.791 0.334 0.791 0.791 0.334zM6.012 15.012q0.457 0 0.791-0.334t0.334-0.791-0.334-0.791-0.791-0.334-0.791 0.334-0.334 0.791 0.334 0.791 0.791 0.334zM14.484 11.918q0.879 0.809 0.879 1.969 0 1.090-0.756 1.846t-1.846 0.756q-0.984 0-1.723-0.65t-0.879-1.6h-1.582q-0.141 0.949-0.861 1.6t-1.705 0.65q-1.090 0-1.863-0.756t-0.773-1.846q0-1.547 1.371-2.32l-1.582-3.305h-1.652v-1.512h2.602l0.703 1.512h10.934q0 0.844-0.369 1.916t-0.896 1.74zM9.738 1.512q2.496 0 4.254 1.758t1.758 4.219h-6.012v-5.977z"></path>
</svg>
<svg id="icon-medical_services" width="18" height="18" viewBox="0 0 18 18" x="306" y="136">
<path d="M15.012 4.5h-3.023v-1.512q0-0.598-0.439-1.037t-1.037-0.439h-3.023q-0.598 0-1.037 0.439t-0.439 1.037v1.512h-3.023q-0.598 0-1.037 0.439t-0.439 1.072v9q0 0.598 0.439 1.037t1.037 0.439h12.023q0.598 0 1.037-0.439t0.439-1.037v-9q0-0.633-0.439-1.072t-1.037-0.439zM7.488 2.988h3.023v1.512h-3.023v-1.512zM11.988 11.25h-2.25v2.25h-1.477v-2.25h-2.25v-1.512h2.25v-2.25h1.477v2.25h2.25v1.512z"></path>
</svg>
<svg id="icon-pending_actions" width="18" height="18" viewBox="0 0 18 18" x="340" y="136">
<path d="M12.762 9q-1.055 0-1.898 0.51t-1.354 1.354-0.51 1.898q0 1.020 0.51 1.881t1.354 1.354 1.898 0.492q1.020 0 1.881-0.492t1.354-1.354 0.492-1.881q0-1.055-0.492-1.898t-1.354-1.354-1.881-0.51zM13.992 14.52l-1.617-1.617v-2.391h0.738v2.074l1.406 1.406zM13.5 2.25h-2.391q-0.246-0.668-0.809-1.090t-1.301-0.422-1.301 0.422-0.809 1.090h-2.391q-0.633 0-1.072 0.439t-0.439 1.072v11.25q0 0.598 0.439 1.037t1.072 0.439h4.57q-0.668-0.633-1.055-1.477h-3.516v-11.25h1.512v2.25h5.977v-2.25h1.512v3.797q0.773 0.105 1.512 0.457v-4.254q0-0.633-0.439-1.072t-1.072-0.439zM9 3.762q-0.316 0-0.527-0.229t-0.211-0.545q0-0.281 0.211-0.51t0.527-0.229 0.527 0.229 0.211 0.51q0 0.316-0.211 0.545t-0.527 0.229z"></path>
</svg>
<svg id="icon-shopping_bag" width="18" height="18" viewBox="0 0 18 18" x="374" y="136">
<path d="M13.5 4.5h-1.512q0-0.844-0.404-1.512t-1.072-1.072-1.512-0.404-1.512 0.404-1.072 1.072-0.404 1.512h-1.512q-0.633 0-1.072 0.439t-0.439 1.072v9q0 0.598 0.439 1.037t1.072 0.439h9q0.633 0 1.072-0.439t0.439-1.037v-9q0-0.633-0.439-1.072t-1.072-0.439zM7.488 7.488q0 0.316-0.211 0.545t-0.527 0.229-0.527-0.229-0.211-0.545v-1.477h1.477v1.477zM9 2.988q0.633 0 1.072 0.439t0.439 1.072h-3.023q0-0.633 0.439-1.072t1.072-0.439zM11.988 7.488q0 0.316-0.211 0.545t-0.527 0.229-0.527-0.229-0.211-0.545v-1.477h1.477v1.477z"></path>
</svg>
<svg id="icon-diamond" width="18" height="18" viewBox="0 0 18 18" x="408" y="136">
<path d="M13.056 1.475h-8.112l-4.944 4.9 9 10.15 9-10.15-4.944-4.9zM16.196 6.771l-0.010-0.046h-6.677l3.201-3.457 3.486 3.502zM7.799 13.040l-5.267-5.564h3.469l-0.349 0.167 2.147 5.397zM6.403 7.475h5.193l-2.596 6.49-2.597-6.49zM12 7.475h3.467l-5.267 5.564 2.147-5.397-0.347-0.167zM9 6.172l-2.935-3.196h5.869l-2.934 3.196zM5.29 3.297l3.201 3.428h-6.677l-0.009 0.017 3.485-3.446z"></path>
</svg>
<svg id="icon-creditcard" width="18" height="18" viewBox="0 0 18 18" x="0" y="170">
<path d="M16.875 2.25h-15.75c-0.621 0-1.125 0.504-1.125 1.125v11.25c0 0.621 0.504 1.125 1.125 1.125h15.75c0.621 0 1.125-0.504 1.125-1.125v-11.25c0-0.621-0.504-1.125-1.125-1.125zM1.688 3.375h14.625c0.311 0 0.563 0.251 0.563 0.563v1.688h-15.75v-1.688c0-0.311 0.251-0.563 0.563-0.563zM16.313 14.625h-14.625c-0.311 0-0.563-0.251-0.563-0.563v-5.063h15.75v5.063c0 0.311-0.251 0.563-0.563 0.563z"></path>
</svg>
<svg id="icon-home" width="18" height="18" viewBox="0 0 18 18" x="34" y="170"  fill="#615551">
<path d="M18 10.379l-9-6.986-9 6.986v-2.848l9-6.986 9 6.986zM15.75 10.125v6.75h-4.5v-4.5h-4.5v4.5h-4.5v-6.75l6.75-5.063z"></path>
</svg>
<svg id="icon-library" width="19" height="18" viewBox="0 0 19 18" x="68" y="170">
<path d="M18 16.875v-1.125h-1.125v-6.75h1.125v-1.125h-3.375v1.125h1.125v6.75h-3.375v-6.75h1.125v-1.125h-3.375v1.125h1.125v6.75h-3.375v-6.75h1.125v-1.125h-3.375v1.125h1.125v6.75h-3.375v-6.75h1.125v-1.125h-3.375v1.125h1.125v6.75h-1.125v1.125h-1.125v1.125h19.125v-1.125h-1.125z"></path>
<path d="M9 0h1.125l9 5.625v1.125h-19.125v-1.125l9-5.625z"></path>
</svg>
<svg id="icon-ticket" width="18" height="18" viewBox="0 0 18 18" x="102" y="170">
<path d="M10.125 5.625l2.25 2.25-4.5 4.5-2.25-2.25zM17.605 5.23l-1.292-1.292-0.563 0.563c-0.288 0.288-0.686 0.466-1.125 0.466-0.879 0-1.591-0.712-1.591-1.591 0-0.439 0.178-0.837 0.466-1.125l0.562-0.562-1.292-1.292c-0.527-0.527-1.389-0.527-1.916 0l-10.46 10.46c-0.527 0.527-0.527 1.389 0 1.916l1.292 1.292 0.562-0.562c0.288-0.288 0.686-0.467 1.126-0.467 0.879 0 1.591 0.712 1.591 1.591 0 0.44-0.178 0.837-0.466 1.125l-0.562 0.562 1.292 1.292c0.527 0.527 1.389 0.527 1.916 0l10.46-10.46c0.527-0.527 0.527-1.389 0-1.916zM7.875 14.625l-4.5-4.5 6.75-6.75 4.5 4.5-6.75 6.75z"></path>
</svg>
<svg id="icon-coin-dollar" width="18" height="18" viewBox="0 0 18 18" x="136" y="170">
<path d="M8.438 1.125c-4.66 0-8.438 3.778-8.438 8.438s3.778 8.438 8.438 8.438c4.66 0 8.438-3.778 8.438-8.438s-3.778-8.438-8.438-8.438zM8.438 16.313c-3.728 0-6.75-3.022-6.75-6.75s3.022-6.75 6.75-6.75c3.728 0 6.75 3.022 6.75 6.75s-3.022 6.75-6.75 6.75zM9 9v-2.25h2.25v-1.125h-2.25v-1.125h-1.125v1.125h-2.25v4.5h2.25v2.25h-2.25v1.125h2.25v1.125h1.125v-1.125h2.25l-0-4.5h-2.25zM7.875 9h-1.125v-2.25h1.125v2.25zM10.125 12.375h-1.125v-2.25h1.125v2.25z"></path>
</svg>
<svg id="icon-coin-euro" width="18" height="18" viewBox="0 0 18 18" x="170" y="170">
<path d="M8.438 1.125c-4.66 0-8.438 3.778-8.438 8.438s3.778 8.438 8.438 8.438c4.66 0 8.438-3.778 8.438-8.438s-3.778-8.438-8.438-8.438zM8.438 16.313c-3.728 0-6.75-3.022-6.75-6.75s3.022-6.75 6.75-6.75c3.728 0 6.75 3.022 6.75 6.75s-3.022 6.75-6.75 6.75z"></path>
<path d="M11.792 11.326c-0.268-0.156-0.613-0.065-0.769 0.203-0.303 0.521-0.863 0.845-1.46 0.845h-2.25c-0.733 0-1.359-0.47-1.591-1.125h2.716c0.311 0 0.563-0.252 0.563-0.563s-0.252-0.563-0.563-0.563h-2.813v-1.125h2.813c0.311 0 0.563-0.252 0.563-0.563s-0.252-0.563-0.563-0.563h-2.716c0.232-0.655 0.857-1.125 1.591-1.125h2.25c0.597 0 1.157 0.324 1.46 0.845 0.156 0.269 0.501 0.36 0.769 0.203s0.36-0.501 0.203-0.769c-0.504-0.866-1.436-1.405-2.433-1.405h-2.25c-1.358 0-2.495 0.968-2.756 2.25h-0.619c-0.311 0-0.563 0.252-0.563 0.563s0.252 0.563 0.563 0.563h0.562v1.125h-0.562c-0.311 0-0.563 0.252-0.563 0.563s0.252 0.563 0.563 0.563h0.619c0.261 1.282 1.398 2.25 2.756 2.25h2.25c0.997 0 1.929-0.538 2.433-1.405 0.156-0.269 0.065-0.613-0.203-0.769z"></path>
</svg>
<svg id="icon-calculator" width="18" height="18" viewBox="0 0 18 18" x="204" y="170"  fill="#615551">
<path d="M6.75 1.125h-5.625c-0.619 0-1.125 0.506-1.125 1.125v5.625c0 0.619 0.506 1.125 1.125 1.125h5.625c0.619 0 1.125-0.506 1.125-1.125v-5.625c0-0.619-0.506-1.125-1.125-1.125zM6.75 5.625h-5.625v-1.125h5.625v1.125zM15.75 1.125h-5.625c-0.619 0-1.125 0.506-1.125 1.125v14.625c0 0.619 0.506 1.125 1.125 1.125h5.625c0.619 0 1.125-0.506 1.125-1.125v-14.625c0-0.619-0.506-1.125-1.125-1.125zM15.75 11.25h-5.625v-1.125h5.625v1.125zM15.75 7.875h-5.625v-1.125h5.625v1.125zM6.75 10.125h-5.625c-0.619 0-1.125 0.506-1.125 1.125v5.625c0 0.619 0.506 1.125 1.125 1.125h5.625c0.619 0 1.125-0.506 1.125-1.125v-5.625c0-0.619-0.506-1.125-1.125-1.125zM6.75 14.625h-2.25v2.25h-1.125v-2.25h-2.25v-1.125h2.25v-2.25h1.125v2.25h2.25v1.125z"></path>
</svg>
<svg id="icon-lifebuoy" width="18" height="18" viewBox="0 0 18 18" x="238" y="170"  fill="#615551">
<path d="M9 0c-4.971 0-9 4.029-9 9s4.029 9 9 9 9-4.029 9-9-4.029-9-9-9zM5.625 9c0-1.864 1.511-3.375 3.375-3.375s3.375 1.511 3.375 3.375-1.511 3.375-3.375 3.375-3.375-1.511-3.375-3.375zM16.277 12.014v0l-3.119-1.292c0.22-0.531 0.342-1.112 0.342-1.722s-0.122-1.192-0.342-1.722l3.119-1.292c0.385 0.929 0.598 1.946 0.598 3.014s-0.213 2.086-0.598 3.014v0zM12.014 1.723v0 0l-1.292 3.119c-0.531-0.22-1.112-0.342-1.722-0.342s-1.192 0.122-1.722 0.342l-1.292-3.119c0.929-0.385 1.946-0.598 3.014-0.598s2.086 0.213 3.014 0.598zM1.723 5.986l3.119 1.292c-0.22 0.531-0.342 1.112-0.342 1.722s0.122 1.192 0.342 1.722l-3.119 1.292c-0.385-0.929-0.598-1.946-0.598-3.014s0.213-2.086 0.598-3.014zM5.986 16.277l1.292-3.119c0.531 0.22 1.112 0.342 1.722 0.342s1.192-0.122 1.722-0.342l1.292 3.119c-0.929 0.385-1.946 0.598-3.014 0.598s-2.086-0.213-3.014-0.598z"></path>
</svg>
<svg id="icon-download" width="18" height="18" viewBox="0 0 18 18" x="272" y="170"  fill="#615551">
<path d="M9 10.125l4.5-4.5h-3.375v-4.5h-2.25v4.5h-3.375zM13.091 8.284l-1.261 1.261 4.572 1.705-7.402 2.76-7.402-2.76 4.572-1.705-1.261-1.261-4.909 1.841v4.5l9 3.375 9-3.375v-4.5z"></path>
</svg>
<svg id="icon-database" width="18" height="18" viewBox="0 0 18 18" x="306" y="170"  fill="#615551">
<path d="M9 0c-4.971 0-9 1.259-9 2.813v2.25c0 1.553 4.029 2.813 9 2.813s9-1.259 9-2.813v-2.25c0-1.553-4.029-2.813-9-2.813z"></path>
<path d="M9 9.563c-4.971 0-9-1.259-9-2.813v3.375c0 1.553 4.029 2.813 9 2.813s9-1.259 9-2.813v-3.375c0 1.553-4.029 2.813-9 2.813z"></path>
<path d="M9 14.625c-4.971 0-9-1.259-9-2.813v3.375c0 1.553 4.029 2.813 9 2.813s9-1.259 9-2.813v-3.375c0 1.553-4.029 2.813-9 2.813z"></path>
</svg>
<svg id="icon-cogs" width="18" height="18" viewBox="0 0 18 18" x="340" y="170">
<path d="M6.394 12.692l0.726-1.016-0.795-0.796-1.016 0.726c-0.188-0.105-0.39-0.189-0.602-0.249l-0.205-1.232h-1.125l-0.205 1.232c-0.212 0.060-0.414 0.144-0.602 0.249l-1.016-0.726-0.796 0.796 0.726 1.016c-0.105 0.188-0.189 0.39-0.249 0.602l-1.232 0.205v1.125l1.232 0.205c0.060 0.212 0.144 0.414 0.249 0.602l-0.726 1.016 0.795 0.796 1.016-0.726c0.188 0.105 0.39 0.189 0.602 0.249l0.205 1.232h1.125l0.205-1.232c0.212-0.060 0.414-0.144 0.602-0.249l1.016 0.726 0.795-0.796-0.726-1.016c0.105-0.188 0.189-0.39 0.249-0.602l1.232-0.205v-1.125l-1.232-0.205c-0.060-0.212-0.144-0.414-0.249-0.602zM3.938 15.188c-0.621 0-1.125-0.504-1.125-1.125s0.504-1.125 1.125-1.125 1.125 0.504 1.125 1.125-0.504 1.125-1.125 1.125zM18 6.75v-1.125l-1.184-0.215c-0.022-0.141-0.050-0.281-0.083-0.418l1.012-0.652-0.431-1.039-1.177 0.254c-0.074-0.121-0.153-0.239-0.237-0.354l0.686-0.99-0.796-0.795-0.99 0.686c-0.114-0.084-0.232-0.163-0.354-0.237l0.254-1.177-1.039-0.431-0.652 1.012c-0.137-0.033-0.277-0.061-0.418-0.083l-0.215-1.184h-1.125l-0.215 1.184c-0.141 0.022-0.281 0.050-0.418 0.083l-0.652-1.012-1.039 0.431 0.254 1.177c-0.121 0.074-0.239 0.153-0.354 0.237l-0.99-0.686-0.795 0.795 0.686 0.99c-0.084 0.114-0.163 0.232-0.237 0.354l-1.177-0.254-0.431 1.039 1.012 0.652c-0.033 0.137-0.061 0.277-0.083 0.418l-1.184 0.215v1.125l1.184 0.215c0.022 0.141 0.050 0.281 0.083 0.418l-1.012 0.652 0.431 1.039 1.177-0.254c0.074 0.121 0.153 0.239 0.237 0.354l-0.686 0.99 0.795 0.796 0.99-0.686c0.114 0.084 0.232 0.163 0.354 0.237l-0.254 1.177 1.039 0.431 0.652-1.012c0.137 0.033 0.277 0.061 0.418 0.083l0.215 1.184h1.125l0.215-1.184c0.141-0.022 0.281-0.050 0.418-0.083l0.652 1.012 1.039-0.431-0.254-1.177c0.121-0.074 0.239-0.153 0.354-0.237l0.99 0.686 0.796-0.796-0.686-0.99c0.084-0.114 0.163-0.232 0.237-0.354l1.177 0.254 0.431-1.039-1.012-0.652c0.033-0.137 0.061-0.277 0.083-0.418l1.184-0.215zM11.813 8.634c-1.351 0-2.447-1.096-2.447-2.447s1.095-2.447 2.447-2.447 2.447 1.096 2.447 2.447c0 1.351-1.095 2.447-2.447 2.447z"></path>
</svg>
<svg id="icon-hammer" width="18" height="18" viewBox="0 0 18 18" x="374" y="170">
<path d="M17.754 14.572l-5.301-5.301c-0.328-0.328-0.865-0.328-1.193 0l-0.398 0.398-3.234-3.234 5.31-5.31h-5.625l-2.497 2.497-0.247-0.247h-1.193v1.193l0.247 0.247-3.622 3.622 2.813 2.813 3.622-3.622 3.234 3.234-0.398 0.398c-0.328 0.328-0.328 0.865 0 1.193l5.301 5.301c0.328 0.328 0.865 0.328 1.193 0l1.989-1.989c0.328-0.328 0.328-0.865 0-1.193z"></path>
</svg>
<svg id="icon-pie-chart" width="18" height="18" viewBox="0 0 18 18" x="408" y="170"  fill="#615551">
<path d="M7.875 10.125v-7.875c-4.349 0-7.875 3.526-7.875 7.875s3.526 7.875 7.875 7.875 7.875-3.526 7.875-7.875c0-1.266-0.299-2.462-0.83-3.522l-7.045 3.522zM16.045 4.353c-1.293-2.581-3.962-4.353-7.045-4.353v7.875l7.045-3.522z"></path>
</svg>
<svg id="icon-glass2" width="18" height="18" viewBox="0 0 18 18" x="442" y="170">
<path d="M15.63 3.16c0.133-0.169 0.158-0.4 0.064-0.593s-0.291-0.317-0.506-0.317h-12.375c-0.215 0-0.412 0.123-0.506 0.317s-0.069 0.424 0.064 0.593l5.505 7.006v6.709h-1.688c-0.311 0-0.563 0.252-0.563 0.563s0.252 0.563 0.563 0.563h5.625c0.311 0 0.563-0.252 0.563-0.563s-0.252-0.563-0.563-0.563h-1.688v-6.709l5.505-7.006zM14.030 3.375l-1.768 2.25h-6.525l-1.768-2.25h10.060z"></path>
</svg>
<svg id="icon-star-full" width="18" height="18" viewBox="0 0 18 18" x="476" y="170">
<path d="M18 6.979l-6.219-0.904-2.781-5.635-2.781 5.635-6.219 0.904 4.5 4.386-1.062 6.194 5.562-2.924 5.562 2.924-1.062-6.194 4.5-4.386z"></path>
</svg>
<svg id="icon-frustrated2" width="18" height="18" viewBox="0 0 18 18" x="510" y="170">
<path d="M4.5 11.531v1.688c0 0.152 0.129 0.281 0.281 0.281h1.969v-2.25h-1.969c-0.152 0-0.281 0.129-0.281 0.281z"></path>
<path d="M7.875 11.25h2.25v2.25h-2.25v-2.25z"></path>
<path d="M13.219 11.25h-1.969v2.25h1.969c0.152 0 0.281-0.129 0.281-0.281v-1.688c0-0.152-0.129-0.281-0.281-0.281z"></path>
<path d="M9 0c-4.971 0-9 4.029-9 9s4.029 9 9 9 9-4.029 9-9-4.029-9-9-9zM10.127 6.689c0.036-0.834 0.795-1.388 1.434-1.708 0.611-0.305 1.215-0.458 1.24-0.464 0.301-0.075 0.607 0.108 0.682 0.409s-0.108 0.607-0.409 0.682c-0.31 0.078-0.677 0.213-1.001 0.375 0.187 0.201 0.302 0.47 0.302 0.767 0 0.621-0.504 1.125-1.125 1.125s-1.125-0.504-1.125-1.125c0-0.021 0.001-0.041 0.002-0.061zM4.517 4.926c0.075-0.301 0.381-0.485 0.682-0.409 0.025 0.006 0.629 0.159 1.24 0.464 0.639 0.32 1.399 0.873 1.434 1.708 0.001 0.020 0.002 0.041 0.002 0.061 0 0.621-0.504 1.125-1.125 1.125s-1.125-0.504-1.125-1.125c0-0.296 0.115-0.566 0.302-0.767-0.324-0.162-0.691-0.297-1.001-0.375-0.301-0.075-0.485-0.381-0.409-0.682zM14.625 13.219c0 0.775-0.631 1.406-1.406 1.406h-8.438c-0.775 0-1.406-0.631-1.406-1.406v-1.688c0-0.775 0.631-1.406 1.406-1.406h8.438c0.775 0 1.406 0.631 1.406 1.406v1.688z"></path>
</svg>
<svg id="icon-enter" width="18" height="18" viewBox="0 0 18 18" x="0" y="204">
<path d="M6.75 9h-5.625v-2.25h5.625v-2.25l3.375 3.375-3.375 3.375zM18 0v14.625l-6.75 3.375v-3.375h-6.75v-4.5h1.125v3.375h5.625v-10.125l4.5-2.25h-10.125v4.5h-1.125v-5.625z"></path>
</svg>
<svg id="icon-exit" width="18" height="18" viewBox="0 0 18 18" x="34" y="204">
<path d="M13.5 11.25v-2.25h-5.625v-2.25h5.625v-2.25l3.375 3.375zM12.375 10.125v4.5h-5.625v3.375l-6.75-3.375v-14.625h12.375v5.625h-1.125v-4.5h-9l4.5 2.25v10.125h4.5v-3.375z"></path>
</svg>
<svg id="icon-circle-left" width="18" height="18" viewBox="0 0 18 18" x="68" y="204" fill="#615551">
<path d="M9 18c4.971 0 9-4.029 9-9s-4.029-9-9-9-9 4.029-9 9 4.029 9 9 9zM9 1.688c4.039 0 7.313 3.274 7.313 7.313s-3.274 7.313-7.313 7.313-7.313-3.274-7.313-7.313 3.274-7.313 7.313-7.313z"></path>
<path d="M11.764 5.577l-1.591-1.591-5.014 5.014 5.014 5.014 1.591-1.591-3.423-3.423z"></path>
</svg>
<svg id="icon-loader" width="72" height="72" viewBox="0 0 72 72" x="0" y="240">
<path d="M33 6v12c0 1.656 1.344 3 3 3s3-1.344 3-3v-12c0-1.656-1.344-3-3-3s-3 1.344-3 3zM33 54v12c0 1.656 1.344 3 3 3s3-1.344 3-3v-12c0-1.656-1.344-3-3-3s-3 1.344-3 3zM12.669 16.911l8.49 8.49c1.173 1.173 3.072 1.173 4.242 0s1.173-3.072 0-4.242l-8.49-8.49c-1.173-1.173-3.072-1.173-4.242 0s-1.173 3.072 0 4.242zM46.599 50.841l8.49 8.49c1.173 1.173 3.072 1.173 4.242 0s1.173-3.072 0-4.242l-8.49-8.49c-1.173-1.173-3.072-1.173-4.242 0s-1.173 3.072 0 4.242zM6 39h12c1.656 0 3-1.344 3-3s-1.344-3-3-3h-12c-1.656 0-3 1.344-3 3s1.344 3 3 3zM54 39h12c1.656 0 3-1.344 3-3s-1.344-3-3-3h-12c-1.656 0-3 1.344-3 3s1.344 3 3 3zM16.911 59.331l8.49-8.49c1.173-1.173 1.173-3.072 0-4.242s-3.072-1.173-4.242 0l-8.49 8.49c-1.173 1.173-1.173 3.072 0 4.242s3.072 1.173 4.242 0zM50.841 25.401l8.49-8.49c1.173-1.173 1.173-3.072 0-4.242s-3.072-1.173-4.242 0l-8.49 8.49c-1.173 1.173-1.173 3.072 0 4.242s3.072 1.173 4.242 0z"></path>
</svg>
<svg id="icon-location" width="12" height="12" viewBox="0 0 12 12"  x="190" y="204">
<path fill="#eb4034" d="M6 5.742q0.516 0 0.879-0.363t0.363-0.879-0.363-0.879-0.879-0.363-0.879 0.363-0.363 0.879 0.363 0.879 0.879 0.363zM6 1.008q1.453 0 2.473 1.020t1.020 2.473q0 0.727-0.363 1.664t-0.879 1.758-1.020 1.535-0.855 1.137l-0.375 0.398q-0.141-0.164-0.375-0.434t-0.844-1.078-1.066-1.57-0.832-1.723-0.375-1.688q0-1.453 1.020-2.473t2.473-1.020z"></path>
</svg>
<svg id="icon-move" width="16" height="16" viewBox="0 0 16 16" x="218" y="204">
<path d="M8.992 2.961v4.032h4v-2l3.008 3.008-3.008 3.008v-2.046h-4v4.031h2.015l-3.008 3.008-3.008-3.008h2v-4.032h-4v2.031l-2.992-2.992 2.992-2.992v1.984h4v-4.032h-1.953l2.961-2.961 2.961 2.961h-1.969z"></path>
</svg>
<svg id="icon-menu" width="24" height="24" viewBox="0 0 24 24"  x="250" y="204">
<path d="M3 6h18v2.016h-18v-2.016zM3 12.984v-1.969h18v1.969h-18zM3 18v-2.016h18v2.016h-18z"></path>
</svg>
<svg id="icon-caret-down"  width="14" height="24" viewBox="0 0 14 24"  x="290" y="204">
<path d="M13.714 9.429c0 0.228-0.094 0.442-0.254 0.603l-6 6c-0.161 0.161-0.375 0.254-0.603 0.254s-0.442-0.094-0.603-0.254l-6-6c-0.161-0.161-0.254-0.375-0.254-0.603 0-0.469 0.388-0.857 0.857-0.857h12c0.469 0 0.857 0.388 0.857 0.857z"></path>
</svg>
<svg fill="#5EC51C" id="icon-arrow-up-green" width="22" height="24" viewBox="0 0 22 24"  x="320" y="204">
<path d="M21.576 13.004c0 0.455-0.188 0.884-0.496 1.205l-1.004 1.004c-0.321 0.321-0.763 0.509-1.219 0.509s-0.897-0.188-1.205-0.509l-3.938-3.924v9.429c0 0.964-0.804 1.567-1.714 1.567h-1.714c-0.911 0-1.714-0.603-1.714-1.567v-9.429l-3.938 3.924c-0.308 0.321-0.75 0.509-1.205 0.509s-0.897-0.188-1.205-0.509l-1.004-1.004c-0.321-0.321-0.509-0.75-0.509-1.205s0.188-0.897 0.509-1.219l8.719-8.719c0.308-0.321 0.75-0.496 1.205-0.496s0.897 0.174 1.219 0.496l8.719 8.719c0.308 0.321 0.496 0.763 0.496 1.219z"></path>
</svg>
<svg fill="#E7494C" id="icon-arrow-down-red" width="22" height="24" viewBox="0 0 22 24"  x="358" y="204">
<path d="M21.576 11.143c0 0.455-0.188 0.897-0.496 1.205l-8.719 8.732c-0.321 0.308-0.763 0.496-1.219 0.496s-0.897-0.188-1.205-0.496l-8.719-8.732c-0.321-0.308-0.509-0.75-0.509-1.205s0.188-0.897 0.509-1.219l0.991-1.004c0.321-0.308 0.763-0.496 1.219-0.496s0.897 0.188 1.205 0.496l3.938 3.938v-9.429c0-0.938 0.777-1.714 1.714-1.714h1.714c0.938 0 1.714 0.777 1.714 1.714v9.429l3.938-3.938c0.308-0.308 0.75-0.496 1.205-0.496s0.897 0.188 1.219 0.496l1.004 1.004c0.308 0.321 0.496 0.763 0.496 1.219z"></path>
</svg>
<svg id="icon-arrow-circle-right" width="18" height="18" viewBox="0 0 18 18" x="396" y="204">
<path d="M17.25 9c0-2.278-0.924-4.342-2.416-5.833s-3.556-2.417-5.833-2.417-4.342 0.924-5.833 2.417-2.417 3.556-2.417 5.833 0.924 4.342 2.417 5.833 3.556 2.416 5.833 2.416 4.342-0.924 5.833-2.416 2.416-3.556 2.416-5.833zM15.75 9c0 1.864-0.755 3.551-1.977 4.773s-2.908 1.977-4.773 1.977-3.55-0.755-4.773-1.977-1.977-2.908-1.977-4.773 0.755-3.55 1.977-4.773 2.908-1.977 4.773-1.977 3.551 0.755 4.773 1.977 1.977 2.908 1.977 4.773zM6 9.75h4.19l-1.72 1.72c-0.293 0.293-0.293 0.768 0 1.061s0.768 0.293 1.061 0l3-3c0.069-0.069 0.125-0.152 0.163-0.243 0.076-0.184 0.076-0.391 0-0.575-0.037-0.089-0.091-0.171-0.163-0.243l-3-3c-0.293-0.293-0.768-0.293-1.061 0s-0.293 0.768 0 1.061l1.72 1.72h-4.189c-0.414 0-0.75 0.336-0.75 0.75s0.336 0.75 0.75 0.75z"></path>
</svg>
<svg id="icon-arrow-left-circle" width="18" height="18" viewBox="0 0 18 18" x="420" y="204">
<path d="M17.25 9c0-2.278-0.924-4.342-2.416-5.833s-3.556-2.417-5.833-2.417-4.342 0.924-5.833 2.417-2.417 3.556-2.417 5.833 0.924 4.342 2.417 5.833 3.556 2.416 5.833 2.416 4.342-0.924 5.833-2.416 2.416-3.556 2.416-5.833zM15.75 9c0 1.864-0.755 3.551-1.977 4.773s-2.908 1.977-4.773 1.977-3.55-0.755-4.773-1.977-1.977-2.908-1.977-4.773 0.755-3.55 1.977-4.773 2.908-1.977 4.773-1.977 3.551 0.755 4.773 1.977 1.977 2.908 1.977 4.773zM12 8.25h-4.19l1.72-1.72c0.293-0.293 0.293-0.768 0-1.061s-0.768-0.293-1.061 0l-3 3c-0.072 0.072-0.126 0.154-0.163 0.243-0.038 0.091-0.057 0.19-0.057 0.287 0 0.192 0.073 0.384 0.22 0.53l3 3c0.293 0.293 0.768 0.293 1.061 0s0.293-0.768 0-1.061l-1.72-1.72h4.189c0.414 0 0.75-0.336 0.75-0.75s-0.336-0.75-0.75-0.75z"></path>
</svg>
<svg id="icon-arrow-circle-right-primary" fill="#007AFF" width="18" height="18" viewBox="0 0 18 18" x="464" y="204">
<path d="M17.25 9c0-2.278-0.924-4.342-2.416-5.833s-3.556-2.417-5.833-2.417-4.342 0.924-5.833 2.417-2.417 3.556-2.417 5.833 0.924 4.342 2.417 5.833 3.556 2.416 5.833 2.416 4.342-0.924 5.833-2.416 2.416-3.556 2.416-5.833zM15.75 9c0 1.864-0.755 3.551-1.977 4.773s-2.908 1.977-4.773 1.977-3.55-0.755-4.773-1.977-1.977-2.908-1.977-4.773 0.755-3.55 1.977-4.773 2.908-1.977 4.773-1.977 3.551 0.755 4.773 1.977 1.977 2.908 1.977 4.773zM6 9.75h4.19l-1.72 1.72c-0.293 0.293-0.293 0.768 0 1.061s0.768 0.293 1.061 0l3-3c0.069-0.069 0.125-0.152 0.163-0.243 0.076-0.184 0.076-0.391 0-0.575-0.037-0.089-0.091-0.171-0.163-0.243l-3-3c-0.293-0.293-0.768-0.293-1.061 0s-0.293 0.768 0 1.061l1.72 1.72h-4.189c-0.414 0-0.75 0.336-0.75 0.75s0.336 0.75 0.75 0.75z"></path>
</svg>
<svg id="icon-file-excel" fill="#008000" width="64" height="64" viewBox="0 0 64 64" x="88" y="240">
<path d="M46.439 24h-8.456l-5.983 8.815-5.984-8.815h-8.456l10.135 15.154-11.436 16.846h15.74v-5.724h-3.135l3.135-4.687 6.962 10.411h8.778l-11.436-16.846 10.135-15.154z"></path>
<path d="M57.363 14.317c-1.388-1.893-3.323-4.106-5.449-6.231s-4.338-4.060-6.231-5.449c-3.223-2.364-4.787-2.637-5.683-2.637h-31c-2.757 0-5 2.243-5 5v54c0 2.757 2.243 5 5 5h46c2.757 0 5-2.243 5-5v-39c0-0.896-0.273-2.459-2.637-5.683v0zM49.086 10.914c1.919 1.919 3.425 3.65 4.536 5.086h-9.622v-9.622c1.436 1.111 3.167 2.617 5.086 4.536v0zM56 59c0 0.542-0.458 1-1 1h-46c-0.542 0-1-0.458-1-1v-54c0-0.542 0.458-1 1-1 0 0 30.997-0 31 0v14c0 1.105 0.895 2 2 2h14v39z"></path>
</svg>
</svg>
